<?xml version="1.0" encoding="utf-8"?>
<!-- Generator: Adobe Illustrator 23.0.5, SVG Export Plug-In . SVG Version: 6.00 Build 0)  -->
<svg version="1.1" id="Layer_1" xmlns="http://www.w3.org/2000/svg" xmlns:xlink="http://www.w3.org/1999/xlink" x="0px" y="0px"
	 viewBox="0 0 253 144" enable-background="new 0 0 253 144" xml:space="preserve">
<g id="OBJECTS">
	<g>
		<g>
			<g>
				<g>
					<g>
						<g>
							<path fill="#A6AFB2" d="M19.75,113.79v6.71h77.48h18.17h45.86c3.71,0,6.71-3,6.71-6.71H19.75z"/>
							<path fill="#6B6B6B" d="M146.02,124.81h-21.59c-1.32,0-2.4-1.07-2.4-2.4v-1.91h26.39v1.91
								C148.43,123.73,147.35,124.81,146.02,124.81z"/>
							<path fill="#6B6B6B" d="M9.77,94.31L9.77,94.31c-3.41,0-6.18,2.77-6.18,6.18v12.86c0,3.95,3.2,7.15,7.15,7.15h9.01V94.31
								H9.77z"/>
							<path fill="#C4C6C6" d="M167.98,17.66v96.13H15.8c-3.33,0-6.03-2.7-6.03-6.03v-90.1c0-0.27,0.02-0.53,0.06-0.8
								c0.39-2.65,2.66-4.69,5.42-4.69h147.27c2.76,0,5.04,2.04,5.42,4.69C167.97,17.13,167.98,17.39,167.98,17.66z"/>
							<path fill="#A6AFB2" d="M18.35,88.04c0,0-1.72,7.71,5.14,7.71s124.86,0,129.85,0c4.99,0,6.07-2.95,6.07-7.71H18.35z"/>
							<line fill="none" x1="111.59" y1="113.79" x2="103.63" y2="113.79"/>
							<line fill="none" x1="111.59" y1="113.79" x2="98.27" y2="113.79"/>
							<path fill="#FCB90F" d="M249.5,76.76V97.3c0,1.29,0,4.71,0,4.71h-8.08c-1.9,0-3.48,1.36-3.83,3.16
								c-0.05,0.24-0.07,0.49-0.07,0.74v7.87h-69.52V33.63c0,0,21.18,0,33.3,0c2.59,0,5.07,1.35,7.39,3.46
								c1.46,1.34,2.85,2.98,4.15,4.78c3.42,4.73,6.24,10.58,8.11,14.95c1.58,3.72,2.48,6.37,2.48,6.37s2.23,0.68,5.39,1.77
								C236.44,67.63,249.5,72.76,249.5,76.76z"/>
							<path fill="#FCB90F" d="M249.5,86.35v10.94h-11.74c-1.83,0-3.32-1.48-3.32-3.32v-7.62L249.5,86.35L249.5,86.35z"/>
							<path fill="#FCB90F" d="M228.8,64.97c-0.01,0.01-0.01,0.02-0.01,0.02c-0.22,1.36-5.38,6-18.71,6
								c-6.92,0-14.14,0.29-20.93-1.16c-1.95-0.42-3.55-1.28-5.13-2.44c-0.9-0.67-1.24-1.56-1.68-2.55c-0.69-1.56-1-3-1-4.72
								c0-1.07,0.13-2.09,0.13-3.15l1.71-0.13c8.4-1.02,16.74-1.65,25.22-1.25c4.04,0.19,8.06,0.61,12.06,1.17
								c0.15,0.02,0.32,0.05,0.47,0.06c1.58,3.72,2.48,6.37,2.48,6.37S225.64,63.88,228.8,64.97z"/>
							<path fill="#6B6B6B" d="M237.62,104.96c-0.05,0.24-0.07,0.49-0.07,0.74v7.87h-69.52v0.01H15.84c-3.33,0-6.03-2.7-6.03-6.03
								v-2.59H237.62z"/>
							<path fill="#424242" d="M249.5,102.01v4.05c0,4.26-3.46,7.72-7.72,7.72h-4.27v-7.87c0-2.16,1.75-3.91,3.91-3.91L249.5,102.01
								L249.5,102.01z"/>
							<path fill="#A6AFB2" d="M188.41,113.78h-6.24c0-13.1,10.62-23.71,23.71-23.71c13.09,0,23.71,10.62,23.71,23.71h-6.24"/>
							<path fill="#FFFFFF" d="M249.5,94.4h-11.31c-1.79,0-3.25-1.46-3.25-3.25v-5.91c0-1.79,1.46-3.25,3.25-3.25h11.31V94.4z"/>
							<path fill="#FCB90F" d="M238.29,90.4c-0.28,0.28-1.08,0.98-1.49,0.68c-0.67-0.48,4.08-5.35,5.51-6.65
								c0.45-0.41,1.36-1.43,1.72-0.39C244.32,84.86,241.82,86.88,238.29,90.4z"/>
							<path fill="#FCB90F" d="M241.59,90.52c-0.28,0.28-1.08,0.98-1.49,0.68c-0.67-0.48,1.01-2.3,2.45-3.59
								c0.45-0.41,1.64-1.55,2.07-1.08C245.2,87.14,243.42,88.69,241.59,90.52z"/>
							<g>
								<circle fill="#424242" cx="205.87" cy="114.53" r="17.48"/>
								<circle fill="#9FDAFE" cx="205.87" cy="114.53" r="9.71"/>
								<circle fill="#9FDAFE" cx="205.87" cy="114.53" r="5.46"/>
							</g>
							<g>
								<circle fill="#6B6B6B" cx="205.87" cy="114.53" r="9.71"/>
								<g>
									<circle fill="#FFFFFF" cx="205.88" cy="114.53" r="5.46"/>
									<path fill="#C4C6C6" d="M211.33,114.53c0,3.01-2.44,5.46-5.46,5.46c-3.01,0-5.46-2.44-5.46-5.46c0-0.5,0.07-1,0.2-1.46
										c0.64,2.3,2.76,4,5.26,4c2.51,0,4.62-1.69,5.26-4C211.27,113.53,211.33,114.02,211.33,114.53z"/>
								</g>
							</g>
							<g>
								<circle fill="#424242" cx="45.33" cy="114.53" r="17.48"/>
								<circle fill="#6B6B6B" cx="45.33" cy="114.53" r="9.71"/>
								<g>
									<circle fill="#FFFFFF" cx="45.33" cy="114.53" r="5.46"/>
									<path fill="#C4C6C6" d="M50.78,114.53c0,3.01-2.44,5.46-5.46,5.46c-3.01,0-5.46-2.44-5.46-5.46c0-0.5,0.07-1,0.2-1.46
										c0.64,2.3,2.76,4,5.26,4c2.51,0,4.62-1.69,5.26-4C50.72,113.53,50.78,114.02,50.78,114.53z"/>
								</g>
							</g>
							<g>
								<circle fill="#424242" cx="80.8" cy="114.53" r="17.48"/>
								<circle fill="#6B6B6B" cx="80.8" cy="114.53" r="9.71"/>
								<g>
									<circle fill="#FFFFFF" cx="80.8" cy="114.53" r="5.46"/>
									<path fill="#C4C6C6" d="M86.26,114.53c0,3.01-2.44,5.46-5.46,5.46c-3.01,0-5.46-2.44-5.46-5.46c0-0.5,0.07-1,0.2-1.46
										c0.64,2.3,2.76,4,5.26,4s4.62-1.69,5.26-4C86.19,113.53,86.26,114.02,86.26,114.53z"/>
								</g>
							</g>
						</g>
						<path fill="#FFFFFF" d="M223.41,63.2h-35.67c-3.55,0-6.42-2.87-6.42-6.41v-8.5c0-3.54,2.87-6.41,6.42-6.41h25.08
							C219.15,50.62,223.41,63.2,223.41,63.2z"/>
						<path fill="#FCB90F" d="M188.53,57.25c-0.28,0.28-1.08,0.98-1.49,0.68c-0.67-0.48,0.88-1.91,1.16-2.19
							c1.25-1.27,2.52-2.51,3.77-3.78c1.08-1.08,2.14-2.17,3.22-3.25c1.37-1.37,2.69-2.83,4.12-4.13c0.45-0.41,1.36-1.43,1.72-0.39
							c0.29,0.82-1.46,2.06-1.9,2.5C195.61,50.21,192.06,53.72,188.53,57.25z"/>
						<path fill="#FCB90F" d="M193.3,57.17c-0.28,0.28-1.08,0.98-1.49,0.68c-0.67-0.48,0.87-1.9,1.15-2.19
							c1.04-1.07,2.12-2.1,3.16-3.16c0.34-0.35,0.67-0.69,1.02-1.05c1.23-1.25,2.43-2.56,3.73-3.73c0.45-0.41,1.36-1.43,1.72-0.39
							c0.28,0.8-1.4,2-1.83,2.43C198.28,52.24,195.78,54.69,193.3,57.17z"/>
						<path fill="#FCB90F" d="M183.67,33.63h-15.68v-13.9c7.36,0,11.54,5.04,13.7,9.05C183.12,31.43,183.67,33.63,183.67,33.63z"/>
						<path fill="#E2A00E" d="M183.67,33.63h-15.68v-4.85h13.7C183.12,31.43,183.67,33.63,183.67,33.63z"/>
						<rect x="18.35" y="20.76" fill="#6B6B6B" width="141.06" height="67.28"/>
						<rect x="18.35" y="33.63" fill="#424242" width="141.06" height="54.41"/>
						<line fill="none" x1="167.98" y1="37.09" x2="208.74" y2="37.09"/>
					</g>
					<g>
						<rect x="26.46" y="65.53" fill="#F2BC86" width="35.86" height="22.51"/>
						<rect x="26.46" y="43.15" fill="#FCB90F" width="35.86" height="22.5"/>
						<g>
							<rect x="62.32" y="65.53" fill="#FCB90F" width="35.86" height="22.5"/>
							<path fill="#FCD275" d="M62.98,65.92c0.02,0.03,0.04,0.06,0.08,0.13c0.61,0.43,1.02,1.52,1.49,2.15
								c0.75,1.02,1.38,2.16,2.08,3.24c0.86,1.32,2.02,1.97,3.64,2.06c1.18,0.07,2.38-0.01,3.55,0.16c1.15,0.17,2.49,0.18,3.66,0.11
								c1.63-0.1,3.27,0.08,4.9,0.14c1.67,0.07,3.39,0.1,5.07,0.06c1.34-0.03,2.95,0.15,4.2-0.35c1.15-0.46,1.85-1.5,2.58-2.46
								c0.82-1.08,1.71-2.13,2.42-3.29c0.24-0.4,1.11-2.23,1.79-1.72c0.37,0.28,0.15,1.74,0.08,2.14c-0.23,1.4-1.49,2.95-2.27,4.11
								c-0.76,1.13-1.8,2.35-2.94,3.11c-1.55,1.04-3.46,1.36-5.27,1.59c-5.13,0.68-10.38,0.71-15.54,0.85
								c-1.39,0.04-2.85-0.11-4.04-0.89c-0.45-0.29-0.83-0.71-1.2-1.08c-0.53-0.53-1.13-0.96-1.64-1.51
								c-1.19-1.32-3.24-2.87-3.39-4.79C62.14,68.65,61.9,67.13,62.98,65.92z"/>
							<polygon fill="#FCD275" points="98.18,65.53 96.56,67.85 92.46,73.7 68.04,73.7 63.94,67.85 62.32,65.53 							"/>
							<polygon opacity="0.3" fill="#FFFFFF" enable-background="new    " points="98.18,65.53 96.56,67.85 63.94,67.85 
								62.32,65.53 							"/>
						</g>
						<g>
							<rect x="98.28" y="65.53" fill="#FCB90F" width="35.86" height="22.5"/>
							<polygon fill="#FCD275" points="134.14,65.53 132.34,68.1 128.42,73.7 104,73.7 100.08,68.1 98.28,65.53 							"/>
							<polygon opacity="0.3" fill="#FFFFFF" enable-background="new    " points="134.14,65.53 132.34,68.1 100.08,68.1 
								98.28,65.53 							"/>
						</g>
						<path fill="#FCD275" d="M62.32,50.29H42.15c-1.92,0-3.47,1.56-3.47,3.47v1.28c0,1.92,1.56,3.47,3.47,3.47h20.17L62.32,50.29
							L62.32,50.29z"/>
						<rect x="134.14" y="52.54" fill="#E2A771" width="16.5" height="35.51"/>
						<path opacity="0.3" fill="#FFFFFF" enable-background="new    " d="M134.14,52.54v35.51h7.92
							C142.06,88.04,141.91,59.2,134.14,52.54z"/>
						<rect x="80.25" y="44.7" fill="#F2BC86" width="53.72" height="20.84"/>
						<rect x="80.25" y="48.7" fill="#E2A771" width="53.72" height="4.98"/>
						<rect x="80.25" y="44.7" opacity="0.3" fill="#FFFFFF" enable-background="new    " width="53.72" height="4.01"/>
						<line fill="none" x1="133.96" y1="48.7" x2="80.25" y2="48.7"/>
					</g>
				</g>
				<path fill="#A6AFB2" d="M207.81,54.55h-1.39c-2.1,0-3.8,1.7-3.8,3.8v9.7c0,2.1,1.7,3.8,3.8,3.8h1.39c2.1,0,3.8-1.7,3.8-3.8v-9.7
					C211.6,56.25,209.9,54.55,207.81,54.55z"/>
				<path opacity="0.2" fill="#FFFFFF" enable-background="new    " d="M205.99,56.79c-1.24,0.51-1.57,2.99-1.79,4.2
					c-0.28,1.55-0.16,3.22,0.06,4.77c0.18,1.25,1.18,4.46,3.04,3.11c0.94-0.68,1.38-1.92,1.63-3c0.31-1.34,0.55-2.92,0.49-4.3
					c-0.06-1.19-0.25-2.38-0.87-3.4C208.17,57.52,207.26,56.39,205.99,56.79z"/>
				<path opacity="0.25" fill="#FFFFFF" enable-background="new    " d="M167.93,16.86H9.83c0.39-2.65,2.66-4.69,5.42-4.69h147.27
					C165.27,12.18,167.55,14.21,167.93,16.86z"/>
				<path fill="#6B6B6B" d="M208.67,37.09h-40.68v-3.46c0,0,21.18,0,33.3,0C203.87,33.63,206.35,34.97,208.67,37.09z"/>
				<rect x="26.46" y="65.53" opacity="0.3" fill="#FFFFFF" enable-background="new    " width="35.86" height="4.09"/>
				<rect x="26.46" y="43.15" opacity="0.3" fill="#FFFFFF" enable-background="new    " width="35.86" height="4.05"/>
				<g>
					<path d="M223.86,62.74c-2.47-7.08-5.66-14.16-9.94-20.34c-2.41-3.48-5.47-7.25-9.56-8.77c-2.54-0.94-5.53-0.58-8.18-0.58
						c-2.1,0-4.2,0-6.3,0c-1.56,0-3.45,0.3-4.98,0c-1.05-0.2-0.82-0.2-1.26-1.36c-0.63-1.67-1.44-3.28-2.41-4.78
						c-1.27-1.95-2.84-3.73-4.75-5.08c-0.97-0.69-2.03-1.27-3.14-1.7c-1.31-0.51-2.88-0.42-4.12-0.93c-0.89-0.36-0.39,0.05-0.65-0.8
						c-0.09-0.29,0.01-0.78-0.02-1.09c-0.14-1.6-0.77-3.07-1.98-4.16c-1.17-1.06-2.6-1.49-4.14-1.56c-7.84-0.36-15.79,0-23.65,0
						c-16.15,0-32.31,0-48.46,0c-16.43,0-32.87,0-49.3,0c-8.47,0-17-0.27-25.48,0c-3.53,0.12-6.16,2.45-6.35,6.05
						c-0.05,0.97,0,1.94,0,2.91c0,6.13,0,12.27,0,18.4c0,15.94,0,31.87,0,47.81c0,1.93,0.2,3.96,0,5.88c-0.02,0.21,0.13,0.9,0,1.07
						c-0.22,0.29-1.66,0.38-2.14,0.59c-1.32,0.59-2.42,1.58-3.15,2.83c-1.63,2.85-0.89,7.34-0.89,10.47c0,3.68-0.67,8.02,2.05,10.96
						c2.99,3.25,7.73,2.49,11.71,2.49c2.76,0,5.52,0,8.28,0c0.83,0,1.74-0.12,2.56,0c1.08,0.15,0.63-0.13,1.28,0.93
						c1.68,2.77,3.17,5.2,5.86,7.15c5.11,3.69,11.95,4.46,17.74,1.94c5.43-2.36,9.46-7.38,10.56-13.2
						c1.45,7.66,7.93,13.68,15.68,14.57c3.88,0.44,7.86-0.4,11.22-2.39c1.63-0.96,3.1-2.18,4.35-3.6c0.59-0.67,1.13-1.37,1.62-2.12
						c0.44-0.68,1-2.54,1.56-2.97c0.74-0.56,2.17-0.31,3.25-0.31c2.38,0,4.76,0,7.14,0c2.61,0,5.22,0,7.82,0c1.35,0,4-0.53,5.25,0
						c0.79,0.33,0.13-0.4,0.51,0.56c0.21,0.52,0.01,1.22,0.25,1.8c0.41,0.96,1.28,1.65,2.29,1.87c1.15,0.26,2.52,0.06,3.68,0.06
						c5.03,0,10.06,0,15.09,0c1.16,0,2.53,0.2,3.68-0.06c2.07-0.48,1.98-1.88,2.53-3.48c0.38-1.1-0.27-0.53,0.91-0.76
						c4.09-0.8,8.56,0.64,12.68-0.12c2.09-0.39,3.94-1.71,5-3.55c0.41-0.72,0.63-2.76,1.11-3.06c0.45-0.28,2.05,0,2.55,0
						c1.51,0,3.02,0,4.53,0c4.01,0,8.02,0,12.03,0c-0.09,9.89,8.16,18.23,18.05,18.23c9.9,0,18.14-8.34,18.05-18.23
						c5.62,0,11.24,0.04,16.86,0c3.74-0.03,7.2-1.51,8.69-5.21c1.03-2.58,0.6-8.32,0.6-11.05c0-5.45,0-10.89,0-16.34
						c0-2.41,0.17-2.25,0-4.66c-0.17-2.43-2.19-3.89-4.11-5.15C239.36,67.62,231.37,65.04,223.86,62.74z M147.85,122.21
						c0,3.24-7.71,2.03-9.58,2.03c-4.26,0-8.55,0.13-12.81,0c-0.27-0.01-0.56,0.04-0.83,0c-0.91-0.14-3.01-1.83-2.03-2.98
						c0.33-0.39,1.74-0.17,2.39-0.17c4.6,0,9.19,0,13.79,0c2.28,0,4.55,0,6.83,0C147.09,121.08,147.94,120.54,147.85,122.21z
						 M203.18,63.78c1.98,0,3.97,0,5.95,0c0.3,0,1.67-0.18,1.9,0.04c0.31,0.3,0.02,2.69,0,3.13c-0.13,3.25-3.57,5.89-6.47,3.38
						C202.71,68.72,203.18,65.97,203.18,63.78z M203.18,62.63c0-2.07-0.46-4.75,1.15-6.36c2.82-2.81,6.56-0.18,6.7,3.18
						c0.02,0.5,0.31,2.76,0,3.1c-0.22,0.24-1.34,0.07-1.7,0.07C207.28,62.63,205.24,62.63,203.18,62.63z M207.11,53.98
						c-2.54,0-4.68,1.94-5.03,4.43c-0.13,0.94,0.5,3.55-0.04,4.14c-0.22,0.24-1.45,0.07-1.81,0.07c-1.7,0-3.4,0-5.1,0
						c-2.62,0-5.42,0.29-8.02-0.04c-4.35-0.54-5.21-4.36-5.21-8.01c0-2.94-0.72-7.22,1.13-9.74c1.71-2.32,4.25-2.4,6.83-2.4
						c6.56,0,13.11,0,19.66,0c0.72,0,2.14-0.28,2.83,0c1.46,0.59,3.03,4.42,3.82,5.86c2.52,4.58,4.65,9.41,6.43,14.33
						c-1.5,0-3,0-4.5,0c-1.35,0-4.29,0.61-5.5,0c-0.88-0.44-0.36-2.17-0.42-3.32C212.03,56.47,210.2,53.98,207.11,53.98z
						 M207.12,36.52c-11.22,0-22.44,0-33.66,0c-0.84,0-4.13,0.54-4.78,0c-0.14-0.12-0.37-1.96-0.12-2.22c0.2-0.2,0.78-0.08,1.13-0.1
						c6.08-0.26,12.23,0,18.31,0c3.45,0,6.9,0,10.35,0C201.64,34.2,204.3,34.34,207.12,36.52z M182.9,33.05c-2.15,0-4.3,0-6.46,0
						c-1.66,0-3.33,0-4.99,0c-0.46,0-2.4,0.31-2.77,0c-0.67-0.55-0.13-4.69-0.13-5.65c0-2.36,0-4.72,0-7.08
						C175.78,20.61,180.8,26.6,182.9,33.05z M15.24,12.75c10.87,0,21.75,0,32.62,0c21.55,0,43.1,0,64.64,0c15.59,0,31.18,0,46.78,0
						c1.05,0,2.12-0.06,3.16,0c3.48,0.21,4.94,2.82,4.97,5.94c0.06,6.65,0,13.31,0,19.96c0,19.86,0,39.73,0,59.6
						c0,1.29,0,2.58,0,3.86c0,0.45,0.24,1.74,0,2.14c-0.37,0.64-1.54,0.34-2.48,0.34c-8.4,0-16.81,0-25.22,0
						c-10.53,0-21.05,0-31.58,0c-3.33,0-6.66,0-9.99,0c-0.54,0-1.58,0.21-2.09,0c-0.39-0.16-0.49-0.46-0.81-0.86
						c-1.36-1.65-2.78-3.13-4.58-4.31c-7.23-4.77-17.07-3.56-23,2.7c-1.01,1.07-1.37,2.22-2.71,2.47c-1.04,0.2-2.79,0.2-3.83,0
						c-1.34-0.25-1.7-1.4-2.71-2.47c-1.46-1.54-3.16-2.81-5.05-3.76c-8.06-4.04-16.94-1.27-22.52,5.37
						c-1.06,1.26-2.11,0.86-3.81,0.86c-2.57,0-5.14,0-7.7,0c-2.37,0-4.75,0-7.12,0c-0.4,0-1.65,0.18-1.89-0.08
						c-0.54-0.61,0-4.23,0-5c0-8.69,0-17.38,0-26.07c0-18.06,0-36.11,0-54.17C10.34,16.16,11.36,12.75,15.24,12.75z M167.41,113.22
						c-18.62,0-37.24,0-55.87,0c-2.66,0-5.32,0-7.98,0c-1.1,0-3.37,0.5-4.33,0c-0.77-0.4-0.56-1.36-0.78-2.38
						c-0.37-1.78-1.01-3.51-1.9-5.09c22.44,0,44.88,0,67.32,0c0.48,0,3.13-0.36,3.49,0c0.33,0.32,0.04,2.33,0.04,2.81
						C167.41,110.11,167.41,111.66,167.41,113.22z M65.03,105.75c-0.94,1.68-1.6,3.52-1.96,5.41c-0.36-1.89-1.02-3.73-1.96-5.41
						C62.41,105.75,63.72,105.75,65.03,105.75z M27.32,113.22c-3.46,0-6.93,0.03-10.38,0c-2.08-0.02-3.98-0.29-5.39-2.05
						c-0.6-0.74-2.11-4.47-1.16-5.42c0.32-0.32,2.91,0,3.33,0c2.16,0,4.32,0,6.48,0c3.12,0,6.24,0,9.36,0
						C28.27,108.03,27.51,110.6,27.32,113.22z M10.74,119.93c-6.99,0-6.58-7.18-6.58-12.07c0-4.43-1.32-12.29,5.03-12.94
						c0,3.39,0,6.79,0,10.19c0,4.19,0.86,8.68,5.97,9.23c1.02,0.11,3.54-0.41,4.02,0.22c0.32,0.43,0.27,4.82,0,5.19
						c-0.4,0.54-2.73,0.19-3.52,0.19C14.02,119.93,12.39,119.93,10.74,119.93z M20.33,119.93c0-1.16-0.55-4.93,0.16-5.57
						c0.42-0.37,2.98,0,3.55,0c1.08,0,2.16,0,3.24,0c-0.02,1.89,0.26,3.77,0.82,5.57C25.5,119.93,22.92,119.93,20.33,119.93z
						 M45.33,131.44c-15.48,0-22.69-20.01-10.81-29.9c11.96-9.96,30.39,0.98,27.41,16.24C60.4,125.6,53.3,131.44,45.33,131.44z
						 M80.8,131.44c-15.48,0-22.69-20.01-10.81-29.9c11.96-9.96,30.39,0.98,27.41,16.24C95.87,125.6,88.78,131.44,80.8,131.44z
						 M161.27,119.93c-18.42,0-36.84,0-55.26,0c-2.66,0-5.32,0-7.98,0c0.56-1.8,0.84-3.68,0.82-5.57c19.54,0,39.08,0,58.62,0
						c3.3,0,6.61,0,9.91,0C167.1,117.47,164.39,119.93,161.27,119.93z M168.56,113.21c0-1.97,0-3.95,0-5.93
						c0-1.92,0.11-1.54,1.99-1.54c4.14,0,8.28,0,12.42,0c-0.61,1.72-1.01,3.51-1.21,5.32c-0.08,0.78,0.18,1.84-0.42,2.15
						c-0.87,0.44-3.17,0-4.14,0C174.32,113.21,171.44,113.21,168.56,113.21z M182.74,113.21c0.3-12.37,10.76-22.57,23.13-22.57
						c12.37,0,22.83,10.19,23.13,22.57c-1.06,0-4.04,0.55-4.93,0c-0.43-0.26-0.55-2.56-0.73-3.25c-0.38-1.45-0.94-2.85-1.66-4.16
						c-3.1-5.6-9.07-9.21-15.47-9.33c-6.31-0.12-12.32,3.16-15.66,8.51c-0.85,1.36-1.52,2.82-1.97,4.36
						c-0.21,0.68-0.4,3.57-0.77,3.87C187.09,113.79,183.69,113.21,182.74,113.21z M236.93,105.92c0,1.6,0,3.21,0,4.81
						c0,0.5,0.25,1.71,0,2.14c-0.34,0.58,0.17,0.03-0.59,0.34c-0.96,0.39-4.31,0.29-5.31,0c-1.26-0.36-0.81,0.19-0.99-1.73
						c-0.18-1.95-0.61-3.89-1.26-5.74C229.74,105.75,236.93,105.57,236.93,105.92z M205.87,131.44c-15.48,0-22.69-20.01-10.81-29.9
						c11.96-9.96,30.39,0.98,27.41,16.24C220.94,125.6,213.85,131.44,205.87,131.44z M248.92,106.06c0,5.25-4.53,7.15-9,7.15
						c-1.63,0-1.85,0.38-1.85-1.23c0-1.77-0.04-3.55,0-5.33c0.08-4.11,3.19-4.07,6.39-4.07c0.7,0,3.85-0.47,4.37,0
						C249.27,102.98,248.92,105.34,248.92,106.06z M248.92,93.83c-3.13,0-6.27,0-9.4,0c-1.66,0-3.43-0.11-3.95-2.06
						c-0.4-1.48-0.07-3.41-0.07-4.91c0-1.9,0.07-3.82,2.37-4.25c1.21-0.23,2.6-0.04,3.82-0.04c1.96,0,3.92,0,5.89,0
						c1.26,0,1.09-0.24,1.34,0.71c0.46,1.75,0,4.27,0,6.08C248.92,90.85,248.92,92.34,248.92,93.83z M238.19,81.42
						c-4.64,0-4.36,7.13-3.77,10.35c0.83,4.58,7.93,3.2,11.22,3.2c1.1,0,2.89-0.41,3.29,0.44c0.18,0.4,0.22,5.36,0,5.74
						c-0.25,0.43-0.33,0.22-1.01,0.29c-2.04,0.19-4.13-0.09-6.18,0c-0.99,0.04-1.89,0.16-2.75,0.72c-0.96,0.62-1.36,2.05-2.13,2.44
						c-0.5,0.25-1.72,0-2.28,0c-1.22,0-2.44,0-3.66,0c-0.54,0-1.78,0.23-2.28,0c-0.76-0.35-1.27-2.15-1.75-2.98
						c-3.34-5.75-9.03-9.99-15.52-11.5c-6.79-1.58-14.06-0.1-19.71,3.99c-2.67,1.93-4.93,4.4-6.62,7.23
						c-0.4,0.67-1.14,2.95-1.72,3.26c-0.3,0.16-1.17,0-1.5,0c-4,0-8.41,0.54-12.37,0c-0.76-0.11-0.62,0.13-0.89-0.29
						c-0.22-0.34,0-1.57,0-1.97c0-7.09,0-14.17,0-21.26c0-9.34,0-18.68,0-28.03c0-3.46,0-6.93,0-10.39c0-0.85-0.55-4.2,0-4.89
						c0.41-0.52,3.58-0.11,4.31-0.11c4.1,0,8.2,0,12.31,0c4.69,0,9.38,0,14.06,0c2.7,0,5.98-0.51,8.64,0
						c1.66,0.32,2.81,2.31,3.82,3.64c-7.96,0-15.99-0.36-23.94,0c-3.6,0.16-6.6,2.68-6.97,6.36c-0.23,2.27-0.03,4.65-0.03,6.93
						c0,2.63,0.03,5.13,2.05,7.14c1.85,1.85,4.14,2.05,6.59,2.05c2.69,0,5.38,0,8.07,0c0.83,0,4.14-0.43,4.58,0.17
						c0.36,0.49-0.03,2.52,0,3.15c0.08,1.78,0.65,3.37,2.17,4.42c3.46,2.41,7.71-0.25,7.96-4.16c0.06-0.88-0.3-2.21,0-3.02
						c0.28-0.75,0.08-0.56,1.16-0.56c2.59,0,5.19,0,7.78,0c2.66,0,4.81,0.8,7.34,1.67c3.96,1.37,7.89,2.88,11.68,4.66
						c2.61,1.22,6.7,2.8,8.3,5.39c1.07,1.74,0.49,1.94,0.49,3.88c0,0.58,0.19,1.74-0.17,2.04c-0.46,0.37-2.74,0-3.34,0
						C243.01,81.42,240.6,81.42,238.19,81.42z"/>
					<path d="M159.98,80.97c0-4.11,0-8.22,0-12.34c0-10,0-20,0-29.99c0-3.96,0-7.92,0-11.88c0-1.36,0-2.72,0-4.09
						c0-0.47,0.24-1.76,0-2.17c-0.54-0.91-5.03-0.32-6.21-0.32c-6.51,0-13.01,0-19.52,0c-19.42,0-38.85,0-58.27,0
						c-16.56,0-33.14,0-49.7,0c-2.04,0-4.08,0-6.12,0c-0.33,0-2.12-0.25-2.37,0c-0.41,0.42-0.01,3.34-0.01,3.89
						c0,3.47,0,6.94,0,10.41c0,17.37,0,34.74,0,52.11c0,2.47-0.03,2.02,2.68,2.02c2.47,0,4.95,0,7.42,0c8.98,0,17.97,0,26.96,0
						c2.31,0,4.61,0,6.92,0c12.73,0,25.45,0,38.18,0c14.66,0,29.32,0,43.99,0c3.01,0,6.02,0,9.04,0c1.19,0,2.39,0,3.57,0
						c0.73,0,2.3,0.3,2.96,0c0.77-0.34,0.22,0.19,0.49-0.62c0.24-0.72,0-1.95,0-2.7C159.98,83.85,159.98,82.41,159.98,80.97z
						 M61.75,87.35c-0.59,0.78-5.98,0.12-7.02,0.12c-9.23,0-18.46,0-27.69,0c0-3.7,0-7.4,0-11.1c0-2.42,0-4.84,0-7.26
						c0-0.43-0.29-2.58,0.04-2.89c0.31-0.29,2.35,0,2.76,0c2.02,0,4.04,0,6.06,0c5.31,0,10.62,0,15.92,0c2.14,0,4.28,0,6.41,0
						c0.55,0,2.93-0.37,3.38,0c0.34,0.27,0.14,1.56,0.14,2.09c0,1.01,0,2.03,0,3.04c-3.34,0-20.98,0-21.55,0
						c-0.63,0-0.94,0.37-0.94,0.65s0.52,0.53,0.94,0.53c0.39,0,18.62,0,21.55,0c0,0.77,0,1.54,0,2.31c-3.34,0-20.98,0-21.55,0
						c-0.63,0-0.94,0.37-0.94,0.65s0.52,0.53,0.94,0.53c0.39,0,18.62,0,21.55,0c0,0.77,0,1.54,0,2.31c-3.34,0-20.98,0-21.55,0
						c-0.63,0-0.94,0.37-0.94,0.65s0.52,0.53,0.94,0.53c0.39,0,18.62,0,21.55,0c0,1.12,0,2.25,0,3.37
						C61.75,83.72,62.25,86.67,61.75,87.35z M61.75,51.72c0.38,1.91,0,4.26,0,6.22c-3.4,0-6.79,0-10.19,0c-2.16,0-4.32,0-6.49,0
						c-1.31,0-2.89,0.21-4.07-0.49c-3.24-1.9-1.55-6.29,1.79-6.59c1.09-0.1,2.23,0,3.32,0c4.5,0,9.01,0,13.51,0
						c0.39,0,1.55-0.21,1.88,0C61.89,51.1,61.62,51.08,61.75,51.72z M61.75,49.72c-5.45,0-10.9,0-16.35,0
						c-2.69,0-5.65-0.16-6.93,2.86c-1.56,3.68,1.62,6.45,5.03,6.5c2.92,0.04,5.84,0,8.77,0c1.66,0,3.32,0,4.98,0
						c1.09,0,2.16,0,3.26,0c0.2,0,1.32-0.08,1.32,0.93c0,0.81,0.29,3.94-0.08,4.56c-0.43,0.72-1.87,0.4-2.94,0.4
						c-6.46,0-12.92,0-19.37,0c-3.01,0-6.02,0-9.03,0c-0.58,0-2.99,0.36-3.37-0.04c-0.2-0.2,0-1.49,0-1.76c0-1.47,0-2.95,0-4.42
						c0-3.49,0-6.98,0-10.47c0-0.72,0.13-3.82,0.64-4.25c0.59-0.51,3.46-0.3,4.18-0.3c7.5,0,14.99,0,22.48,0c1.45,0,2.89,0,4.34,0
						c0.65,0,2.05-0.27,2.67,0C62.36,44.17,61.75,48.4,61.75,49.72z M97.47,87.47c-0.45,0.36-2.67,0-3.23,0c-2.04,0-4.09,0-6.13,0
						c-5.17,0-10.33,0-15.5,0c-3.24,0-6.48,0-9.72,0c0-6.7,0-13.41,0-20.12c0.78,1.11,1.56,2.23,2.34,3.34
						c0.62,0.89,1.42,2.72,2.33,3.33c1.37,0.92,4.56,0.26,6.12,0.26c3.89,0,7.78,0,11.66,0c1.57,0,3.14,0,4.7,0
						c0.63,0,1.76,0.22,2.37,0c1.04-0.37,1.72-1.96,2.32-2.82c0.96-1.37,1.92-2.73,2.88-4.11c0,3.67,0,7.34,0,11.02
						c0,2.34,0,4.69,0,7.04C97.61,85.91,97.81,87.2,97.47,87.47z M132.72,64.96c-1.29,0.43-3.48,0-4.84,0c-2.6,0-5.2,0-7.8,0
						c-5.45,0-10.91,0-16.36,0c-7.63,0-15.27,0-22.9,0c0-5.23,0-10.46,0-15.69c17.06,0,34.12,0,51.18,0c0.32,0,1.2-0.13,1.39,0.07
						c0.21,0.23,0,1.65,0,1.94c0,1.39,0,2.77,0,4.16c0,2.66,0,5.32,0,7.97C133.39,64.84,133.68,64.64,132.72,64.96z M133.04,66.11
						c-0.73,1.04-1.46,2.08-2.19,3.12c-0.65,0.93-1.66,3.22-2.66,3.79c-1.15,0.66-4.09,0.11-5.42,0.11c-3.89,0-7.77,0-11.66,0
						c-1.55,0-3.09,0-4.64,0c-0.51,0-1.68,0.23-2.15,0c-0.81-0.4-1.7-2.38-2.22-3.12c-0.91-1.3-1.82-2.6-2.73-3.9
						C110.6,66.11,121.82,66.11,133.04,66.11z M133.39,48.13c-15.33,0-30.66,0-45.99,0c-2.2,0-4.39,0-6.58,0
						c0-1.15-0.44-2.46,0.45-2.86c0.75-0.34,2.49,0,3.31,0c4.39,0,8.77,0,13.15,0c10.21,0,20.42,0,30.64,0c1.27,0,4.91-0.09,5,0
						C133.71,45.59,133.39,47.61,133.39,48.13z M97.08,66.11c-0.73,1.04-1.46,2.08-2.19,3.12c-0.65,0.93-1.66,3.22-2.66,3.79
						c-1.15,0.66-4.09,0.11-5.42,0.11c-3.89,0-7.77,0-11.66,0c-1.55,0-3.09,0-4.64,0c-0.51,0-1.68,0.23-2.15,0
						c-0.81-0.4-1.7-2.38-2.22-3.12c-0.91-1.3-1.82-2.6-2.73-3.9C74.64,66.11,85.86,66.11,97.08,66.11z M133.43,87.47
						c-0.45,0.36-2.67,0-3.23,0c-2.04,0-4.09,0-6.13,0c-5.17,0-10.33,0-15.5,0c-3.24,0-6.48,0-9.72,0c0-6.7,0-13.41,0-20.12
						c0.78,1.11,1.56,2.23,2.34,3.34c0.62,0.89,1.42,2.72,2.33,3.33c1.37,0.92,4.56,0.26,6.12,0.26c3.89,0,7.78,0,11.66,0
						c1.57,0,3.14,0,4.7,0c0.63,0,1.76,0.22,2.37,0c1.04-0.37,1.72-1.96,2.32-2.82c0.96-1.37,1.92-2.73,2.88-4.11
						c0,3.67,0,7.34,0,11.02c0,2.34,0,4.69,0,7.04C133.57,85.91,133.77,87.2,133.43,87.47z M150.07,87.33
						c-0.33,0.42-2.36,0.14-2.96,0.14c-4.13,0-8.26,0-12.39,0c0-7.09,0-14.19,0-21.29c0-2.61,0-5.23,0-7.84c0-0.85-0.57-4.48,0-5.13
						c0.32-0.36,2.23-0.1,2.77-0.1c2.35,0,4.69,0,7.04,0c1.14,0,4.15-0.58,5.16,0c0.9,0.52,0.39,3.82,0.39,5.01
						c0,8.65,0,17.3,0,25.95C150.07,84.66,150.44,86.86,150.07,87.33z M158.5,87.47c-0.7,0.42-3.16,0-3.96,0
						c-0.48,0-2.95,0.36-3.32,0c-0.33-0.32-0.02-2.61-0.02-3.04c0-2.64,0-5.27,0-7.91c0-6.3,0-12.61,0-18.91c0-1.16,0.58-4.2,0-5.23
						c-0.42-0.74-1.62-0.41-2.7-0.41c-3.03,0-6.06,0-9.08,0c-0.9,0-4.36,0.47-4.89-0.14c-0.4-0.45,0-2.91,0-3.54
						c0-0.71,0.45-3.49,0-4.01c-0.27-0.31-1.35-0.14-1.86-0.14c-11.04,0-22.09,0-33.14,0c-5.33,0-10.65,0-15.97,0
						c-0.78,0-2.88-0.39-3.58,0c-0.58,0.32-0.31,1.28-0.31,2.11c0,5.73,0,11.46,0,17.19c0,1.71,0.16,1.54-1.57,1.54
						c-2.9,0-5.81,0-8.71,0c-1.38,0-2.76,0-4.14,0c-0.33,0-2.01,0.24-2.29,0c-0.69-0.58-0.07-5.23-0.07-6.29c0-4.31,0-8.62,0-12.93
						c0-0.5,0.22-3.13-0.91-3.13c-0.17,0-3.63-0.04-5.24-0.04c-6.31,0-12.62,0-18.92,0c-2.71,0-5.43,0-8.15,0
						c-0.56,0-2.94-0.1-3.37,0.31c-0.42,0.39-0.42,3-0.42,3.55c0,3.08,0,6.16,0,9.24c0,9.27,0,18.55,0,27.82
						c0,0.62,0.36,3.62-0.1,3.96c-0.51,0.39-3.02,0-3.62,0c-1.08,0-2.16,0-3.25,0c0-19.9,0-39.79,0-59.68c0-1.63,0-3.26,0-4.88
						c0-0.21-0.16-1.41,0.01-1.57c0.42-0.41,3.25,0,3.79,0c8.13,0,16.26,0,24.39,0c25.39,0,50.77,0,76.16,0c9.38,0,18.77,0,28.15,0
						c2.02,0,4.67-0.46,6.65,0c1.21,0.28,0.77,0.54,0.77,2.08c0,20.88,0,41.76,0,62.64C158.83,86.85,158.99,87.18,158.5,87.47z"/>
					<path d="M188.12,74.09c-1.62,0-3.3,0.15-4.9,0c-1.11-0.11-1.87-0.37-2.45-1.39c-0.31-0.53-0.06-1.26-0.62-1.58
						c-0.81-0.46-0.73,0.78-0.72,1.14c0.14,2.69,3.17,2.98,5.19,2.98c0.92,0,2.87,0,3.51,0C189.19,75.24,189.1,74.09,188.12,74.09z"
						/>
					<path d="M205.87,104.24c-5.6,0-10.28,4.69-10.28,10.28s4.69,10.28,10.28,10.28c5.6,0,10.28-4.69,10.28-10.28
						C216.15,108.93,211.47,104.24,205.87,104.24z M205.87,123.66c-4.97,0-9.14-4.16-9.14-9.14c0-4.97,4.16-9.14,9.14-9.14
						c4.97,0,9.14,4.16,9.14,9.14S210.84,123.66,205.87,123.66z"/>
					<path d="M205.87,108.49c-7.82,0-7.73,12.07,0,12.07C213.59,120.55,213.71,108.49,205.87,108.49z M205.87,119.41
						c-6.29,0-6.3-9.78,0-9.78C212.17,109.64,212.17,119.41,205.87,119.41z"/>
					<path d="M45.33,104.24c-5.6,0-10.28,4.69-10.28,10.28c0,5.6,4.69,10.28,10.28,10.28c5.6,0,10.28-4.69,10.28-10.28
						S50.92,104.24,45.33,104.24z M45.33,123.66c-4.97,0-9.14-4.16-9.14-9.14c0-4.97,4.16-9.14,9.14-9.14s9.14,4.16,9.14,9.14
						C54.46,119.49,50.3,123.66,45.33,123.66z"/>
					<path d="M45.33,108.49c-7.82,0-7.73,12.07,0,12.07C53.05,120.55,53.16,108.49,45.33,108.49z M45.33,119.41
						c-6.29,0-6.3-9.78,0-9.78C51.62,109.64,51.63,119.41,45.33,119.41z"/>
					<path d="M80.8,104.24c-5.6,0-10.28,4.69-10.28,10.28c0,5.6,4.69,10.28,10.28,10.28c5.6,0,10.28-4.69,10.28-10.28
						S86.39,104.24,80.8,104.24z M80.8,123.66c-4.97,0-9.14-4.16-9.14-9.14c0-4.97,4.16-9.14,9.14-9.14s9.14,4.16,9.14,9.14
						C89.93,119.49,85.77,123.66,80.8,123.66z"/>
					<path d="M80.8,108.49c-7.82,0-7.73,12.07,0,12.07C88.52,120.55,88.63,108.49,80.8,108.49z M80.8,119.41
						c-6.29,0-6.3-9.78,0-9.78C87.1,109.64,87.1,119.41,80.8,119.41z"/>
				</g>
			</g>
		</g>
	</g>
</g>
</svg>
