<?xml version="1.0" encoding="utf-8"?>
<!-- Generator: Adobe Illustrator 23.0.5, SVG Export Plug-In . SVG Version: 6.00 Build 0)  -->
<svg version="1.1" xmlns="http://www.w3.org/2000/svg" xmlns:xlink="http://www.w3.org/1999/xlink" x="0px" y="0px"
	 viewBox="0 0 750 500" enable-background="new 0 0 750 500" xml:space="preserve">
<g id="BACKGROUND">
</g>
<g id="OBJECTS">
	<g>
		<g>
			<g opacity="0.2">
				<path d="M723.57,131.82c-1.56-2.97-4.08-3.66-8.46-2.28c-4.13-6.95-7.06-8.03-14.94-5.51c1.97-9.18-0.39-16.03-6.65-19.26h-2.7
					c-3.54,1.1-6.92,2.63-9.03,5.8c-1.6,2.42-2.69,5.19-3.97,7.72c-1.09-0.9-2.29-2.38-3.84-3.1c-7.56-3.49-11.76-0.26-13.54,6.96
					c-0.71,2.87,0.04,6.1,0.14,9.37c-2.73,0.49-7.48,0.84-7.48,7.4c0,4.01,5.34,3.55,6.14,3.55c17.64,0.03,40.51,0.03,58.15,0.16
					C723.66,142.68,725.65,135.77,723.57,131.82z M721.63,136.87c-0.48,2.37-2.21,2.97-4.32,2.97c-9.65,0-48.09,0.49-57.66,0.49
					c-3.17,0-3.44-1.21-3.67-1.97c-0.16-0.54,0.54-1.59,1.13-2.06c2-1.59,4.35-1.75,6.8-1.4c0.63,0.09,1.8-0.03,1.86-0.26
					c0.17-0.71,0.17-1.7-0.23-2.25c-1.69-2.37-2.9-4.8-2.65-7.86c0.22-2.64,2.21-6.22,4.18-6.95c2.7-1,5.98-0.1,8.08,2.33
					c0.92,1.07,1.62,2.34,2.57,3.39c0.59,0.65,0.72,1.89,2.19,1.59c1.48-0.3,0.99-1.81,0.96-2.69c-0.14-3.66,0.6-7,3.07-9.78
					c2.22-2.49,4.93-4.26,8.35-4.11c1.24,0.05,2.94,0.77,3.55,1.74c2.5,3.96,3.68,8.29,2.14,13c-0.55,1.69-1.08,3.4-1.52,5.12
					c-0.12,0.49-0.59,1.26,0.21,1.61c0.79,0.36,1.26-0.19,1.72-0.53c1.24-0.92,2.29-2.12,3.6-2.93c4.25-2.65,11.6,0.71,10.58,6.58
					c-0.07,0.4,0.1,1.01,0.87,1.33c0.78,0.32,1.58-0.57,1.66-0.69c1.29-1.88,3.06-2.47,5.05-1.4
					C722.04,133.16,722.01,135.02,721.63,136.87z"/>
			</g>
			<path opacity="0.2" d="M716.86,325.6v-3.94c-0.08-13.8-0.14-106.42-0.21-120.21c-0.06-9.97-0.11-19.94-0.16-29.91
				c-0.03-4.06-0.69-4.76-4.63-4.76c-20.47-0.01-21.93-0.02-42.4-0.01c-4.29,0-4.97,0.71-4.97,4.94c0,35.15,0.01,82.66,0.01,117.81
				v2.58h-25.28v-2.59c-0.04-7.12-0.04-99.73-0.16-106.84c-0.02-0.93-0.44-2.36-1.08-2.66c-1.26-0.59-2.81-0.73-4.25-0.74
				c-5.18-0.06-10.34,0.02-15.52,0.05h-3.22v-29.75h-10.25c-0.47-5.7-3.65-9-9.14-10.39v-2.49c0.02-6.52,0.07-13.04,0.02-19.56
				c-0.01-0.96-0.57-2.88-1.27-2.88c-0.7,0-1.35,2.27-1.36,3.42c-0.08,5.77-0.02,11.54,0,17.31v4.09c-4.98,1.8-9.51,3.82-10.56,9.69
				c-0.08,0.42-1.05,0.89-1.65,0.95c-1.85,0.18-3.73,0.26-5.6,0.22c-1.69-0.03-2.24,0.92-2.36,2.35c-0.07,0.83-0.07,1.65-0.08,2.47
				c-0.03,12.67-0.11,25.34-0.08,38.01c0.06,15.45-0.85,35.92-0.73,52.11H541.8c0.11-0.46,0.13-0.99,0.13-1.51V138.97
				c0.04-2.75,0.12-4.44,0-6.68c-0.19-3.44-0.67-3.61-4.25-3.61c-15.65,0-31.31,0.03-46.98,0.06c-2.55,0-3.11,0.53-3.14,3.13
				c-0.05,2.97-0.05,5.96-0.05,8.93c0.01,12.89,0.03,73.27,0.03,86.15c0,0.43-0.09,0.85-0.13,1.39h-29.68v-2.86
				c0-27.99,0-27.48,0-55.47c0-9.06,0.07-18.13,0.02-27.19c-0.05-11.25-0.35-22.48-0.24-33.72c0.1-10.01-5.5-17.15-15.27-18.7
				c-2.26-0.36-4.56-0.47-6.93-0.71v-1.58c0.01-14.92,0.03-19.78-0.03-34.7c-0.01-1.42,0.14-4.84-1.42-4.84
				c-1.56,0-1.49,2.9-1.49,4.84c-0.01,9.89,0,10.84,0,20.73v15.7c-4.55,0.54-8.97,1.28-12.68,4.13c-5.28,4.06-9.22,8.74-9.21,15.98
				c0.1,44.22,0.1,88.45,0.13,132.67v2.67h-18.09v-3.53c0.02-33.5,0.05-86,0.06-119.5c0.01-4-0.68-4.61-4.55-4.2
				c-0.59,0.07-1.2,0.01-1.8,0.01c-16.41,0.03-32.83,0.09-49.25,0.05c-2.14,0-3.51,0.75-4.45,2.66c-2.1,4.27-4.28,8.52-6.45,12.77
				c-1.32,2.57-2.67,5.13-3.99,7.7c-0.32,0.63-1.46,2.89,1.48,2.89c3.59,0,7.19,0.05,10.79,0.05h6.87v132.42h-38.12v-2.42
				c-0.01-29.31-0.02-58.62-0.04-87.93c-0.01-4.13-0.88-4.99-5.01-4.99h-19.74v-2.48c-0.07-18.34-0.14-31.69-0.09-40.03
				c0.01-2.56-1.29-4.22-3.79-4.23c-14.85-0.06-29.69,0.04-44.53,0.16c-3.4,0.03-5.01,1.82-5.01,5.19
				c0.04,27.38,0.1,59.77,0.15,97.14c0.01,6.96,0,13.92,0,20.64h-28.65c0-1.03,0.01-1.77,0-2.51c-0.07-13.8-0.13-113.07-0.2-126.86
				c-0.06-9.97-0.11-19.94-0.17-29.91c-0.02-4.06-0.69-4.76-4.63-4.76c-20.47-0.01-40.94-0.02-61.39-0.01
				c-4.29,0-4.97,0.71-4.97,4.94c0,35.15,0,155.79,0.01,190.94v2.58H99.78v-2.59c-0.04-7.12-0.04-79.72-0.16-86.83
				c-0.02-0.93-0.44-2.36-1.08-2.66c-1.26-0.59-2.81-0.73-4.25-0.74c-5.18-0.06-0.85,0.02-6.02,0.05h-3.22v-71.98
				c0-0.97-0.79-1.76-1.76-1.76H74.8c-0.47-5.7-3.65-9-9.14-10.39c0-0.85-0.01-1.67,0-2.49c0.02-6.52,0.07-13.04,0.02-19.56
				c-0.01-0.96-0.58-2.88-1.28-2.88c-0.69,0-1.34,2.27-1.36,3.42c-0.07,5.77-0.01,11.54,0,17.31c0.01,1.4,0,2.79,0,4.09
				c-4.98,1.8-9.5,3.82-10.55,9.69c-0.08,0.42-1.05,0.89-1.65,0.95c-1.86,0.18-3.74,0.26-5.6,0.22c-1.7-0.03-2.24,0.92-2.36,2.35
				c-0.07,0.83-0.08,1.65-0.08,2.47c-0.03,12.67-0.11,69.34-0.08,82.01c0.06,15.59,0.21,96.88,0.33,112.47
				c0,0.1,0.01,0.23,0.02,0.36H0v2.91h750v-2.91H716.86z M594.94,142.03c3.85,0.22,6.93,3.45,6.99,7.6h-17.32
				C585.29,145.25,590.06,141.75,594.94,142.03z M575.12,152.19h37.84v5.86c-8.08,0.55-24.08-0.35-24.15,1.02s1.69,1.37,2.53,1.4
				c6.37,0.17,12.74,0.28,19.11,0.41c0.73,0.02,1.47,0,2.33,0v4.98c-3.87,0-7.66-0.02-11.47,0c-3.14,0.01-6.3-0.02-9.43,0.14
				c-0.71,0.04-2.14,0.18-2.09,1.21c0.05,1.02,1.33,1.2,2,1.22c5.77,0.12,11.54,0.1,17.31,0.13h3.61v10.78h-37.58V152.19z
				 M490.67,131.86h48.36v3.92h-48.36V131.86z M426.3,94.45c5.48-1.51,11.1-1.42,16.66-0.4c5.57,1.03,10.26,5.61,10.82,10.48h-39.49
				C417.09,99.61,420.87,95.95,426.3,94.45z M413.4,107.82h41.23v6.16H413.4V107.82z M325.21,140.9c1.1-2.09,2.07-3.88,2.99-5.71
				c2.13-4.19,4.18-8.42,6.42-12.56c0.38-0.71,1.53-1.42,2.33-1.42c16.93-0.07,33.87-0.03,50.79,0c0.66,0,1.31,0.08,1.89,0.1v19.58
				H325.21z M228.08,137.76h47.35v6.49h-47.35V137.76z M65.01,118.04c3.84,0.22,6.92,3.45,6.99,7.6H54.67
				C55.35,121.26,60.13,117.76,65.01,118.04z M45.19,128.19h37.84v12.86c-8.08,0.55-24.08-0.35-24.15,1.02s1.69,1.37,2.53,1.4
				c6.37,0.17,12.74,0.28,19.11,0.41c0.73,0.02,1.47,0,2.33,0v4.98c-3.87,0-7.67-0.02-11.47,0c-3.14,0.01-6.3-0.02-9.43,0.14
				c-0.72,0.04-2.14,0.18-2.09,1.21c0.05,1.02,1.33,1.2,2,1.22c5.77,0.12,11.54,0.1,17.31,0.13h3.61v5.19c-3.84,0-7.63-0.02-11.41,0
				c-3.14,0.01-6.3-0.02-9.43,0.14c-0.72,0.04-2.14,0.18-2.09,1.21c0.05,1.02,1.33,1.2,2,1.22c5.77,0.12,11.54,0.1,17.31,0.13h3.61
				v5.19c-3.84,0-7.63-0.02-11.41,0c-3.14,0.01-6.3-0.02-9.43,0.14c-0.72,0.04-2.14,0.18-2.09,1.21c0.05,1.02,1.33,1.2,2,1.22
				c5.77,0.12,11.54,0.1,17.31,0.13h3.61v5.19c-3.84,0-7.63-0.02-11.41,0c-3.14,0.01-6.3-0.02-9.43,0.14
				c-0.72,0.04-2.14,0.18-2.09,1.21c0.05,1.02,1.33,1.2,2,1.22c5.77,0.12,11.54,0.1,17.31,0.13h3.61v5.19c-3.84,0-7.63-0.02-11.41,0
				c-3.14,0.01-6.3-0.02-9.43,0.14c-0.72,0.04-2.14,0.18-2.09,1.21c0.05,1.02,1.33,1.2,2,1.22c5.77,0.12,11.54,0.1,17.31,0.13h3.61
				v16.23H45.19V128.19z M714.11,173.15c-0.09,24.13-0.15,127.1-0.27,151.23c0,0.47,0.04,0.86,0.12,1.22H44.91v-0.36
				c0.04-18.93,0.03-104.13,0.03-122.82h51.95c0,8.37-0.01,81.85,0,89.87c0,0.89-0.01,1.81,0.16,2.69c0.23,1.13,0.79,1.67,2.09,1.04
				c0.87-0.43,1.93-0.69,2.91-0.69c7.57-0.01,15.14,0.1,22.71,0.04c0.88,0,2.35-0.73,2.52-1.39c0.53-2.12,0.78-4.36,0.8-6.55
				c0.07-10.72,0.03-106.92,0.03-117.64v-2.55h2.71c9.67,0,19.34,0.02,29.02,0.01c2.43,0,2.17-2.63,0.65-2.74h-32.19v-12.58h2.87
				c9.53,0,19.04,0.05,28.56-0.07c0.85-0.01,2.31-0.91,2.4-1.56c0.23-1.62-1.31-1.2-2.27-1.21c-10.04-0.09-20.09-0.13-30.13-0.21
				c-0.49,0-0.99-0.08-1.47-0.11v-9.98c9.94,0,20.98,0,30.78-0.01c1.27,0,2.25-0.6,2.25-1.38c0-0.79-1.05-1.48-2.33-1.48
				c-9.18-0.01-21.46-0.01-30.66-0.01v-10.82h2.41c9.82,0.01,19.64,0.05,29.45-0.06c1.15,0,2.17-0.61,2.17-1.27
				c0-1.14-1.1-1.45-2-1.46c-9.97-0.03-19.94-0.05-29.91-0.07h-2.19V110.9h2.11c10.19-0.01,20.38,0.01,30.58-0.1
				c0.88-0.01,1.8-0.54,1.8-1.42c0-0.88-0.85-0.98-1.72-1c-6.74-0.16-13.5-0.23-20.24-0.28c-4.16-0.04-8.33-0.01-12.52-0.01V97.23
				h65.44v2.78c-0.09,24.13-0.16,133.75-0.27,157.88c-0.01,1.7,0.4,2.67,2.36,2.69c9.36,0.12,18.72,0.4,28.08,0.46
				c2.57,0.02,3.67-1.46,3.72-4.05c0.11-4.64,0.33-9.29,0.34-13.93c0.04-29.23,0.03-63.47,0.04-92.7v-2.72h47.48v2.54
				c-0.02,8.84-0.06,22.68-0.07,31.53c-0.01,2.4,0.72,3.06,3.05,3.06c6.9-0.01,13.79,0.01,20.69,0.04c0.42,0,0.84,0.13,1.17,0.19
				v15.13h-2.57c-13.34,0-27.33,0.01-40.67,0.01c-0.52,0-2.71,0.04-2.71,1.53c0,1.5,2.44,1.22,2.74,1.22
				c13.56,0.09,27.13,0.17,40.7,0.27c0.8,0.01,1.59,0.08,2.43,0.11v11.27h-17.44c-8.23,0-16.47-0.04-24.7,0.09
				c-0.85,0.01-2.51,0.3-2.51,1.65c0,1.34,1.81,1.28,2.41,1.28c12.45,0.01,26.63,0.02,39.07,0.03h3.19v11.22h-2.33
				c-11.17-0.08-22.34-0.17-33.5-0.21c-2.1-0.01-4.36,0.01-6.51,0.01c-0.7,0-1.7,0.5-1.7,1.85c0,1.35,1.41,1.48,2.91,1.48
				c11.77,0.03,26.95,0.03,38.72,0.04h2.43v11.47c-3.43,0-6.71,0.01-9.99,0c-9.82-0.03-19.64-0.06-29.46-0.1
				c-1.54,0-3.43,0.02-3.44,1.93c0,1.3,1.95,1.23,3.07,1.24c7.87,0.07,15.74,0.04,23.61,0.04h16.35V249
				c0.02,8.18,0.04,16.35,0.05,24.51c0,6.56,0,6.59,6.59,6.6c11.54,0.02,23.09,0.02,34.63,0.03c2.15,0,2.46-0.1,2.46-3.03
				c0-0.74-0.08-1.49-0.08-2.24c0.02-36.28,0.04-91.56,0.06-127.84c0.01-0.87,0-1.76,0-2.79h45.43v76.45
				c0,8.32,0.02,16.64-0.01,24.96c0,1.53,0.21,2.64,2.15,2.64c6.72-0.02,12.23,0.02,18.96,0.02c2.3,0,2.67-2.22,2.67-2.97
				c0.01-41.6,0.01-83.82,0.02-125.42v-2.57h41.25v11.2h-1.52c-7.34,0.03-14.68,0.06-22.03,0.09c-0.37,0-3.26-0.26-3.26,1.41
				c0,1.67,1.42,1.55,2.15,1.57c6.82,0.14,13.64,0.14,20.46,0.18h4.23v10.69c-0.75,0-1.33-0.01-1.92,0
				c-7.11,0.03-14.93,0.06-22.05,0.09c-0.52,0.01-2.46,0.39-2.46,1.72c0,1.33,1.82,1.37,2.64,1.38c6.75,0.03,14.9,0.05,21.65,0.07
				c0.71,0.01,1.43,0,2.16,0v11.63c-1.1,0-2.06-0.01-3.03,0c-6.59,0.02-13.19,0.07-19.78,0.05c-1.33,0-2.58,0.08-2.58,1.49
				c0,1.42,1.62,1.51,2.53,1.53c6.9,0.13,13.79,0.1,20.69,0.13c0.72,0,1.44,0.07,2.21,0.11v12.89h-2.54
				c-6.75,0.02-13.5,0.06-20.24,0.03c-1.37,0-2.59,0.32-2.55,1.76c0.06,1.43,1.61,1.28,2.51,1.29c6.82,0.13,13.64,0.09,20.46,0.11
				c0.79,0.01,1.58,0,2.48,0v3.04c0,25.8,0,23.09,0,48.88c0,2.88,0.34,3.22,3.22,3.22c10.03-0.01,20.06-0.03,30.1-0.04
				c2.16,0,2.71-0.8,2.56-2.88c-0.17-2.56-0.04-52.64-0.04-55.32c0.59-0.03,0.95-0.07,1.32-0.07c7.42,0,14.84-0.01,22.26,0.01
				c1.25,0.01,2.37-0.27,2.37-1.72c-0.01-1.42-1.09-1.72-2.37-1.69c-2.7,0.05-5.39-0.02-8.1-0.02c-5.13-0.01-10.26,0-15.37,0v-8.7
				h2.62c6.15,0.03,12.29,0.07,18.44,0.09c1.27,0.01,2.89,0.18,2.94-1.59c0.06-1.81-1.53-1.62-2.8-1.62
				c-6.6,0.04-13.19,0.07-19.79,0.09c-0.48,0-0.98-0.11-1.4-0.17v-8.98c6.93,0,13.67,0.02,20.41-0.02c0.95-0.01,1.93-0.19,2.85-0.47
				c0.41-0.12,1.04-0.81,0.97-1.02c-0.16-0.47-0.66-1.04-1.12-1.17c-0.92-0.26-1.91-0.34-2.88-0.35
				c-6.71-0.02-13.44-0.01-20.27-0.01v-6.72h48.2c0,1.57,0.01,2.92,0,4.25c-0.01,22.79-0.06,91.82,0.03,99.84
				c0.01,0.34,0.02,0.82,0.13,1.26h-0.16v3.08h35.92v-1.31c0.09-0.41,0.08-0.9,0.08-1.35c0.04-18.94,0.03-44.19,0.03-62.88h61.45
				v20.27c-10.17,0.42-41.4-0.36-41.48,0.95c-0.08,1.38,1.69,1.38,2.54,1.4c6.71,0.18,30.12,0.27,38.94,0.4v9.56
				c-10.18,0.42-41.4-0.36-41.48,0.96c-0.08,1.37,1.69,1.37,2.54,1.39c6.71,0.18,30.12,0.27,38.94,0.4v9.56
				c-10.18,0.42-41.4-0.35-41.48,0.96c-0.08,1.37,1.69,1.37,2.54,1.39c6.7,0.19,30.12,0.27,38.94,0.4v9.57
				c-10.18,0.41-41.4-0.36-41.48,0.95c-0.08,1.37,1.69,1.37,2.54,1.4c6.7,0.18,30.12,0.27,38.94,0.39v9.57
				c-10.18,0.42-41.4-0.36-41.48,0.95c-0.08,1.38,1.69,1.38,2.54,1.4c6.71,0.18,30.12,0.27,38.94,0.4v9.56
				c-10.17,0.42-41.4-0.36-41.48,0.96c-0.08,1.37,1.69,1.37,2.54,1.39c6.71,0.18,30.13,0.27,38.94,0.4c0,13,0,22.19,0.01,24.57
				c0,0.89,0.07,1.25,0.07,2.15c0,1.5,1.75,1.62,2.73,1.62c7.57-0.01,17.49,0.1,25.06,0.04c0.88,0,2.36-0.73,2.52-1.39
				c0.53-2.12,0.78-4.36,0.8-6.55c0.07-10.72,0.03-33.78,0.03-44.51v-2.55h2.71c9.68,0,9.85,0.02,19.52,0.01
				c2.43,0,2.17-2.63,0.65-2.74h-22.69v-12.58h2.88c9.52,0,9.54,0.05,19.06-0.07c0.85-0.01,2.31-0.91,2.39-1.56
				c0.23-1.62-1.3-1.2-2.26-1.21c-10.05-0.09-10.59-0.13-20.64-0.21c-0.49,0-0.99-0.08-1.47-0.11v-9.98c9.94,0,11.48,0,21.29-0.01
				c1.26,0,2.24-0.6,2.24-1.38c0-0.79-1.04-1.48-2.33-1.48c-9.18-0.01-11.96-0.01-21.16-0.01v-10.82h2.42
				c9.81,0.01,10.13,0.05,19.95-0.06c1.15,0,2.18-0.61,2.18-1.27c0-1.14-1.11-1.45-2.01-1.46c-9.96-0.03-10.44-0.05-20.41-0.07
				h-2.18v-11.33h2.1c10.19-0.01,10.89,0.01,21.09-0.09c0.89-0.01,1.8-0.54,1.8-1.42s-0.85-0.98-1.72-1
				c-6.74-0.16-3.99-0.23-10.74-0.28c-4.16-0.04-8.33-0.01-12.52-0.01v-10.86h46.44V173.15z"/>
		</g>
		<g opacity="0.2">
			<path d="M298.1,76.44c-0.63-0.31-1.27-0.63-1.99-0.98c0.5-0.82,0.91-1.44,1.27-2.09c1.94-3.44,2.57-7.12,1.94-11.01
				c-0.69-4.24-9.17-8.87-14.7-5.21c-1.97,1.31-3.79,2.87-5.74,4.36c-2.8-4.97-6.92-8.47-12.98-7.26
				c-7.69,1.54-12.16,7.16-10.92,15.52c-2.33-0.8-3.79-0.96-5.42-0.89c-5.07,0.22-9.76,3.79-11.28,8.53
				c-1.64,5.15,0.28,8.31,5.68,8.9c3.78,0.42,7.6,0.62,11.4,0.67c11.59,0.13,23.18,0.25,34.77,0.13c3.23-0.03,6.6-0.56,9.14-3.03
				C301.96,81.45,301.43,78.1,298.1,76.44z M298.04,80.66c-0.24,0.81-0.9,1.87-1.63,2.11c-1.95,0.66-11.48,2.1-44.42,0.98
				c-2.89-0.05-5.8-0.49-8.66-0.98c-2.76-0.47-3.29-1.58-2.44-4.3c0.98-3.16,4.62-5.86,8.42-6.04c2.49-0.12,5.11-0.54,7.19,1.54
				c0.23,0.23,1.25,0.12,1.36-0.09c0.32-0.66,0.51-1.46,0.51-2.2c-0.02-2.56-0.48-5.17-0.15-7.68c0.54-4.13,5.6-6.21,8.5-6.43
				c3.89-0.29,7.92,2.13,9.24,5.45c0.18,0.46,0.59,1.85,0.97,2.95c0.24,0.7,1.12,0.9,1.63,0.37c1.37-1.42,3.59-3.84,4.66-4.81
				c4.06-3.7,7.25-3.09,11.83,0.17c1.95,1.39,1.63,3.56,1.34,5.56c-0.37,2.61-3.31,7.15-4.77,9.38c-0.34,0.52,0.04,1.2,0.66,1.2
				C298.18,77.88,298.12,80.35,298.04,80.66z"/>
		</g>
	</g>
	<g>
		<g>
			<path opacity="0.2" d="M510.19,380.38c-8.65-0.01-393.26-0.01-401.91,0c-1.27,0-2.33,0.69-2.33,1.48c0,0.78,0.98,1.38,2.25,1.38
				c9.24,0.01,392.82,0.01,402.06,0c1.27,0,2.25-0.6,2.25-1.38C512.52,381.07,511.47,380.38,510.19,380.38z"/>
			<path opacity="0.2" d="M485.19,389.25c-8.65-0.01-343.26-0.01-351.91,0c-1.27,0-2.33,0.69-2.33,1.48c0,0.78,0.98,1.38,2.25,1.38
				c9.24,0.01,342.82,0.01,352.06,0c1.27,0,2.25-0.6,2.25-1.38C487.52,389.94,486.47,389.25,485.19,389.25z"/>
			<path opacity="0.2" d="M460.19,398.12c-8.65-0.01-293.26-0.01-301.91,0c-1.27,0-2.33,0.69-2.33,1.48c0,0.78,0.98,1.38,2.25,1.38
				c9.24,0.01,292.82,0.01,302.06,0c1.27,0,2.25-0.6,2.25-1.38C462.52,398.81,461.47,398.12,460.19,398.12z"/>
		</g>
		<g>
			<g>
				<g>
					<g>
						<g>
							<path fill="#A6AFB2" d="M96.13,350.49v12.72h146.77h34.43h86.88c7.03,0,12.72-5.69,12.72-12.72H96.13z"/>
							<path fill="#6B6B6B" d="M335.34,371.37h-40.9c-2.51,0-4.54-2.03-4.54-4.54v-3.61h49.99v3.61
								C339.89,369.33,337.85,371.37,335.34,371.37z"/>
							<path fill="#6B6B6B" d="M77.22,313.6L77.22,313.6c-6.46,0-11.7,5.24-11.7,11.7v24.37c0,7.48,6.07,13.55,13.55,13.55h17.06
								V313.6H77.22z"/>
							<path fill="#C4C6C6" d="M376.94,168.39v182.11H88.64c-6.31,0-11.42-5.12-11.42-11.42V168.39c0-0.51,0.03-1.01,0.11-1.51
								c0.73-5.02,5.04-8.88,10.26-8.88h278.98c5.22,0,9.54,3.86,10.26,8.88C376.91,167.38,376.94,167.88,376.94,168.39z"/>
							<path fill="#A6AFB2" d="M93.48,301.72c0,0-3.26,14.61,9.73,14.61s236.53,0,245.98,0c9.45,0,11.5-5.58,11.5-14.61H93.48z"/>
							<line fill="#9FDAFE" x1="270.1" y1="350.49" x2="255.03" y2="350.49"/>
							<line fill="#9FDAFE" x1="270.1" y1="350.49" x2="244.87" y2="350.49"/>
							<path fill="#FCB90F" d="M531.36,280.34v38.91c0,2.45,0,8.93,0,8.93h-15.31c-3.6,0-6.6,2.58-7.26,5.99
								c-0.1,0.46-0.14,0.92-0.14,1.41v14.9h-131.7V198.64c0,0,40.13,0,63.08,0c4.9,0,9.6,2.55,13.99,6.56
								c2.76,2.53,5.4,5.64,7.87,9.06c6.48,8.96,11.82,20.04,15.36,28.33c3,7.04,4.7,12.07,4.7,12.07s4.23,1.28,10.21,3.36
								C506.62,263.06,531.36,272.77,531.36,280.34z"/>
							<path fill="#FCB90F" d="M531.36,298.52v20.72h-22.24c-3.47,0-6.29-2.81-6.29-6.29v-14.44H531.36z"/>
							<path fill="#FCB90F" d="M492.15,258.02c-0.01,0.01-0.01,0.03-0.01,0.04c-0.41,2.58-10.2,11.36-35.45,11.36
								c-13.11,0-26.78,0.55-39.65-2.19c-3.7-0.79-6.73-2.42-9.72-4.63c-1.7-1.26-2.35-2.96-3.18-4.83
								c-1.31-2.95-1.89-5.69-1.89-8.94c0-2.03,0.24-3.95,0.24-5.97l3.23-0.24c15.91-1.94,31.71-3.13,47.78-2.36
								c7.65,0.36,15.26,1.15,22.85,2.21c0.29,0.04,0.6,0.09,0.89,0.12c3,7.04,4.7,12.07,4.7,12.07S486.17,255.94,492.15,258.02z"/>
							<path fill="#6B6B6B" d="M508.86,333.76c-0.1,0.46-0.14,0.92-0.14,1.41v14.9h-131.7v0.01H88.73
								c-6.31,0-11.42-5.12-11.42-11.42v-4.9H508.86z"/>
							<path fill="#424242" d="M531.36,328.18v7.67c0,8.07-6.55,14.63-14.63,14.63h-8.09v-14.9c0-4.09,3.32-7.4,7.4-7.4H531.36z"/>
							<path fill="#A6AFB2" d="M415.63,350.48H403.8c0-24.81,20.11-44.91,44.91-44.91s44.91,20.11,44.91,44.91H481.8"/>
							<path fill="#FFFFFF" d="M531.36,313.76h-21.42c-3.4,0-6.16-2.76-6.16-6.16v-11.19c0-3.4,2.76-6.16,6.16-6.16h21.42V313.76z"
								/>
							<path fill="#FCB90F" d="M510.13,306.19c-0.53,0.53-2.04,1.86-2.83,1.29c-1.26-0.91,7.73-10.14,10.44-12.6
								c0.86-0.77,2.57-2.71,3.25-0.74C521.54,295.7,516.81,299.52,510.13,306.19z"/>
							<path fill="#FCB90F" d="M516.38,306.41c-0.53,0.53-2.04,1.86-2.83,1.29c-1.26-0.91,1.92-4.35,4.64-6.81
								c0.86-0.77,3.1-2.94,3.93-2.05C523.22,300.02,519.85,302.94,516.38,306.41z"/>
							<g>
								<circle fill="#424242" cx="448.71" cy="351.89" r="33.12"/>
								<circle fill="#9FDAFE" cx="448.71" cy="351.89" r="18.39"/>
								<circle fill="#9FDAFE" cx="448.71" cy="351.89" r="10.34"/>
							</g>
							<g>
								<circle fill="#6B6B6B" cx="448.71" cy="351.89" r="18.39"/>
								<g>
									<circle fill="#FFFFFF" cx="448.72" cy="351.89" r="10.34"/>
									<path fill="#C4C6C6" d="M459.06,351.89c0,5.71-4.63,10.34-10.34,10.34c-5.71,0-10.35-4.63-10.35-10.34
										c0-0.95,0.13-1.89,0.38-2.76c1.21,4.36,5.22,7.57,9.97,7.57c4.75,0,8.76-3.21,9.96-7.57
										C458.93,350.01,459.06,350.94,459.06,351.89z"/>
								</g>
							</g>
							<g>
								<circle fill="#424242" cx="144.58" cy="351.89" r="33.12"/>
								<circle fill="#6B6B6B" cx="144.58" cy="351.89" r="18.39"/>
								<g>
									<circle fill="#FFFFFF" cx="144.58" cy="351.89" r="10.34"/>
									<path fill="#C4C6C6" d="M154.92,351.89c0,5.71-4.63,10.34-10.34,10.34c-5.71,0-10.35-4.63-10.35-10.34
										c0-0.95,0.13-1.89,0.38-2.76c1.21,4.36,5.22,7.57,9.97,7.57c4.75,0,8.76-3.21,9.96-7.57
										C154.79,350.01,154.92,350.94,154.92,351.89z"/>
								</g>
							</g>
							<g>
								<circle fill="#424242" cx="211.78" cy="351.89" r="33.12"/>
								<circle fill="#6B6B6B" cx="211.78" cy="351.89" r="18.39"/>
								<g>
									<circle fill="#FFFFFF" cx="211.78" cy="351.89" r="10.34"/>
									<path fill="#C4C6C6" d="M222.12,351.89c0,5.71-4.63,10.34-10.34,10.34c-5.71,0-10.35-4.63-10.35-10.34
										c0-0.95,0.13-1.89,0.38-2.76c1.21,4.36,5.22,7.57,9.97,7.57c4.75,0,8.76-3.21,9.96-7.57
										C221.99,350.01,222.12,350.94,222.12,351.89z"/>
								</g>
							</g>
						</g>
						<path fill="#FFFFFF" d="M481.94,254.66h-67.58c-6.72,0-12.16-5.44-12.16-12.15v-16.11c0-6.71,5.44-12.15,12.16-12.15h47.52
							C473.87,230.83,481.94,254.66,481.94,254.66z"/>
						<path fill="#FCB90F" d="M415.87,243.38c-0.53,0.53-2.04,1.86-2.83,1.29c-1.26-0.91,1.67-3.61,2.19-4.15
							c2.36-2.41,4.77-4.76,7.15-7.16c2.04-2.05,4.06-4.11,6.1-6.16c2.59-2.6,5.09-5.37,7.81-7.82c0.86-0.77,2.57-2.71,3.25-0.74
							c0.54,1.55-2.77,3.91-3.59,4.73C429.27,230.06,422.55,236.7,415.87,243.38z"/>
						<path fill="#FCB90F" d="M424.9,243.23c-0.53,0.53-2.04,1.86-2.83,1.29c-1.26-0.91,1.65-3.6,2.18-4.14
							c1.97-2.02,4.01-3.98,5.99-5.99c0.65-0.66,1.26-1.3,1.93-1.98c2.33-2.36,4.61-4.85,7.06-7.07c0.86-0.77,2.57-2.71,3.25-0.74
							c0.53,1.52-2.65,3.79-3.46,4.6C434.33,233.89,429.59,238.54,424.9,243.23z"/>
						<path fill="#FCB90F" d="M406.65,198.64h-29.71v-26.33c13.94,0,21.86,9.54,25.96,17.14
							C405.61,194.47,406.65,198.64,406.65,198.64z"/>
						<path fill="#E2A00E" d="M406.65,198.64h-29.71v-9.19h25.96C405.61,194.47,406.65,198.64,406.65,198.64z"/>
						<rect x="93.48" y="174.26" fill="#6B6B6B" width="267.21" height="127.46"/>
						<rect x="93.48" y="198.64" fill="#424242" width="267.21" height="103.08"/>
						<line fill="#9FDAFE" x1="376.94" y1="205.2" x2="454.15" y2="205.2"/>
					</g>
					<g>
						<rect x="108.84" y="259.08" fill="#F2BC86" width="67.93" height="42.64"/>
						<rect x="108.84" y="216.67" fill="#FCB90F" width="67.93" height="42.63"/>
						<g>
							<rect x="176.77" y="259.08" fill="#FCB90F" width="67.93" height="42.63"/>
							<path fill="#FCD275" d="M178.03,259.81c0.04,0.06,0.07,0.12,0.15,0.25c1.15,0.82,1.94,2.88,2.83,4.08
								c1.42,1.94,2.61,4.09,3.94,6.13c1.63,2.51,3.82,3.74,6.9,3.91c2.24,0.13,4.51-0.02,6.72,0.3c2.18,0.32,4.72,0.35,6.93,0.21
								c3.09-0.19,6.19,0.15,9.28,0.27c3.16,0.13,6.43,0.18,9.6,0.11c2.53-0.06,5.58,0.29,7.96-0.66c2.18-0.87,3.5-2.84,4.88-4.66
								c1.55-2.05,3.24-4.04,4.58-6.23c0.46-0.75,2.1-4.22,3.39-3.25c0.7,0.53,0.29,3.29,0.16,4.06c-0.44,2.65-2.82,5.59-4.3,7.78
								c-1.44,2.15-3.41,4.45-5.57,5.9c-2.93,1.97-6.55,2.57-9.99,3.02c-9.72,1.28-19.66,1.34-29.44,1.61
								c-2.63,0.07-5.39-0.21-7.65-1.68c-0.85-0.55-1.57-1.34-2.28-2.05c-1-1-2.15-1.81-3.11-2.86c-2.26-2.5-6.14-5.44-6.43-9.07
								C176.43,264.99,175.98,262.11,178.03,259.81z"/>
							<polygon fill="#FCD275" points="244.7,259.08 241.64,263.46 233.87,274.55 187.61,274.55 179.84,263.46 176.77,259.08 
															"/>
							<polygon opacity="0.3" fill="#FFFFFF" points="244.7,259.08 241.64,263.46 179.84,263.46 176.77,259.08 							"/>
						</g>
						<g>
							<rect x="244.9" y="259.08" fill="#FCB90F" width="67.93" height="42.63"/>
							<polygon fill="#FCD275" points="312.83,259.08 309.42,263.95 302,274.55 255.74,274.55 248.31,263.95 244.9,259.08 							
								"/>
							<polygon opacity="0.3" fill="#FFFFFF" points="312.83,259.08 309.42,263.95 248.31,263.95 244.9,259.08 							"/>
						</g>
						<path fill="#FCD275" d="M176.77,230.2h-38.21c-3.63,0-6.58,2.95-6.58,6.58v2.42c0,3.63,2.95,6.58,6.58,6.58h38.21V230.2z"/>
						<rect x="312.83" y="234.46" fill="#E2A771" width="31.26" height="67.26"/>
						<path opacity="0.3" fill="#FFFFFF" d="M312.83,234.46v67.26h15C327.83,301.72,327.55,247.09,312.83,234.46z"/>
						<rect x="210.74" y="219.61" fill="#F2BC86" width="101.76" height="39.47"/>
						<rect x="210.74" y="227.2" fill="#E2A771" width="101.76" height="9.44"/>
						<rect x="210.74" y="219.61" opacity="0.3" fill="#FFFFFF" width="101.76" height="7.59"/>
						<line fill="#9FDAFE" x1="312.49" y1="227.2" x2="210.74" y2="227.2"/>
					</g>
				</g>
				<path fill="#A6AFB2" d="M452.38,238.28h-2.64c-3.97,0-7.2,3.22-7.2,7.2v18.37c0,3.97,3.22,7.2,7.2,7.2h2.64
					c3.97,0,7.2-3.22,7.2-7.2v-18.37C459.57,241.5,456.35,238.28,452.38,238.28z"/>
				<path opacity="0.2" fill="#FFFFFF" d="M448.94,242.52c-2.35,0.96-2.98,5.67-3.39,7.95c-0.53,2.93-0.31,6.1,0.11,9.03
					c0.35,2.37,2.24,8.45,5.76,5.9c1.78-1.29,2.61-3.64,3.08-5.69c0.59-2.54,1.05-5.54,0.92-8.15c-0.11-2.26-0.48-4.5-1.64-6.45
					C453.06,243.9,451.34,241.76,448.94,242.52z"/>
				<path opacity="0.25" fill="#FFFFFF" d="M376.83,166.88H77.33c0.73-5.02,5.04-8.88,10.26-8.88h278.98
					C371.79,158.01,376.11,161.86,376.83,166.88z"/>
				<path fill="#6B6B6B" d="M454.01,205.2h-77.07v-6.56c0,0,40.13,0,63.08,0C444.92,198.64,449.62,201.19,454.01,205.2z"/>
				<rect x="108.84" y="259.08" opacity="0.3" fill="#FFFFFF" width="67.93" height="7.74"/>
				<rect x="108.84" y="216.67" opacity="0.3" fill="#FFFFFF" width="67.93" height="7.67"/>
				<g>
					<path d="M482.79,253.79c-4.67-13.42-10.73-26.82-18.83-38.53c-4.56-6.59-10.36-13.74-18.11-16.61
						c-4.81-1.78-10.47-1.1-15.5-1.1c-3.98,0-7.96,0-11.94,0c-2.95,0-6.53,0.56-9.44,0c-1.99-0.38-1.56-0.38-2.38-2.57
						c-1.2-3.16-2.72-6.21-4.57-9.05c-2.4-3.7-5.38-7.06-8.99-9.62c-1.84-1.31-3.84-2.4-5.94-3.22c-2.48-0.97-5.45-0.8-7.81-1.76
						c-1.69-0.68-0.74,0.09-1.24-1.51c-0.17-0.55,0.02-1.47-0.03-2.07c-0.27-3.04-1.45-5.81-3.75-7.89c-2.21-2-4.92-2.82-7.84-2.96
						c-14.86-0.69-29.92,0-44.8,0c-30.6,0-61.2,0-91.8,0c-31.13,0-62.27,0-93.4,0c-16.05,0-32.21-0.52-48.26,0
						c-6.68,0.22-11.67,4.65-12.02,11.47c-0.09,1.83,0,3.68,0,5.51c0,11.62,0,23.24,0,34.86c0,30.19,0,60.38,0,90.57
						c0,3.65,0.37,7.51,0,11.14c-0.04,0.39,0.25,1.7,0,2.03c-0.41,0.54-3.15,0.72-4.05,1.11c-2.51,1.11-4.59,2.99-5.96,5.37
						c-3.09,5.39-1.69,13.9-1.69,19.83c0,6.97-1.26,15.2,3.88,20.77c5.67,6.15,14.64,4.72,22.18,4.72c5.23,0,10.46,0,15.68,0
						c1.57,0,3.3-0.22,4.85,0c2.05,0.29,1.2-0.25,2.43,1.76c3.19,5.24,6,9.85,11.1,13.54c9.68,6.99,22.64,8.44,33.6,3.67
						c10.28-4.47,17.92-13.98,20.01-25c2.75,14.51,15.03,25.92,29.7,27.6c7.35,0.84,14.89-0.76,21.26-4.53
						c3.08-1.82,5.87-4.13,8.24-6.82c1.12-1.27,2.14-2.6,3.06-4.02c0.84-1.29,1.89-4.81,2.96-5.62c1.4-1.06,4.12-0.59,6.15-0.59
						c4.51,0,9.02,0,13.52,0c4.94,0,9.88,0,14.82,0c2.55,0,7.58-1.01,9.95,0c1.49,0.63,0.24-0.75,0.96,1.07
						c0.39,0.99,0.01,2.32,0.47,3.41c0.77,1.82,2.42,3.12,4.33,3.55c2.18,0.5,4.78,0.12,6.98,0.12c9.53,0,19.06,0,28.59,0
						c2.2,0,4.8,0.37,6.98-0.12c3.93-0.9,3.75-3.57,4.8-6.59c0.72-2.08-0.52-1,1.73-1.44c7.74-1.52,16.21,1.21,24.02-0.23
						c3.95-0.73,7.47-3.24,9.47-6.72c0.78-1.36,1.2-5.22,2.11-5.79c0.85-0.53,3.89,0,4.83,0c2.86,0,5.73,0,8.59,0
						c7.6,0,15.19,0,22.79,0c-0.17,18.74,15.45,34.53,34.2,34.53c18.75,0,34.37-15.79,34.2-34.53c10.65,0,21.29,0.07,31.94,0
						c7.09-0.05,13.64-2.86,16.46-9.87c1.96-4.88,1.13-15.76,1.13-20.94c0-10.32,0-20.63,0-30.95c0-4.57,0.33-4.26,0-8.82
						c-0.33-4.6-4.15-7.37-7.78-9.75C512.15,263.03,497.01,258.15,482.79,253.79z M338.8,366.44c0,6.13-14.61,3.84-18.14,3.84
						c-8.07,0-16.19,0.24-24.26,0c-0.51-0.01-1.07,0.08-1.57,0c-1.73-0.27-5.71-3.47-3.85-5.65c0.63-0.74,3.3-0.33,4.52-0.33
						c8.71,0,17.41,0,26.12,0c4.31,0,8.62,0,12.94,0C337.36,364.3,338.96,363.28,338.8,366.44z M443.62,255.75
						c3.76,0,7.52,0,11.27,0c0.57,0,3.16-0.35,3.59,0.07c0.58,0.57,0.03,5.09,0,5.93c-0.25,6.15-6.76,11.16-12.25,6.41
						C442.73,265.12,443.62,259.91,443.62,255.75z M443.62,253.58c0-3.93-0.87-8.99,2.18-12.04c5.34-5.33,12.42-0.35,12.69,6.03
						c0.04,0.95,0.59,5.23,0,5.87c-0.42,0.45-2.53,0.13-3.22,0.13C451.39,253.58,447.51,253.58,443.62,253.58z M451.06,237.2
						c-4.82,0-8.87,3.67-9.53,8.4c-0.25,1.79,0.94,6.72-0.07,7.85c-0.41,0.46-2.75,0.13-3.42,0.13c-3.22,0-6.45,0-9.67,0
						c-4.96,0-10.26,0.55-15.2-0.07c-8.24-1.02-9.87-8.26-9.87-15.18c0-5.57-1.37-13.68,2.14-18.46c3.23-4.4,8.05-4.54,12.93-4.54
						c12.42,0,24.84,0,37.25,0c1.36,0,4.05-0.53,5.36,0c2.76,1.12,5.74,8.38,7.24,11.11c4.77,8.68,8.81,17.82,12.19,27.14
						c-2.84,0-5.69,0-8.53,0c-2.56,0-8.12,1.16-10.42,0c-1.66-0.84-0.69-4.11-0.8-6.28C460.38,241.91,456.92,237.2,451.06,237.2z
						 M451.08,204.11c-21.25,0-42.51,0-63.76,0c-1.6,0-7.83,1.02-9.05,0c-0.26-0.22-0.71-3.72-0.23-4.21
						c0.37-0.37,1.47-0.16,2.15-0.19c11.52-0.49,23.16,0,34.68,0c6.54,0,13.07,0,19.61,0C440.69,199.72,445.74,199.98,451.08,204.11
						z M405.2,197.55c-4.08,0-8.15,0-12.23,0c-3.15,0-6.3,0-9.45,0c-0.88,0-4.54,0.58-5.24,0c-1.27-1.05-0.25-8.88-0.25-10.7
						c0-4.47,0-8.94,0-13.41C391.71,173.97,401.22,185.33,405.2,197.55z M87.59,159.09c20.6,0,41.2,0,61.79,0
						c40.82,0,81.64,0,122.46,0c29.54,0,59.07,0,88.61,0c1.98,0,4.01-0.12,5.99,0c6.6,0.4,9.36,5.35,9.41,11.26
						c0.11,12.6,0,25.21,0,37.81c0,37.63,0,75.27,0,112.9c0,2.44,0,4.88,0,7.32c0,0.86,0.45,3.3,0,4.06
						c-0.71,1.21-2.92,0.65-4.69,0.65c-15.92,0-31.84,0-47.77,0c-19.94,0-39.88,0-59.82,0c-6.31,0-12.61,0-18.92,0
						c-1.02,0-2.99,0.4-3.95,0c-0.74-0.3-0.92-0.87-1.54-1.63c-2.58-3.13-5.26-5.92-8.67-8.17c-13.69-9.03-32.33-6.75-43.57,5.12
						c-1.91,2.02-2.59,4.2-5.13,4.68c-1.97,0.37-5.29,0.37-7.26,0c-2.54-0.48-3.22-2.66-5.13-4.68c-2.76-2.91-5.99-5.32-9.57-7.12
						c-15.27-7.65-32.1-2.41-42.67,10.17c-2.01,2.39-3.99,1.63-7.22,1.63c-4.86,0-9.73,0-14.59,0c-4.49,0-8.99,0-13.48,0
						c-0.75,0-3.13,0.34-3.58-0.16c-1.03-1.15,0-8.01,0-9.47c0-16.46,0-32.92,0-49.39c0-34.21,0-68.41,0-102.62
						C78.31,165.54,80.24,159.09,87.59,159.09z M375.86,349.41c-35.28,0-70.55,0-105.83,0c-5.04,0-10.07,0-15.11,0
						c-2.09,0-6.39,0.94-8.2,0c-1.45-0.75-1.07-2.57-1.47-4.51c-0.7-3.37-1.92-6.64-3.6-9.64c42.51,0,85.01,0,127.52,0
						c0.91,0,5.93-0.68,6.62,0c0.62,0.61,0.07,4.42,0.07,5.32C375.86,343.52,375.86,346.46,375.86,349.41z M181.9,335.26
						c-1.78,3.18-3.04,6.66-3.72,10.24c-0.68-3.58-1.94-7.06-3.72-10.24C176.94,335.26,179.42,335.26,181.9,335.26z M110.47,349.41
						c-6.56,0-13.12,0.05-19.67,0c-3.94-0.03-7.54-0.54-10.22-3.88c-1.14-1.41-3.99-8.47-2.2-10.27c0.61-0.61,5.51,0,6.31,0
						c4.09,0,8.18,0,12.27,0c5.91,0,11.83,0,17.74,0C112.28,339.59,110.83,344.46,110.47,349.41z M79.07,362.13
						c-13.24,0-12.47-13.6-12.47-22.87c0-8.39-2.51-23.29,9.53-24.52c0,6.43,0,12.86,0,19.3c0,7.94,1.63,16.44,11.3,17.48
						c1.93,0.21,6.71-0.78,7.61,0.42c0.61,0.81,0.52,9.13,0,9.83c-0.75,1.03-5.17,0.36-6.66,0.36
						C85.28,362.13,82.18,362.13,79.07,362.13z M97.22,362.13c0-2.2-1.04-9.34,0.31-10.56c0.79-0.71,5.64,0,6.72,0
						c2.04,0,4.09,0,6.13,0c-0.03,3.58,0.49,7.14,1.56,10.56C107.03,362.13,102.13,362.13,97.22,362.13z M144.58,383.93
						c-29.33,0-42.99-37.9-20.48-56.65c22.65-18.87,57.57,1.85,51.92,30.77C173.13,372.87,159.69,383.93,144.58,383.93z
						 M211.78,383.93c-29.33,0-42.99-37.9-20.48-56.65c22.65-18.87,57.57,1.85,51.92,30.77
						C240.33,372.87,226.89,383.93,211.78,383.93z M364.22,362.13c-34.9,0-69.79,0-104.69,0c-5.04,0-10.08,0-15.12,0
						c1.07-3.41,1.59-6.98,1.56-10.56c37.02,0,74.04,0,111.05,0c6.26,0,12.52,0,18.78,0C375.26,357.47,370.14,362.13,364.22,362.13z
						 M378.03,349.4c0-3.74,0-7.49,0-11.23c0-3.64,0.21-2.91,3.77-2.91c7.84,0,15.68,0,23.52,0c-1.15,3.26-1.91,6.64-2.29,10.07
						c-0.16,1.47,0.34,3.49-0.8,4.07c-1.65,0.84-6,0-7.84,0C388.94,349.4,383.48,349.4,378.03,349.4z M404.9,349.4
						c0.57-23.44,20.38-42.75,43.82-42.75c23.44,0,43.24,19.31,43.82,42.75c-2.01,0-7.66,1.04-9.34,0c-0.81-0.5-1.05-4.85-1.39-6.15
						c-0.72-2.75-1.78-5.4-3.15-7.88c-5.87-10.6-17.18-17.45-29.3-17.67c-11.95-0.22-23.33,5.99-29.66,16.12
						c-1.61,2.57-2.87,5.35-3.74,8.25c-0.39,1.29-0.75,6.76-1.46,7.33C413.14,350.5,406.69,349.4,404.9,349.4z M507.55,335.58
						c0,3.04,0,6.08,0,9.12c0,0.95,0.47,3.24,0,4.05c-0.64,1.09,0.32,0.06-1.12,0.64c-1.82,0.73-8.17,0.54-10.05,0
						c-2.38-0.69-1.54,0.36-1.88-3.27c-0.35-3.7-1.15-7.36-2.38-10.87C493.93,335.26,507.55,334.92,507.55,335.58z M448.71,383.93
						c-29.33,0-42.99-37.9-20.48-56.65c22.65-18.87,57.57,1.85,51.92,30.77C477.26,372.87,463.82,383.93,448.71,383.93z
						 M530.27,335.85c0,9.94-8.58,13.55-17.05,13.55c-3.09,0-3.5,0.72-3.5-2.33c0-3.36-0.07-6.73,0-10.09
						c0.15-7.78,6.04-7.71,12.11-7.71c1.32,0,7.29-0.89,8.27,0C530.93,330.02,530.27,334.49,530.27,335.85z M530.27,312.68
						c-5.93,0-11.87,0-17.8,0c-3.14,0-6.49-0.21-7.48-3.91c-0.75-2.8-0.13-6.46-0.13-9.31c0-3.59,0.14-7.24,4.49-8.05
						c2.29-0.43,4.92-0.07,7.23-0.07c3.72,0,7.43,0,11.15,0c2.39,0,2.06-0.46,2.54,1.35c0.88,3.32,0,8.09,0,11.52
						C530.27,307.04,530.27,309.86,530.27,312.68z M509.93,289.18c-8.79,0-8.25,13.51-7.15,19.6c1.58,8.67,15.03,6.07,21.26,6.07
						c2.09,0,5.48-0.77,6.23,0.83c0.35,0.75,0.41,10.16,0,10.88c-0.47,0.81-0.62,0.42-1.91,0.54c-3.86,0.36-7.83-0.17-11.71,0
						c-1.87,0.08-3.58,0.3-5.21,1.36c-1.81,1.17-2.58,3.89-4.04,4.63c-0.94,0.48-3.26,0-4.32,0c-2.31,0-4.62,0-6.94,0
						c-1.02,0-3.37,0.44-4.32,0c-1.44-0.67-2.4-4.07-3.31-5.64c-6.33-10.9-17.11-18.93-29.4-21.78
						c-12.87-2.99-26.64-0.19-37.33,7.55c-5.05,3.66-9.34,8.34-12.54,13.69c-0.75,1.26-2.16,5.58-3.25,6.17
						c-0.57,0.31-2.21,0-2.84,0c-7.58,0-15.94,1.03-23.44,0c-1.44-0.2-1.17,0.24-1.69-0.54c-0.41-0.64,0-2.98,0-3.73
						c0-13.43,0-26.85,0-40.28c0-17.7,0-35.39,0-53.09c0-6.56,0-13.13,0-19.69c0-1.61-1.04-7.95,0-9.26
						c0.78-0.99,6.79-0.21,8.16-0.21c7.77,0,15.54,0,23.32,0c8.88,0,17.76,0,26.63,0c5.12,0,11.32-0.97,16.36,0
						c3.15,0.61,5.32,4.37,7.24,6.89c-15.07,0-30.3-0.69-45.35,0c-6.82,0.31-12.5,5.07-13.21,12.04c-0.44,4.3-0.05,8.81-0.05,13.13
						c0,4.98,0.06,9.71,3.88,13.53c3.5,3.5,7.85,3.88,12.48,3.88c5.1,0,10.2,0,15.29,0c1.57,0,7.85-0.81,8.68,0.32
						c0.68,0.93-0.05,4.78,0,5.96c0.16,3.37,1.24,6.38,4.12,8.38c6.55,4.57,14.61-0.47,15.08-7.88c0.11-1.67-0.57-4.19,0-5.72
						c0.53-1.42,0.16-1.06,2.2-1.06c4.91,0,9.83,0,14.74,0c5.03,0,9.12,1.51,13.91,3.17c7.5,2.6,14.94,5.46,22.13,8.83
						c4.94,2.32,12.69,5.3,15.72,10.22c2.02,3.29,0.92,3.68,0.92,7.35c0,1.1,0.36,3.3-0.33,3.86c-0.88,0.71-5.2,0-6.32,0
						C519.06,289.18,514.5,289.18,509.93,289.18z"/>
					<path d="M361.77,288.32c0-7.79,0-15.58,0-23.37c0-18.94,0-37.88,0-56.81c0-7.5,0-15.01,0-22.51c0-2.58,0-5.16,0-7.74
						c0-0.89,0.46-3.33,0-4.11c-1.03-1.73-9.53-0.6-11.77-0.6c-12.33,0-24.65,0-36.98,0c-36.79,0-73.59,0-110.38,0
						c-31.38,0-62.77,0-94.15,0c-3.86,0-7.73,0-11.59,0c-0.62,0-4.02-0.47-4.49,0c-0.78,0.79-0.01,6.33-0.01,7.37
						c0,6.57,0,13.14,0,19.72c0,32.9,0,65.81,0,98.71c0,4.68-0.06,3.83,5.07,3.83c4.68,0,9.37,0,14.05,0c17.02,0,34.05,0,51.07,0
						c4.37,0,8.73,0,13.1,0c24.11,0,48.22,0,72.32,0c27.78,0,55.55,0,83.33,0c5.71,0,11.41,0,17.12,0c2.26,0,4.52,0,6.77,0
						c1.38,0,4.35,0.56,5.61,0c1.46-0.65,0.42,0.36,0.92-1.18c0.45-1.37,0-3.69,0-5.11C361.77,293.78,361.77,291.05,361.77,288.32z
						 M175.69,300.4c-1.11,1.48-11.32,0.23-13.3,0.23c-17.49,0-34.97,0-52.46,0c0-7.01,0-14.02,0-21.02c0-4.58,0-9.17,0-13.75
						c0-0.82-0.54-4.89,0.07-5.47c0.58-0.55,4.46,0,5.23,0c3.83,0,7.66,0,11.48,0c10.05,0,20.11,0,30.16,0c4.05,0,8.1,0,12.15,0
						c1.04,0,5.55-0.7,6.41,0c0.64,0.52,0.26,2.96,0.26,3.96c0,1.92,0,3.84,0,5.76c-6.32,0-39.74,0-40.82,0
						c-1.19,0-1.78,0.71-1.78,1.24c0,0.53,0.99,1.01,1.78,1.01c0.73,0,35.28,0,40.82,0c0,1.46,0,2.92,0,4.38
						c-6.32,0-39.74,0-40.82,0c-1.19,0-1.78,0.71-1.78,1.24c0,0.53,0.99,1.01,1.78,1.01c0.73,0,35.28,0,40.82,0
						c0,1.46,0,2.92,0,4.38c-6.32,0-39.74,0-40.82,0c-1.19,0-1.78,0.71-1.78,1.24c0,0.53,0.99,1.01,1.78,1.01
						c0.73,0,35.28,0,40.82,0c0,2.13,0,4.26,0,6.39C175.69,293.54,176.64,299.13,175.69,300.4z M175.69,232.91
						c0.72,3.62,0,8.07,0,11.78c-6.44,0-12.87,0-19.31,0c-4.1,0-8.19,0-12.29,0c-2.49,0-5.48,0.39-7.71-0.92
						c-6.14-3.59-2.94-11.91,3.39-12.49c2.06-0.19,4.22,0,6.29,0c8.53,0,17.06,0,25.59,0c0.74,0,2.93-0.4,3.57,0
						C175.96,231.74,175.45,231.7,175.69,232.91z M175.69,229.12c-10.32,0-20.65,0-30.97,0c-5.1,0-10.7-0.3-13.13,5.42
						c-2.95,6.98,3.06,12.22,9.52,12.32c5.53,0.08,11.07,0,16.61,0c3.15,0,6.29,0,9.44,0c2.06,0,4.09,0,6.17,0
						c0.37,0,2.5-0.16,2.5,1.77c0,1.53,0.55,7.46-0.15,8.63c-0.81,1.36-3.55,0.75-5.56,0.75c-12.23,0-24.47,0-36.7,0
						c-5.7,0-11.41,0-17.11,0c-1.09,0-5.66,0.68-6.38-0.07c-0.37-0.38,0-2.82,0-3.34c0-2.79,0-5.59,0-8.38c0-6.61,0-13.22,0-19.84
						c0-1.36,0.25-7.23,1.21-8.05c1.12-0.96,6.55-0.56,7.91-0.56c14.2,0,28.4,0,42.59,0c2.74,0,5.48,0,8.23,0
						c1.24,0,3.88-0.52,5.05,0C176.85,218.62,175.69,226.63,175.69,229.12z M243.36,300.63c-0.86,0.68-5.06,0-6.12,0
						c-3.87,0-7.74,0-11.61,0c-9.79,0-19.57,0-29.36,0c-6.14,0-12.27,0-18.41,0c0-12.7,0-25.41,0-38.11
						c1.48,2.11,2.96,4.22,4.43,6.33c1.18,1.68,2.69,5.15,4.41,6.3c2.6,1.74,8.63,0.49,11.59,0.49c7.36,0,14.73,0,22.09,0
						c2.97,0,5.94,0,8.91,0c1.2,0,3.33,0.42,4.49,0c1.97-0.71,3.25-3.71,4.4-5.34c1.82-2.59,3.63-5.18,5.45-7.78
						c0,6.96,0,13.91,0,20.87c0,4.44,0,8.89,0,13.33C243.62,297.69,244,300.13,243.36,300.63z M310.14,258c-2.44,0.82-6.6,0-9.16,0
						c-4.92,0-9.85,0-14.77,0c-10.33,0-20.67,0-31,0c-14.46,0-28.92,0-43.39,0c0-9.91,0-19.81,0-29.72c32.32,0,64.64,0,96.96,0
						c0.61,0,2.28-0.24,2.63,0.14c0.39,0.44,0,3.13,0,3.68c0,2.63,0,5.25,0,7.88c0,5.03,0,10.07,0,15.1
						C311.41,257.76,311.96,257.39,310.14,258z M310.75,260.17c-1.38,1.97-2.76,3.94-4.14,5.91c-1.24,1.77-3.14,6.1-5.03,7.18
						c-2.18,1.25-7.75,0.21-10.27,0.21c-7.36,0-14.72,0-22.08,0c-2.93,0-5.86,0-8.79,0c-0.96,0-3.19,0.44-4.07,0
						c-1.54-0.76-3.22-4.51-4.2-5.91c-1.73-2.46-3.45-4.92-5.18-7.39C268.24,260.17,289.49,260.17,310.75,260.17z M311.41,226.11
						c-29.04,0-58.08,0-87.12,0c-4.16,0-8.31,0-12.47,0c0-2.18-0.83-4.66,0.86-5.42c1.43-0.65,4.72,0,6.27,0c8.31,0,16.61,0,24.92,0
						c19.35,0,38.69,0,58.04,0c2.41,0,9.3-0.17,9.48,0C312.01,221.31,311.41,225.13,311.41,226.11z M242.62,260.17
						c-1.38,1.97-2.76,3.94-4.14,5.91c-1.24,1.77-3.14,6.1-5.03,7.18c-2.18,1.25-7.75,0.21-10.27,0.21c-7.36,0-14.72,0-22.08,0
						c-2.93,0-5.86,0-8.79,0c-0.96,0-3.19,0.44-4.07,0c-1.54-0.76-3.22-4.51-4.2-5.91c-1.73-2.46-3.45-4.92-5.18-7.39
						C200.11,260.17,221.37,260.17,242.62,260.17z M311.49,300.63c-0.86,0.68-5.06,0-6.12,0c-3.87,0-7.74,0-11.61,0
						c-9.79,0-19.57,0-29.36,0c-6.14,0-12.27,0-18.41,0c0-12.7,0-25.41,0-38.11c1.48,2.11,2.96,4.22,4.43,6.33
						c1.18,1.68,2.69,5.15,4.41,6.3c2.6,1.74,8.63,0.49,11.59,0.49c7.36,0,14.73,0,22.09,0c2.97,0,5.94,0,8.91,0
						c1.2,0,3.33,0.42,4.49,0c1.97-0.71,3.25-3.71,4.4-5.34c1.82-2.59,3.63-5.18,5.45-7.78c0,6.96,0,13.91,0,20.87
						c0,4.44,0,8.89,0,13.33C311.75,297.69,312.13,300.13,311.49,300.63z M343,300.37c-0.62,0.79-4.47,0.26-5.61,0.26
						c-7.83,0-15.65,0-23.48,0c0-13.44,0-26.89,0-40.33c0-4.95,0-9.9,0-14.85c0-1.61-1.08-8.49,0-9.72c0.6-0.69,4.23-0.18,5.25-0.18
						c4.45,0,8.89,0,13.34,0c2.16,0,7.87-1.09,9.78,0c1.7,0.98,0.73,7.23,0.73,9.5c0,16.39,0,32.78,0,49.16
						C343,295.31,343.7,299.49,343,300.37z M358.98,300.63c-1.33,0.79-5.98,0-7.5,0c-0.9,0-5.58,0.68-6.28,0
						c-0.62-0.6-0.04-4.94-0.04-5.76c0-5,0-9.99,0-14.99c0-11.94,0-23.89,0-35.83c0-2.2,1.09-7.95,0-9.91
						c-0.79-1.41-3.07-0.77-5.11-0.77c-5.74,0-11.48,0-17.21,0c-1.71,0-8.25,0.89-9.27-0.27c-0.76-0.86,0-5.51,0-6.71
						c0-1.35,0.86-6.62,0-7.6c-0.52-0.58-2.55-0.27-3.52-0.27c-20.92,0-41.85,0-62.77,0c-10.09,0-20.17,0-30.26,0
						c-1.48,0-5.46-0.74-6.79,0c-1.09,0.61-0.58,2.43-0.58,3.99c0,10.85,0,21.71,0,32.56c0,3.23,0.3,2.92-2.97,2.92
						c-5.5,0-11,0-16.5,0c-2.62,0-5.23,0-7.85,0c-0.63,0-3.8,0.46-4.34,0c-1.3-1.09-0.13-9.9-0.13-11.91c0-8.17,0-16.33,0-24.5
						c0-0.94,0.42-5.92-1.72-5.92c-0.32,0-6.87-0.08-9.92-0.08c-11.95,0-23.9,0-35.85,0c-5.14,0-10.29,0-15.43,0
						c-1.06,0-5.56-0.18-6.38,0.59c-0.79,0.74-0.8,5.68-0.8,6.73c0,5.83,0,11.67,0,17.5c0,17.57,0,35.14,0,52.71
						c0,1.18,0.69,6.85-0.19,7.51c-0.97,0.73-5.73,0-6.85,0c-2.05,0-4.1,0-6.15,0c0-37.69,0-75.38,0-113.06c0-3.08,0-6.17,0-9.25
						c0-0.4-0.3-2.67,0.01-2.97c0.8-0.77,6.15,0,7.18,0c15.4,0,30.8,0,46.2,0c48.09,0,96.18,0,144.27,0c17.77,0,35.55,0,53.32,0
						c3.83,0,8.84-0.87,12.59,0c2.29,0.53,1.46,1.03,1.46,3.94c0,39.56,0,79.11,0,118.67C359.6,299.46,359.91,300.08,358.98,300.63z
						"/>
					<path d="M415.09,275.29c-3.06,0-6.25,0.29-9.29,0c-2.1-0.2-3.54-0.71-4.64-2.64c-0.58-1.01-0.11-2.38-1.18-2.99
						c-1.54-0.87-1.39,1.47-1.36,2.16c0.27,5.1,6,5.64,9.84,5.64c1.75,0,5.43,0,6.64,0C417.12,277.46,416.94,275.29,415.09,275.29z"
						/>
					<path d="M448.71,332.41c-10.6,0-19.47,8.88-19.47,19.47c0,10.59,8.88,19.47,19.47,19.47c10.6,0,19.47-8.88,19.47-19.47
						C468.19,341.29,459.31,332.41,448.71,332.41z M448.71,369.19c-9.42,0-17.31-7.89-17.31-17.31c0-9.41,7.89-17.31,17.31-17.31
						c9.42,0,17.31,7.89,17.31,17.31C466.02,361.3,458.13,369.19,448.71,369.19z"/>
					<path d="M448.71,340.46c-14.82,0-14.64,22.86,0,22.86C463.34,363.31,463.56,340.46,448.71,340.46z M448.71,361.15
						c-11.92,0-11.94-18.52,0-18.52C460.64,342.63,460.65,361.15,448.71,361.15z"/>
					<path d="M144.58,332.41c-10.6,0-19.47,8.88-19.47,19.47c0,10.6,8.88,19.47,19.47,19.47c10.6,0,19.47-8.88,19.47-19.47
						C164.05,341.29,155.18,332.41,144.58,332.41z M144.58,369.19c-9.42,0-17.31-7.89-17.31-17.31c0-9.41,7.89-17.31,17.31-17.31
						c9.42,0,17.31,7.89,17.31,17.31C161.88,361.3,154,369.19,144.58,369.19z"/>
					<path d="M144.58,340.46c-14.82,0-14.64,22.86,0,22.86C159.21,363.31,159.42,340.46,144.58,340.46z M144.58,361.15
						c-11.92,0-11.94-18.52,0-18.52C156.51,342.63,156.52,361.15,144.58,361.15z"/>
					<path d="M211.78,332.41c-10.6,0-19.47,8.88-19.47,19.47c0,10.6,8.88,19.47,19.47,19.47c10.6,0,19.47-8.88,19.47-19.47
						C231.25,341.29,222.37,332.41,211.78,332.41z M211.78,369.19c-9.42,0-17.31-7.89-17.31-17.31c0-9.41,7.89-17.31,17.31-17.31
						c9.42,0,17.31,7.89,17.31,17.31C229.08,361.3,221.19,369.19,211.78,369.19z"/>
					<path d="M211.78,340.46c-14.82,0-14.64,22.86,0,22.86C226.41,363.31,226.62,340.46,211.78,340.46z M211.78,361.15
						c-11.92,0-11.94-18.52,0-18.52C223.71,342.63,223.72,361.15,211.78,361.15z"/>
				</g>
			</g>
		</g>
	</g>
	<g>
		<g>
			<g>
				<path fill="#F46C7A" d="M578.71,81.6c-24.62,0-41.73,22.39-41.73,43.36c0,20.96,6.45,33.08,10.78,43.28
					c4.34,10.2,20.38,35.28,26.15,35.28c5.39,0,14.07-9.14,25.2-26.96c11.14-17.82,16.42-30.95,16.42-53.69
					C615.53,100.12,603.33,81.6,578.71,81.6z M575.78,143.67c-10.24,0-18.08-6.87-18.08-17.66c0-10.79,8.46-19.42,18.08-19.42
					c7.5,0,20.02,5.84,20.02,18.54C595.8,137.83,586.01,143.67,575.78,143.67z"/>
				<path opacity="0.2" fill="#FFFFFF" d="M578.71,81.6c-24.62,0-41.73,22.39-41.73,43.36c0,2.66,0.1,5.17,0.3,7.56
					c2.36-19.44,18.69-38.54,41.43-38.54c22.79,0,34.94,15.87,36.61,36.27c0.14-2.35,0.21-4.8,0.21-7.38
					C615.53,100.12,603.33,81.6,578.71,81.6z"/>
			</g>
			<g>
				<path d="M573.72,205.15c-8.02,0-27.49-36.32-31.68-46.85c-8.2-20.61-11.08-46.84,4.88-64.67c12.46-13.93,38.81-19.92,54.2-7.51
					c7.18,5.8,11.45,14.45,14.09,23.13c3.87,12.72,1.91,24.61-0.98,37.3c-2.79,12.23-8.66,23.34-15.74,33.63
					c-3.17,4.62-6.99,8.68-10.57,12.97C585.09,196.54,578.84,205.15,573.72,205.15z M581.01,83.79c-18.85,0-35.46,11.37-40.53,29.66
					c-4.97,17.93,0.51,36.73,8.54,52.88c4.86,9.76,10.8,19.02,17.14,27.88c1.57,2.19,4.52,7.55,7.73,7.63
					c3.38,0.09,6.64-5.07,8.6-7.34c14.43-16.6,27.81-35.76,31.13-57.97C616.97,114.14,608.1,83.79,581.01,83.79z"/>
				<path d="M577.42,145.52c-9.73,0-18.43-4.44-20.4-14.78c-2.06-10.78,3.98-22.21,14.6-25.56c11.03-3.48,20.84,5.2,24.72,15.09
					C601.35,133.06,590.52,145.52,577.42,145.52z M559.2,126.22c0.09,8.98,6.75,15.01,15.55,15.25c8.69,0.23,20.68-5.2,19.92-15.5
					c-0.65-8.74-9.99-18.04-18.83-18.03C566.19,107.96,558.56,116.86,559.2,126.22z"/>
			</g>
		</g>
		<ellipse cx="573.85" cy="215.62" rx="15.19" ry="4.28"/>
	</g>
</g>
</svg>
