<?xml version="1.0" encoding="utf-8"?>
<!-- Generator: Adobe Illustrator 23.0.5, SVG Export Plug-In . SVG Version: 6.00 Build 0)  -->
<svg version="1.1" id="Layer_1" xmlns="http://www.w3.org/2000/svg" xmlns:xlink="http://www.w3.org/1999/xlink" x="0px" y="0px"
	 viewBox="0 0 305 105" enable-background="new 0 0 305 105" xml:space="preserve">
<g>
	<path fill="#1E293B" d="M53.4,103.66c-0.62-0.4-1.31-0.59-2.05-0.56c-0.56-0.14-1.11-0.29-1.67-0.43
		c-0.84-0.51-1.77-0.74-2.73-0.84c-1.45-0.4-2.89-0.8-4.34-1.2c-0.52-0.35-1.1-0.5-1.72-0.51c-0.21-0.05-0.43-0.11-0.64-0.16
		c-0.5-0.44-1.11-0.49-1.72-0.51c-0.55-0.15-1.11-0.3-1.66-0.44c-0.18-0.26-0.42-0.31-0.7-0.22c-0.21-0.05-0.43-0.1-0.64-0.15
		c-0.5-0.42-1.1-0.51-1.72-0.52c-0.55-0.14-1.09-0.29-1.64-0.43c-0.3-0.26-0.64-0.39-1.05-0.31c-0.89-0.25-1.79-0.5-2.68-0.75
		c-0.18-0.23-0.41-0.32-0.7-0.22c-0.55-0.15-1.11-0.3-1.66-0.45c-0.17-0.29-0.42-0.3-0.7-0.21c-0.21-0.05-0.42-0.11-0.64-0.16
		c-0.17-0.26-0.42-0.31-0.7-0.22c-0.44-0.11-0.88-0.23-1.31-0.34c-0.4-0.34-0.86-0.45-1.37-0.37c-1.98-0.71-4-1.27-6.06-1.71
		c-0.19-0.23-0.43-0.29-0.71-0.19c-0.21-0.06-0.42-0.11-0.64-0.17c-0.33-0.42-0.76-0.79-0.85-1.36c0.3-1.02,1.25-1.02,2.03-1.24
		c5.07-1.41,10.14-2.8,15.21-4.2c0.45-0.13,0.96-0.17,1.51-0.88c-4.73-0.45-9.13-1.38-13.5-2.46c-0.18-0.24-0.4-0.34-0.7-0.24
		c-3.16-1-6.09-2.61-9.2-3.71c-3.82-1.35-5.16-4.55-6.15-7.89c-0.53-1.77-0.22-3.78-0.38-5.68c-0.23-2.66,1.05-4.63,2.8-6.37
		c0.8-0.79,1.03-1.63,0.97-2.7c-0.17-3.37-0.05-6.74,0.15-10.1c0.05-0.78-0.06-1.8,0.38-2.28c2.32-2.57,1.8-6.15,3.41-8.99
		c1.64-2.88,3.17-5.81,5.2-8.44c0.63-0.82,0.69-1.81,0.7-2.72c0.03-2.05,1.28-2.77,2.98-2.88c0.95-0.06,1.51-0.46,2.1-1.11
		c2.38-2.61,5.01-4.99,7.52-7.48c5.2-5.18,11.56-7.79,18.66-8.92c8.16-1.29,16.33-2.47,24.61-2.3c7.97,0.17,15.94,0.29,23.88,1.2
		c1.51,0.17,2.7,0.81,3.51,2.03c0.69,1.04,1.64,1.66,2.72,2.16c0.24,0.4,0.61,0.6,1.04,0.72c1.24,1.04,1.96,2.37,2.42,3.93
		c1.6,5.41,3.33,10.77,4.9,16.18c0.34,1.18,0.84,1.5,2.01,1.32c1.72-0.26,3.45-0.36,5.18-0.53c0.26,0.17,0.5,0.18,0.73-0.05
		c0.66-0.04,1.33-0.08,1.99-0.13c0.25,0.11,0.49,0.12,0.72-0.04c0.54-0.04,1.08-0.07,1.62-0.11c1.03,0.25,2.06,0.21,3.09-0.05
		c2.69-0.05,5.37-0.09,8.06-0.14c0.24,0.13,0.48,0.13,0.71-0.02c0.88-0.02,1.76-0.04,2.64-0.06c1.04,0.19,2.07,0.22,3.09-0.09
		c6.61-0.11,13.23-0.19,19.84-0.37c1.39-0.04,1.82,0.26,1.75,1.71c-0.24,4.87-0.34,9.75-0.47,14.63c-0.04,1.59-0.42,2.68-2.32,2.91
		c-1.47,0.18-3.23,0.41-2.73,2.79c0.21,0.98-0.74,0.82-1.29,0.78c-2.91-0.21-5.82-0.35-8.71-0.75c-2.67-0.37-4.74,1.1-7.13,1.74
		c0.26,0.66,0.67,0.67,1.09,0.77c2.92,0.71,4.58,2.57,5.07,5.54c0.86,5.27-0.03,10.25-2.44,14.99c-0.45,0.17-0.64,0.54-0.75,0.97
		c-1.04,0.99-2.34,1.48-3.65,1.98c-7.06,2.67-14.12,5.35-21.18,8.03c-0.72,0-1.36,0.21-1.91,0.69c-0.83,0.31-1.65,0.62-2.48,0.94
		c-0.37-0.05-0.68,0.03-0.93,0.33c-9.68,3.59-19.35,7.18-29.03,10.77c-4.36,1.62-8.72,3.25-13.08,4.9
		c-1.75,0.66-3.47,1.37-5.21,2.05c-1.16,0.19-2.22,0.65-3.26,1.17c-0.81,0.24-1.62,0.49-2.42,0.73c-0.27-0.09-0.51-0.04-0.71,0.16
		C56.27,104.47,54.86,103.9,53.4,103.66z M104.64,23.18l0.04,0l-0.06-0.02c-0.31-1.48-0.51-3-1.47-4.24
		C103.68,20.33,103.57,21.97,104.64,23.18z M107.29,32.6c-0.33-2.77-1.35-5.36-2.08-8.03c-0.05-0.19-0.38-0.31-0.57-0.46l-0.04,0
		l0.06,0.02c0.4,3.11,1.85,5.97,2.07,9.12c-0.02,1.01-0.04,2.02-0.06,3.03c-0.02,0.58,0.17,1.01,0.83,1.01
		c0.71-0.01,0.55-0.56,0.56-0.98C108.06,35.02,107.98,33.75,107.29,32.6z M137.58,60.94c-0.05,0.33-0.09,0.67-0.14,1
		c-0.74,2.25-0.64,4.51,0.23,6.68c0.8,2.01,2.23,2.2,3.73,0.59c0.3-0.32,0.59-0.68,0.81-1.07c1.83-3.24,2.34-6.72,1.77-10.36
		c-0.11-0.71-0.35-1.4-0.78-2.02c-0.75-1.08-1.64-1.29-2.7-0.51c-0.67,0.49-1.35,1-1.46,1.93c-0.75,0.88-1.07,1.94-1.31,3.04
		C137.49,60.43,137.43,60.66,137.58,60.94z M86.46,79.09c-0.41,2.51-0.05,4.92,1.15,7.15c1.55,2.9,4.26,3.29,6.66,1.04
		c4.04-3.79,5.59-12.44,3.13-17.39c-0.77-1.56-1.88-2.79-3.67-2.81c-1.77-0.02-3.18,0.91-4.06,2.51
		C87.46,72.37,86.48,75.57,86.46,79.09z M95.55,26.58c-4.39,0.62-8.52,2.17-12.71,3.51c-1.09,0.35-1.58,0.84-1.42,2
		c0.18,1.34-0.44,1.97-1.82,1.91c-1.15-0.05-2.26,0.14-2.98,1.21c-0.88,0.69-1.79,1.35-2.62,2.1c-0.67,0.61-1.28,0.66-2.12,0.31
		c-3.8-1.56-3.82-1.54-4.52,2.62c-0.11,0.66-0.09,1.34-0.16,2.01c-0.09,0.83,0.21,1.01,1.06,0.92c10.85-1.06,21.54-3.12,32.21-5.28
		c1.81-0.37,2.67-1.97,4.23-2.56c0.16-0.06,0.25-0.49,0.24-0.74c-0.03-1.85-0.06-3.7-0.98-5.38c-0.12-1.4-0.46-2.75-1.05-4.03
		c-0.35-1.35-0.65-2.72-1.06-4.05c-1.39-4.54-2.22-9.25-4.19-13.62c-1.26-2.81-3.1-4.6-6.42-4.3c-0.82,0.07-1.66-0.03-2.5-0.05
		c-1.64-0.51-3.34-0.28-5.01-0.39C70.98,1.9,58.28,2.35,45.72,4.9c-3.67,0.75-7.38,1.49-10.54,3.73c-0.41,0.07-0.8,0.22-0.75,0.68
		c0.01,0.11,0.56,0.06,0.77-0.22c0.33-0.03,0.67-0.07,1-0.1c0.35,0.26,0.68,0.21,0.99-0.08c1-0.09,2.01-0.17,3.01-0.26
		c0.36,0.18,0.71,0.16,1.03-0.09c0.89-0.08,1.78-0.16,2.68-0.23c0.59,0.24,1.15,0.18,1.71-0.1C47.41,8.14,49.2,8.05,51,7.97
		c0.47,0.2,0.93,0.16,1.36-0.1c5.07,0,10.15,0,15.22,0c0.44,0.28,0.89,0.33,1.37,0.11c1.3,0.48,2.95-0.39,3.99,1.06
		c-0.24,0.63-0.43,1.28-0.72,1.88c-3.63,7.35-7.29,14.69-10.89,22.05c-0.63,1.3-1.66,1.94-2.95,2.28c-3.12,0.82-6.31,1.02-9.52,0.95
		c-0.5-0.01-1.06-0.27-1.52,0.26c1.42,0.7,2.81,1.31,4.12,2.06c0.48,0.27,1.5,0.56,0.86,1.45c-0.54,0.76-1.07,0.03-1.57-0.26
		c-0.1-0.06-0.18-0.14-0.28-0.19c-3.1-1.44-6.17-3.11-9.59-3.48c-4.57-0.49-9.19-0.59-13.79-0.85c-0.41-0.02-0.85-0.18-1.4,0.25
		c1.39,1.02,2.7,1.95,3.97,2.93c0.36,0.27,1.19,0.48,0.8,1.05c-0.42,0.63-1.01,0-1.45-0.28c-1.41-0.92-2.85-1.81-4.17-2.85
		c-1.39-1.1-2.92-1.53-4.65-1.65c-2.45-0.18-4.96-0.1-7.23-1.29c-0.66-0.34-0.79,0.2-0.97,0.56c-0.68,1.42-1.38,2.83-1.95,4.29
		c-0.54,1.39-0.13,1.88,1.4,2.07c10.92,1.37,21.88,2.34,32.87,2.94c6.45,0.35,12.9,0.64,19.37,0.42c1.23-0.04,1.75-0.4,1.77-1.75
		c0.04-3.08,0.8-6.06,2.47-8.64c1.05-1.62,1.72-3.36,2.45-5.1c2.61-6.21,5.07-12.48,8.51-18.3c1.09-1.84,2.67-2.8,4.66-3.28
		c3.53-0.85,7.12-0.92,10.72-0.92c1.06,0,1.64,0.53,1.97,1.49c2.03,5.85,3.46,11.84,4,18.02c-0.43,0.54-1.01,0.82-1.67,0.98
		c-0.26-0.2-0.47-0.1-0.66,0.11c-0.55,0.05-1.11,0.1-1.66,0.15C95.96,26.22,95.74,26.33,95.55,26.58z M43.49,57.3
		c0.25-0.9,0.8-1.71,0.82-2.5c-12.47-0.43-24.84-1.02-36.73-5.18c-0.13,1.09-0.02,2.31,0.36,3.5c-0.13,1.92,0.35,3.79,0.4,5.69
		c0.04,1.28,0.68,1.78,1.88,2.09c5.39,1.37,10.87,2.25,16.32,3.29c4.46,0.85,8.96,1.49,13.48,1.94c0.75,0.07,1.73,0.43,1.96-0.91
		C42.44,62.58,42.98,59.94,43.49,57.3z M58.04,48.52c1.08,0.85,0.64,2.21,1.08,3.27c0.23,5.06,0.47,10.12,0.7,15.18
		c-5.36,0.42-10.75,0.36-16.11,0.92c-1.99,0.21-3.89,0.97-5.97,0.64c-8.34-1.33-16.63-2.93-24.9-4.62c-2.51-0.51-4.97-0.85-5.87-3.8
		c-0.1-0.32-0.48-1.01-0.95-0.38c-0.82,1.07-2.19,1.85-2.07,3.49c-0.14,0.76-0.5,1.67,0.24,2.2c1.53,1.09,2.43,2.61,3.27,4.21
		c0.29,0.56,0.82,0.74,1.36,0.9c9.69,2.78,19.52,4.75,29.62,5.21c0.57,0.03,1.18,0.11,1.53-0.45c1.18-1.87,3.01-1.9,4.91-1.79
		c1.46,0.08,2.92,0.07,4.38,0.12c4.39,0.14,4.72,0.54,4.13,4.87c-0.52,3.78-1.22,4.38-5.1,4.47c-6.39,0.14-12.73-0.17-19.05-1.24
		c-6.73-1.14-13.36-2.51-19.36-5.97c-1.47-0.85-2.87-1.8-4.45-2.8c0.88,2.07,1.3,2.72,2.16,3.13c8.25,4.03,16.88,6.69,26.1,7.17
		c1.45,0.08,2.94,0.01,4.34,0.34c2.65,0.61,5.22,1.5,7.85,2.19c3.56,0.93,7.15,1.45,10.83,0.75c2.26-0.43,4.53-0.84,6.81-1.11
		c1.27-0.15,1.79-0.74,2.07-1.96c0.6-2.64,0.97-5.3,1.11-7.99c0.47-9.16,0.3-18.29-0.89-27.4c-0.03-0.6-0.01-1.21-0.09-1.8
		c-0.09-0.66-0.34-1.2-1.19-0.84c-2.01,0.02-4.03,0.07-6.04,0.04c-15.79-0.2-31.51-1.44-47.18-3.41c-2.09-0.26-3.19,0.58-3.56,2.72
		c-0.11,0.61-0.1,1.23-0.2,1.84c-0.18,1.11,0.23,1.74,1.3,2.19c1.97,0.83,3.96,1.59,6.06,1.98c5.91,1.08,11.87,1.79,17.85,2.32
		c3.63,0.32,7.27,0.69,10.92,0.34c0.68-0.07,1.23-0.17,1.7-0.83C47.97,48.89,53.71,47.07,58.04,48.52z M102.31,41
		c0.07-1.27-0.21-1.79-1.72-1.38c-2.58,0.7-5.24,1.15-7.88,1.64c-7.76,1.44-15.53,2.83-23.4,3.53c-2.08,0.19-2.08,0.2-1.64,2.6
		c0.24,3.19,0.57,6.37,0.71,9.56c0.4,8.87,0.81,17.74-1,26.53c-0.22,1.05,0.1,1.17,1,0.98c3.19-0.65,6.38-1.31,9.59-1.85
		c1.01-0.17,1.58-0.67,2.09-1.46c1.54-2.39,2.4-5.06,3.34-7.7c1.3-3.68,2.95-7.17,5.84-9.92c2.3-2.19,5-2.84,8.09-2.08
		c0.96,0.24,1.57,0.73,1.94,1.64c0.72,1.78,1.23,3.61,1.4,5.53c0.08,0.92,0.33,1.2,1.38,0.84c2.47-0.85,2.98-2.61,3.34-5.02
		c1-6.74,0.32-13.45,0.15-20.18c-0.01-0.46,0.09-1.15-0.66-1.15C103.41,43.1,102.92,41.99,102.31,41z M108.29,30.18
		c1.13,2.55,1.34,4.97,1.16,7.54c-0.38,5.49-0.52,10.99-0.83,16.49c-0.08,1.36,0.07,1.88,1.67,1.48c9.56-2.37,19.15-4.63,28.73-6.95
		c6.15-1.49,12.3-3.02,18.46-4.49c1.08-0.26,1.55-0.67,1.57-1.89c0.05-4.21,0.23-8.42,0.43-12.63c0.06-1.15-0.31-1.43-1.43-1.39
		c-2.38,0.09-4.74,0.29-7.13,0.3c-11.88,0.08-23.77,0.2-35.64,0.98C113.02,29.76,110.76,29.97,108.29,30.18z M91.78,16.81
		c-0.27-2.37-0.43-4.54-1-6.66c-0.21-0.76-0.54-1.08-1.41-1c-2.57,0.21-5.14,0.32-7.71,0.46c-0.45,0.02-0.9,0.02-1.2,0.45
		c-2.42,3.35-4.15,7.02-5.18,11.02c-0.11,0.42-0.15,0.89,0.45,0.75c1.44-0.35,2.99-0.2,4.27-1.27c3.08-2.59,6.6-3.75,10.62-2.85
		C91.68,17.93,91.95,17.58,91.78,16.81z M57.83,60.71c-0.01-2.93-1.91-5.23-4.33-5.23c-2.45,0-4.41,2.29-4.42,5.16
		c-0.01,3.03,1.9,5.31,4.43,5.29C55.94,65.91,57.84,63.63,57.83,60.71z M130.61,65.79c-0.01-0.22-0.07-0.45-0.03-0.67
		c0.26-1.61-0.37-2.25-2.01-2.01c-1.18,0.17-2.43,0.06-3.59-0.08c-1.65-0.2-2.63-0.02-4,0.42c-2.02,0.65-3.96,1.19-6.09,1.38
		c-1,0.09-1.16,0.44-1.23,1.29c-0.09,1.01,0.45,1.07,1.21,1.1c4.59,0.2,9.18,0.44,13.77,0.64
		C130.75,67.96,130.75,67.95,130.61,65.79z M107.89,28.17c0.17-0.85,0.13-1.48-0.07-2.11c-1.61-5.21-3.23-10.41-4.8-15.63
		c-0.51-1.71-1.7-2.61-3.28-3.16c0.78,1.18,2.24,1.72,2.67,3.26c1.01,3.64,2.16,7.25,3.28,10.86
		C106.37,23.6,107.11,25.79,107.89,28.17z"/>
	<path fill="#CBCBCB" d="M141.65,72.65c0.11-0.43,0.3-0.8,0.75-0.97C142.45,72.24,142.4,72.72,141.65,72.65z"/>
	<path fill="#CBCBCB" d="M102.56,6.72c-0.43-0.11-0.81-0.31-1.04-0.72C102.1,5.89,102.58,5.94,102.56,6.72z"/>
	<path fill="#CBCBCB" d="M102.31,41c0.61,0.99,1.09,2.11,2.56,2.11c0.74,0,0.65,0.69,0.66,1.15c0.17,6.72,0.85,13.44-0.15,20.18
		c-0.36,2.41-0.87,4.16-3.34,5.02c-1.05,0.36-1.3,0.08-1.38-0.84c-0.17-1.92-0.68-3.74-1.4-5.53c-0.37-0.92-0.98-1.41-1.94-1.64
		c-3.09-0.76-5.79-0.11-8.09,2.08c-2.89,2.75-4.53,6.24-5.84,9.92c-0.94,2.65-1.8,5.31-3.34,7.7c-0.51,0.79-1.08,1.29-2.09,1.46
		c-3.21,0.54-6.4,1.2-9.59,1.85c-0.9,0.18-1.21,0.06-1-0.98c1.81-8.78,1.4-17.66,1-26.53c-0.14-3.19-0.47-6.38-0.71-9.56
		c3.03-0.41,6.01-1.06,9.01-1.64C85.21,44.1,93.77,42.57,102.31,41z"/>
	<path fill="#CBCBCB" d="M100.24,25.15c-0.54-6.18-1.97-12.17-4-18.02c-0.33-0.96-0.91-1.49-1.97-1.49c-3.6,0-7.19,0.07-10.72,0.92
		C81.55,7.04,79.97,8,78.88,9.85c-3.44,5.82-5.9,12.1-8.51,18.3c-0.73,1.74-1.4,3.47-2.45,5.1c-1.67,2.58-2.42,5.56-2.47,8.64
		c-0.02,1.34-0.54,1.7-1.77,1.75c-6.47,0.23-12.92-0.07-19.37-0.42c-10.99-0.6-21.95-1.57-32.87-2.94c-1.53-0.19-1.93-0.68-1.4-2.07
		c0.56-1.46,1.27-2.87,1.95-4.29c0.17-0.36,0.31-0.9,0.97-0.56c2.27,1.19,4.79,1.11,7.23,1.29c1.73,0.12,3.26,0.56,4.65,1.65
		c1.32,1.04,2.76,1.93,4.17,2.85c0.44,0.29,1.02,0.91,1.45,0.28c0.38-0.57-0.45-0.77-0.8-1.05c-1.27-0.98-2.58-1.91-3.97-2.93
		c0.54-0.43,0.99-0.28,1.4-0.25c4.6,0.26,9.21,0.35,13.79,0.85c3.42,0.37,6.49,2.04,9.59,3.48c0.1,0.05,0.18,0.13,0.28,0.19
		c0.5,0.28,1.04,1.01,1.57,0.26c0.64-0.9-0.38-1.18-0.86-1.45c-1.31-0.74-2.7-1.36-4.12-2.06c0.46-0.54,1.02-0.27,1.52-0.26
		c3.21,0.07,6.4-0.13,9.52-0.95c1.29-0.34,2.31-0.98,2.95-2.28c3.6-7.36,7.26-14.7,10.89-22.05c0.3-0.6,0.48-1.25,0.72-1.88
		c0.95,0.38,1.1-0.55,1.45-0.98c1.46-1.83,3.24-3.07,5.58-3.45c1.6-0.26,3.25-0.3,4.78-0.77c1.33-0.41,2.8,0.23,4.01-0.69
		c0.83,0.02,1.67,0.12,2.5,0.05c3.32-0.3,5.17,1.5,6.42,4.3c1.96,4.37,2.8,9.08,4.19,13.62c0.41,1.33,0.71,2.7,1.06,4.05
		C102.03,25.17,101.13,25.16,100.24,25.15z"/>
	<path fill="#CBCBCB" d="M59.83,66.97c-0.24-5.06-0.47-10.12-0.7-15.18c0.46-0.02,0.77-0.22,1.15-0.52c1.68-1.34,3.32-2.79,5.54-3.2
		c1.19,9.1,1.36,18.24,0.89,27.4c-0.14,2.69-0.51,5.35-1.11,7.99c-0.28,1.21-0.79,1.8-2.07,1.96c-2.28,0.28-4.55,0.68-6.81,1.11
		c-3.68,0.7-7.27,0.18-10.83-0.75c-2.63-0.69,2.65,0.61,0,0c-1.4-0.32-10.74-2.45-12.2-2.53c-9.23-0.48-17.86-3.13-26.1-7.17
		c-0.85-0.42-1.27-1.06-2.16-3.13c1.58,1,2.98,1.95,4.45,2.8c6,3.46,12.62,4.83,19.36,5.97c6.32,1.07,12.66,1.38,19.05,1.24
		c3.88-0.09,4.58-0.69,5.1-4.47c0.59-4.33,0.26-4.72-4.13-4.87c-1.46-0.05-2.92-0.04-4.38-0.12c-1.91-0.1-3.73-0.08-4.91,1.79
		c-0.35,0.56-0.96,0.47-1.53,0.45c-10.1-0.46-19.93-2.43-29.62-5.21c-0.54-0.15-1.06-0.33-1.36-0.9c-0.83-1.6-1.74-3.12-3.27-4.21
		c-0.73-0.52-0.38-1.43-0.24-2.2c1.9,1.42,4.1,2.37,6.33,2.92c5.74,1.43,11.59,2.35,17.45,3.14c4.7,0.63,9.41,1.19,14.09,1.85
		c6.45,0.9,12.69,0.42,18.91-1.22c1.28-0.34,2.55-0.86,3.62-1.71c0.43-0.34,1.17-0.7,0.97-1.23c-0.26-0.71-1.13-0.4-1.64-0.27
		C62.39,67.04,61.11,66.92,59.83,66.97z"/>
	<path fill="#CBCBCB" d="M58.04,48.52c-4.33-1.45-10.08,0.36-12.67,4.08c-0.47,0.67-1.02,0.77-1.7,0.83
		c-3.66,0.35-7.29-0.01-10.92-0.34c-5.98-0.53-11.94-1.24-17.85-2.32c-2.1-0.38-4.09-1.14-6.06-1.98c-1.07-0.45-1.48-1.08-1.3-2.19
		c0.1-0.61,0.09-1.23,0.2-1.84c0.38-2.14,1.47-2.99,3.56-2.72c15.67,1.96,31.39,3.2,47.18,3.41c2.01,0.03,4.03-0.03,6.04-0.04
		c-0.16,0.88-0.94,0.76-1.52,1.01C61.36,47.14,59.4,47.13,58.04,48.52z"/>
	<path fill="#F7B70A" d="M43.49,57.3c-0.51,2.64-1.05,5.27-1.51,7.92c-0.23,1.33-1.21,0.98-1.96,0.91
		c-4.52-0.44-9.02-1.09-13.48-1.94c-5.45-1.04-10.93-1.91-16.32-3.29c-1.2-0.31-1.84-0.8-1.88-2.09c-0.05-1.9-0.53-3.78-0.4-5.69
		c2.52,0.48,4.85,1.62,7.4,2.07c5.28,0.94,10.6,1.51,15.9,2.2c2.51,0.33,5.04,0.71,7.64,0.53C40.44,57.82,41.92,57.27,43.49,57.3z"
		/>
	<path fill="#CBCBCB" d="M103.97,29.2c0.92,1.68,0.95,3.53,0.98,5.38c0,0.26-0.09,0.68-0.24,0.74c-1.56,0.6-2.42,2.2-4.23,2.56
		c-10.67,2.16-21.36,4.22-32.21,5.28c-0.85,0.08-1.15-0.09-1.06-0.92c0.07-0.67,0.04-1.35,0.16-2.01c0.7-4.15,0.72-4.18,4.52-2.62
		c0.84,0.35,1.45,0.3,2.12-0.31c0.83-0.75,1.74-1.4,2.62-2.1c0.25,0.33,0.55,0.2,0.89,0.18c3.01-0.18,5.85-1.22,8.78-1.76
		c5.32-0.97,10.61-2.02,15.84-3.38C102.88,30.06,103.44,29.7,103.97,29.2z"/>
	<path fill="#CBCBCB" d="M108.29,30.18c2.47-0.2,4.73-0.42,6.99-0.57c11.87-0.78,23.75-0.9,35.64-0.98c2.39-0.02,4.75-0.21,7.13-0.3
		c1.11-0.04,1.48,0.25,1.43,1.39c-0.2,4.21-0.38,8.42-0.43,12.63c-0.02,1.22-0.48,1.63-1.57,1.89c-6.16,1.47-12.3,3-18.46,4.49
		c-9.58,2.32-19.17,4.58-28.73,6.95c-1.6,0.4-1.75-0.12-1.67-1.48c0.31-5.49,0.45-11,0.83-16.49
		C109.63,35.15,109.42,32.72,108.29,30.18z M110.7,52.11c-0.07,1.48,0.41,1.61,1.69,1.3c14.6-3.56,29.2-7.11,43.83-10.55
		c1.8-0.42,2.32-1.24,2.33-2.91c0-3.26,0.07-6.52,0.21-9.77c0.05-1.22-0.4-1.42-1.47-1.23c-2.14,0.37-4.3,0.68-6.46,0.97
		c-7.99,1.07-15.98,2.13-23.96,3.19c-4.73,0.63-9.45,1.35-14.19,1.83c-1.29,0.13-1.64,0.5-1.63,1.67c0.04,2.64,0.01,5.28,0.01,7.92
		 M145.3,29.83c-0.02-0.14-0.04-0.28-0.07-0.42c-0.61,0-1.21-0.01-1.82,0c-10.98,0.16-21.97,0.19-32.93,1.11
		c-0.9,0.08-1.21,0.18-0.85,1.19c0.74,2.1,1.19,2.5,3.37,2.15c7.08-1.12,14.28-1.31,21.35-2.6C137.96,30.6,141.65,30.3,145.3,29.83z
		"/>
	<path fill="#FAFAFA" d="M88.75,3.14c-1.21,0.91-2.68,0.27-4.01,0.69c-1.53,0.47-3.18,0.51-4.78,0.77
		c-2.33,0.38-4.12,1.62-5.58,3.45c-0.35,0.44-0.5,1.36-1.45,0.98c-1.04-1.45-2.69-0.58-3.99-1.06c-0.42-0.51-0.88-0.52-1.37-0.11
		c-5.07,0-10.15,0-15.22,0c-0.49-0.42-0.95-0.4-1.36,0.1c-1.79,0.08-3.58,0.17-5.37,0.25c-0.59-0.39-1.17-0.48-1.71,0.1
		c-0.89,0.08-1.78,0.16-2.68,0.23c-0.38-0.4-0.72-0.34-1.03,0.09c-1,0.09-2.01,0.17-3.01,0.26c-0.36-0.4-0.69-0.36-0.99,0.08
		c-0.33,0.03-0.67,0.07-1,0.1c-0.01-0.15-0.01-0.3-0.02-0.46c3.16-2.24,6.87-2.98,10.54-3.73c12.56-2.55,25.26-3,38.01-2.15
		C85.41,2.86,87.11,2.63,88.75,3.14z"/>
	<path fill="#FAFAFA" d="M59.83,66.97c1.28-0.05,2.57,0.07,3.85-0.26c0.52-0.13,1.38-0.44,1.64,0.27c0.2,0.53-0.54,0.89-0.97,1.23
		c-1.07,0.85-2.34,1.37-3.62,1.71c-6.22,1.63-12.46,2.11-18.91,1.22c-4.69-0.65-9.4-1.22-14.09-1.85
		c-5.86-0.79-11.71-1.71-17.45-3.14c-2.23-0.56-4.43-1.5-6.33-2.92c-0.11-1.63,1.25-2.41,2.07-3.49c0.48-0.63,0.86,0.06,0.95,0.38
		c0.9,2.95,3.36,3.29,5.87,3.8c8.27,1.69,16.56,3.29,24.9,4.62c2.08,0.33,3.98-0.43,5.97-0.64C49.07,67.34,54.46,67.4,59.83,66.97z"
		/>
	<path fill="#CBCBCB" d="M91.78,16.81c0.17,0.77-0.09,1.12-1.17,0.88c-4.02-0.9-7.54,0.27-10.62,2.85
		c-1.27,1.07-2.83,0.92-4.27,1.27c-0.61,0.15-0.56-0.33-0.45-0.75c1.03-4,2.75-7.67,5.18-11.02c0.31-0.42,0.75-0.42,1.2-0.45
		c2.57-0.14,5.15-0.25,7.71-0.46c0.87-0.07,1.2,0.24,1.41,1C91.35,12.26,91.51,14.44,91.78,16.81z"/>
	<path fill="#FAFAFA" d="M103.97,29.2c-0.53,0.5-1.08,0.85-1.84,1.05c-5.23,1.36-10.53,2.41-15.84,3.38
		c-2.93,0.53-5.77,1.58-8.78,1.76c-0.34,0.02-0.65,0.16-0.89-0.18c0.72-1.08,1.83-1.26,2.98-1.21c1.39,0.06,2-0.57,1.82-1.91
		c-0.16-1.16,0.34-1.65,1.42-2c4.19-1.34,8.32-2.89,12.71-3.51c0.35,0.41,0.56,0.24,0.7-0.18c0.55-0.05,1.11-0.1,1.66-0.15
		c0.29,0.36,0.49,0.23,0.66-0.11c0.65-0.16,1.24-0.44,1.67-0.98c0.89,0.01,1.79,0.01,2.68,0.02
		C103.51,26.45,103.85,27.8,103.97,29.2z"/>
	<path fill="#FAFAFA" d="M43.49,57.3c-1.57-0.04-3.05,0.52-4.61,0.63c-2.6,0.19-5.12-0.2-7.64-0.53c-5.3-0.7-10.63-1.26-15.9-2.2
		c-2.56-0.46-4.88-1.59-7.4-2.07c-0.37-1.19-0.49-2.41-0.36-3.5c11.89,4.16,24.26,4.75,36.73,5.18
		C44.29,55.6,43.74,56.41,43.49,57.3z"/>
	<path fill="#CBCBCB" d="M89.67,69.59c0.88-1.6,2.29-2.53,4.06-2.51c1.79,0.02,2.89,1.26,3.67,2.81c2.46,4.95,0.91,13.6-3.13,17.39
		c-2.4,2.25-5.1,1.86-6.66-1.04c-1.2-2.23-1.55-4.64-1.15-7.15c0.74,0.4,1.28,0.41,1.3-0.64c0.02-1.26,0.51-2.45,1.15-3.43
		c0.65-1.01,1.04-2.55,2.73-2.55c-2.29,2.37-3.12,5.24-2.83,8.47c0.19,2.14,1.2,3.7,2.5,3.77c1.87,0.09,2.77-1.29,3.48-2.71
		c1.36-2.68,1.43-5.47,0.49-8.3c0.49-0.09,0.59-0.43,0.57-0.87c-0.09-2.1-2.08-3.66-4.18-3.25C91,69.69,90.34,69.75,89.67,69.59z"/>
	<path fill="#F7B70A" d="M57.83,60.71c0.01,2.91-1.88,5.2-4.32,5.22c-2.53,0.02-4.44-2.27-4.43-5.29c0.01-2.87,1.97-5.16,4.42-5.16
		C55.91,55.49,57.81,57.78,57.83,60.71z"/>
	<path fill="#FAFAFA" d="M102.31,41c-8.55,1.57-17.1,3.1-25.63,4.75c-3,0.58-5.98,1.22-9.01,1.64c-0.44-2.4-0.44-2.41,1.64-2.6
		c7.87-0.7,15.64-2.09,23.4-3.53c2.64-0.49,5.29-0.93,7.88-1.64C102.1,39.2,102.39,39.73,102.31,41z"/>
	<path fill="#CBCBCB" d="M139.04,57.19c0.11-0.93,0.79-1.44,1.46-1.93c1.06-0.78,1.96-0.58,2.7,0.51c0.43,0.62,0.66,1.3,0.78,2.02
		c0.58,3.65,0.06,7.12-1.77,10.36c-0.22,0.39-0.51,0.74-0.81,1.07c-1.5,1.6-2.93,1.42-3.73-0.59c-0.87-2.17-0.96-4.43-0.23-6.68
		c0.59,0.68-0.13,2.07,1.25,2.33c0.09,0.26,0.2,0.52,0.26,0.79c0.16,0.68,0.38,1.39,1.16,1.47c0.79,0.08,1.11-0.65,1.42-1.23
		c0.77-1.42,1.01-2.95,0.75-4.54c-0.15-0.91-0.57-1.57-1.6-1.62c-0.15-0.75,1.46-0.54,0.86-1.43c-0.56-0.82-1.45-0.81-2.34-0.5
		C139.16,57.21,139.1,57.19,139.04,57.19z"/>
	<path fill="#FAFAFA" d="M91.64,72.46c-1.68,0-2.07,1.54-2.73,2.55c-0.63,0.98-1.12,2.17-1.15,3.43c-0.02,1.06-0.56,1.05-1.3,0.64
		c0.01-3.52,1-6.72,3.21-9.5c0.67,0.15,1.33,0.1,2-0.03c2.09-0.41,4.09,1.15,4.18,3.25c0.02,0.44-0.07,0.78-0.57,0.87
		c-0.53-0.57-1.01-1.19-1.73-1.55c-0.34-0.63-0.71-0.62-1.1-0.05C92.18,72.21,91.91,72.34,91.64,72.46z"/>
	<path fill="#FAFAFA" d="M58.04,48.52c1.36-1.39,3.31-1.39,4.97-2.09c0.59-0.25,1.37-0.14,1.52-1.01c0.85-0.36,1.1,0.18,1.19,0.84
		c0.08,0.59,0.07,1.2,0.09,1.8c-2.22,0.41-3.86,1.86-5.54,3.2c-0.38,0.3-0.69,0.5-1.15,0.52C58.68,50.73,59.12,49.38,58.04,48.52z"
		/>
	<path fill="#FAFAFA" d="M139.04,57.19c0.05,0,0.12,0.02,0.16,0.01c0.89-0.32,1.78-0.33,2.34,0.5c0.6,0.89-1,0.69-0.86,1.43
		c-1.91,1.23-2.07,3.14-2,5.14c-1.37-0.26-0.66-1.64-1.25-2.33c0.05-0.33,0.09-0.67,0.14-1c0.41-0.16,0.55-0.37,0.15-0.71
		C137.97,59.13,138.3,58.07,139.04,57.19z"/>
	<path fill="#FAFAFA" d="M106.71,33.26c0.19-0.22,0.38-0.44,0.57-0.66c0.69,1.15,0.78,2.42,0.75,3.71
		c-0.01,0.42,0.15,0.98-0.56,0.98c-0.66,0.01-0.84-0.43-0.83-1.01C106.67,35.28,106.69,34.27,106.71,33.26z"/>
	<path fill="#CBCBCB" d="M43.92,8.32c0.54-0.58,1.11-0.49,1.71-0.1C45.07,8.5,44.5,8.56,43.92,8.32z"/>
	<path fill="#CBCBCB" d="M51,7.97c0.42-0.5,0.87-0.52,1.36-0.1C51.92,8.13,51.47,8.17,51,7.97z"/>
	<path fill="#CBCBCB" d="M67.58,7.86c0.49-0.41,0.95-0.4,1.37,0.11C68.47,8.19,68.02,8.14,67.58,7.86z"/>
	<path fill="#CBCBCB" d="M35.19,8.63c0.01,0.15,0.01,0.3,0.02,0.46c-0.21,0.29-0.76,0.33-0.77,0.22
		C34.38,8.84,34.78,8.69,35.19,8.63z"/>
	<path fill="#CBCBCB" d="M36.2,8.98c0.3-0.44,0.63-0.48,0.99-0.08C36.89,9.19,36.56,9.24,36.2,8.98z"/>
	<path fill="#CBCBCB" d="M40.21,8.64c0.31-0.43,0.65-0.49,1.03-0.09C40.92,8.8,40.57,8.83,40.21,8.64z"/>
	<path fill="#CBCBCB" d="M96.25,26.4c-0.14,0.41-0.35,0.59-0.7,0.18C95.74,26.33,95.96,26.22,96.25,26.4z"/>
	<path fill="#CBCBCB" d="M137.74,60.23c0.4,0.33,0.26,0.55-0.15,0.71C137.43,60.66,137.49,60.43,137.74,60.23z"/>
	<path fill="#CBCBCB" d="M98.58,26.14c-0.17,0.34-0.38,0.47-0.66,0.11C98.1,26.04,98.32,25.94,98.58,26.14z"/>
	<polygon fill="#CBCBCB" points="104.64,24.14 104.59,24.11 104.63,24.11 	"/>
	<polygon fill="#CBCBCB" points="104.63,23.15 104.69,23.18 104.65,23.18 	"/>
	<path fill="#1E293B" d="M111.05,44.53c0-2.64,0.03-5.28-0.01-7.92c-0.02-1.17,0.34-1.54,1.63-1.67c4.74-0.48,9.47-1.2,14.19-1.83
		c7.99-1.06,15.98-2.12,23.96-3.19c2.16-0.29,4.31-0.59,6.46-0.97c1.07-0.19,1.52,0,1.47,1.23c-0.14,3.25-0.21,6.51-0.21,9.77
		c0,1.67-0.53,2.49-2.33,2.91c-14.63,3.44-29.23,6.99-43.83,10.55c-1.27,0.31-1.76,0.18-1.69-1.3 M112.85,39.29
		c-0.06,2.07-0.06,4.14-0.21,6.2c-0.09,1.27,0.44,1.35,1.46,1.16c2.16-0.4,4.31-0.82,6.47-1.24c10.42-2.06,20.86-4,31.29-6
		c5.32-1.02,5.32-1.03,4.96-6.53c0.18-2.15,0.18-2.13-1.83-1.84c-1.66,0.24-3.33,0.43-4.99,0.65c-11.64,1.55-23.27,3.11-34.91,4.64
		C112.65,36.67,112.59,36.7,112.85,39.29z M112.51,50.02c-0.12,1.13,0,1.65,1.15,1.24c1.1-0.39,2.28-0.55,3.42-0.82
		c12.76-3.05,25.53-6.09,38.29-9.16c0.62-0.15,1.64-0.1,1.43-1.23c-0.24-1.26-1.13-0.57-1.73-0.45
		c-13.49,2.68-26.96,5.42-40.46,8.03C112.87,47.96,112.32,48.67,112.51,50.02z"/>
	<path fill="#1E293B" d="M145.3,29.83c-3.65,0.47-7.34,0.77-10.96,1.44c-7.07,1.29-14.26,1.48-21.35,2.6
		c-2.18,0.35-2.63-0.05-3.37-2.15c-0.36-1.01-0.04-1.12,0.85-1.19c10.96-0.92,21.95-0.95,32.93-1.11c0.61-0.01,1.21,0,1.82,0
		C145.26,29.55,145.28,29.69,145.3,29.83z"/>
	<path fill="#1E293B" d="M93.56,72.13c0.71,0.37,1.2,0.98,1.73,1.55c0.94,2.83,0.87,5.63-0.49,8.3c-0.72,1.41-1.61,2.8-3.48,2.71
		c-1.3-0.07-2.31-1.63-2.5-3.77c-0.29-3.22,0.54-6.1,2.83-8.47c0.27-0.13,0.55-0.25,0.82-0.38C92.82,72.1,93.19,72.12,93.56,72.13z"
		/>
	<path fill="#1E293B" d="M138.69,64.27c-0.07-2,0.09-3.91,2-5.14c1.03,0.05,1.45,0.71,1.6,1.62c0.25,1.6,0.02,3.12-0.75,4.54
		c-0.32,0.58-0.64,1.31-1.42,1.23c-0.78-0.08-1-0.79-1.16-1.47C138.89,64.79,138.78,64.53,138.69,64.27z"/>
	<path fill="#CBCBCB" d="M93.56,72.13c-0.37-0.02-0.73-0.03-1.1-0.05C92.85,71.51,93.22,71.51,93.56,72.13z"/>
	<path fill="#F7B70A" d="M156.82,32.9c0.36,5.49,0.37,5.51-4.96,6.53c-10.43,2-20.87,3.94-31.29,6c-2.15,0.43-4.31,0.85-6.47,1.24
		c-1.02,0.19-1.56,0.1-1.46-1.16c0.15-2.06,0.15-4.14,0.21-6.2c2.99-0.39,5.98-0.73,8.96-1.19c4.41-0.68,8.8-1.47,13.21-2.15
		c4.62-0.71,9.24-1.38,13.87-1.99C151.53,33.61,154.08,32.57,156.82,32.9z"/>
	<path fill="#F7B70A" d="M112.51,50.02c-0.19-1.35,0.36-2.06,2.09-2.4c13.5-2.6,26.98-5.35,40.46-8.03c0.6-0.12,1.49-0.81,1.73,0.45
		c0.21,1.12-0.81,1.08-1.43,1.23c-12.76,3.07-25.52,6.11-38.29,9.16c-1.14,0.27-2.32,0.43-3.42,0.82
		C112.5,51.67,112.39,51.15,112.51,50.02z"/>
	<path fill="#FAFAFA" d="M156.82,32.9c-2.73-0.32-5.28,0.71-7.93,1.06c-4.63,0.61-9.25,1.28-13.87,1.99
		c-4.41,0.68-8.8,1.48-13.21,2.15c-2.98,0.46-5.97,0.8-8.96,1.19c-0.26-2.59-0.2-2.62,2.24-2.94c11.64-1.53,23.28-3.09,34.91-4.64
		c1.66-0.22,3.33-0.41,4.99-0.65C156.99,30.77,156.99,30.75,156.82,32.9z"/>
</g>
<g>
	<path fill="#FFFFFF" d="M169.92,45.38c-0.61,0-1.15-0.23-1.6-0.68c-0.45-0.45-0.68-0.99-0.68-1.6V18.66c0-0.64,0.21-1.21,0.64-1.72
		c0.43-0.51,0.96-0.79,1.6-0.84c2.27-0.21,4.45-0.32,6.56-0.32c3.92,0,6.85,0.73,8.8,2.18c1.95,1.45,2.92,3.5,2.92,6.14
		c0,1.89-0.51,3.56-1.54,5c-1.03,1.44-2.41,2.45-4.14,3.04c-0.03,0-0.04,0.01-0.04,0.04c0,0.05,0.01,0.08,0.04,0.08
		c1.28,0.8,2.37,2.37,3.28,4.72l2.4,6.28c0.19,0.51,0.13,0.99-0.18,1.44c-0.31,0.45-0.73,0.68-1.26,0.68h-1.24
		c-0.69,0-1.32-0.19-1.88-0.58c-0.56-0.39-0.96-0.9-1.2-1.54l-2.24-6.16c-0.48-1.28-1.03-2.12-1.64-2.52
		c-0.61-0.4-1.67-0.6-3.16-0.6h-1.84c-0.24,0-0.36,0.12-0.36,0.36v8.76c0,0.61-0.22,1.15-0.66,1.6c-0.44,0.45-0.97,0.68-1.58,0.68
		H169.92z M173.16,20.74v8.68c0,0.21,0.12,0.32,0.36,0.32h2c4.75,0,7.12-1.69,7.12-5.08c0-3.01-2.2-4.52-6.6-4.52
		c-0.8,0-1.64,0.07-2.52,0.2C173.28,20.4,173.16,20.53,173.16,20.74z"/>
	<path fill="#FFFFFF" d="M203.68,45.78c-3.49,0-6.18-0.91-8.06-2.74c-1.88-1.83-2.82-4.51-2.82-8.06c0-3.52,0.84-6.2,2.52-8.04
		c1.68-1.84,4.11-2.76,7.28-2.76c5.92,0,8.96,3.36,9.12,10.08c0.03,0.64-0.2,1.17-0.68,1.6c-0.48,0.43-1.04,0.64-1.68,0.64h-10.92
		c-0.24,0-0.33,0.12-0.28,0.36c0.19,1.79,0.78,3.09,1.78,3.9c1,0.81,2.46,1.22,4.38,1.22c1.2,0,2.53-0.2,4-0.6
		c0.48-0.13,0.93-0.05,1.34,0.24c0.41,0.29,0.62,0.69,0.62,1.2c0,0.61-0.18,1.15-0.54,1.62c-0.36,0.47-0.83,0.75-1.42,0.86
		C206.82,45.62,205.28,45.78,203.68,45.78z M202.68,27.9c-1.36,0-2.41,0.38-3.14,1.14c-0.73,0.76-1.19,1.98-1.38,3.66
		c0,0.21,0.11,0.32,0.32,0.32h7.84c0.21,0,0.32-0.11,0.32-0.32C206.53,29.5,205.21,27.9,202.68,27.9z"/>
	<path fill="#FFFFFF" d="M221.92,45.38c-0.61,0-1.15-0.23-1.6-0.68c-0.45-0.45-0.68-0.99-0.68-1.6V17.66c0-0.61,0.23-1.15,0.68-1.6
		c0.45-0.45,0.99-0.68,1.6-0.68h1.04c0.61,0,1.15,0.23,1.6,0.68c0.45,0.45,0.68,0.99,0.68,1.6V43.1c0,0.61-0.23,1.15-0.68,1.6
		c-0.45,0.45-0.99,0.68-1.6,0.68H221.92z"/>
	<path fill="#FFFFFF" d="M250.54,42.96c-1.77,1.88-4.26,2.82-7.46,2.82c-3.2,0-5.69-0.94-7.46-2.82s-2.66-4.54-2.66-7.98
		s0.89-6.1,2.66-7.98s4.26-2.82,7.46-2.82c3.2,0,5.69,0.94,7.46,2.82c1.77,1.88,2.66,4.54,2.66,7.98S252.31,41.08,250.54,42.96z
		 M246.62,29.72c-0.79-1.11-1.97-1.66-3.54-1.66c-1.57,0-2.75,0.55-3.54,1.66c-0.79,1.11-1.18,2.86-1.18,5.26s0.39,4.15,1.18,5.26
		c0.79,1.11,1.97,1.66,3.54,1.66c1.57,0,2.75-0.55,3.54-1.66c0.79-1.11,1.18-2.86,1.18-5.26S247.4,30.83,246.62,29.72z"/>
	<path fill="#FFFFFF" d="M265,45.78c-1.81,0-3.31-0.59-4.5-1.78s-1.78-2.73-1.78-4.62c0-2.32,0.89-4.12,2.66-5.4
		c1.77-1.28,4.49-1.92,8.14-1.92h1.64c0.24,0,0.36-0.12,0.36-0.36v-0.32c0-1.23-0.29-2.09-0.88-2.58c-0.59-0.49-1.63-0.74-3.12-0.74
		c-1.55,0-3.44,0.28-5.68,0.84c-0.48,0.13-0.92,0.05-1.32-0.26c-0.4-0.31-0.6-0.71-0.6-1.22c0-0.61,0.19-1.17,0.56-1.66
		c0.37-0.49,0.85-0.79,1.44-0.9c2.03-0.45,3.93-0.68,5.72-0.68c3.41,0,5.8,0.61,7.16,1.84c1.36,1.23,2.04,3.37,2.04,6.44V43.1
		c0,0.61-0.22,1.15-0.66,1.6c-0.44,0.45-0.97,0.68-1.58,0.68h-0.44c-0.64,0-1.19-0.22-1.64-0.66s-0.69-0.98-0.72-1.62v-0.56
		c0-0.03-0.01-0.04-0.04-0.04c-0.05,0-0.08,0.01-0.08,0.04C270.05,44.7,267.82,45.78,265,45.78z M269.52,35.38
		c-3.81,0-5.72,1.17-5.72,3.52c0,0.85,0.25,1.55,0.74,2.08c0.49,0.53,1.13,0.8,1.9,0.8c1.52,0,2.75-0.47,3.68-1.42
		c0.93-0.95,1.4-2.25,1.4-3.9v-0.72c0-0.24-0.12-0.36-0.36-0.36H269.52z"/>
	<path fill="#FFFFFF" d="M291.64,45.78c-2.37,0-4.35-0.97-5.92-2.9c-1.57-1.93-2.36-4.57-2.36-7.9c0-3.44,0.75-6.1,2.26-7.98
		c1.51-1.88,3.51-2.82,6.02-2.82c2.27,0,4.27,0.83,6,2.48c0.03,0.03,0.05,0.04,0.08,0.04s0.04-0.01,0.04-0.04v-9
		c0-0.61,0.23-1.15,0.68-1.6c0.45-0.45,0.99-0.68,1.6-0.68h0.8c0.61,0,1.15,0.23,1.6,0.68c0.45,0.45,0.68,0.99,0.68,1.6V43.1
		c0,0.61-0.23,1.15-0.68,1.6c-0.45,0.45-0.99,0.68-1.6,0.68h-0.44c-0.64,0-1.18-0.22-1.62-0.66c-0.44-0.44-0.67-0.98-0.7-1.62
		l-0.04-0.28c0-0.03-0.01-0.04-0.04-0.04c-0.03,0-0.05,0.01-0.08,0.04C296.16,44.8,294.06,45.78,291.64,45.78z M293.24,28.18
		c-3.07,0-4.6,2.27-4.6,6.8c0,2.27,0.41,3.97,1.24,5.1c0.83,1.13,1.95,1.7,3.36,1.7c1.25,0,2.33-0.41,3.24-1.24
		c0.91-0.83,1.36-1.77,1.36-2.84v-5.44c0-1.07-0.45-2.01-1.36-2.84C295.57,28.6,294.49,28.18,293.24,28.18z"/>
</g>
<g>
	<path fill="#F7B70A" d="M169.37,69.42c-0.21,0-0.4-0.08-0.55-0.24c-0.15-0.16-0.23-0.35-0.23-0.56V60c0-0.21,0.08-0.4,0.23-0.56
		c0.15-0.16,0.34-0.24,0.55-0.24h0.45c0.21,0,0.4,0.08,0.56,0.24c0.16,0.16,0.24,0.34,0.24,0.56v7.67c0,0.08,0.04,0.13,0.11,0.13
		h3.6c0.21,0,0.4,0.08,0.55,0.23c0.15,0.15,0.23,0.34,0.23,0.55v0.04c0,0.21-0.08,0.4-0.23,0.56c-0.15,0.16-0.34,0.24-0.55,0.24
		H169.37z"/>
	<path fill="#F7B70A" d="M178.61,69.42c-0.21,0-0.4-0.08-0.56-0.24c-0.16-0.16-0.24-0.35-0.24-0.56V60c0-0.21,0.08-0.4,0.24-0.56
		c0.16-0.16,0.34-0.24,0.56-0.24h4.76c0.21,0,0.4,0.08,0.56,0.24c0.16,0.16,0.24,0.34,0.24,0.56s-0.08,0.4-0.24,0.55
		c-0.16,0.15-0.35,0.23-0.56,0.23h-3.47c-0.08,0-0.13,0.04-0.13,0.13v2.25c0,0.08,0.04,0.13,0.13,0.13h3.23
		c0.21,0,0.39,0.08,0.54,0.22c0.14,0.15,0.22,0.33,0.22,0.53c0,0.21-0.07,0.38-0.22,0.53s-0.32,0.22-0.54,0.22h-3.23
		c-0.08,0-0.13,0.04-0.13,0.13v2.8c0,0.08,0.04,0.13,0.13,0.13h3.47c0.21,0,0.4,0.08,0.56,0.23s0.24,0.34,0.24,0.55
		s-0.08,0.4-0.24,0.56c-0.16,0.16-0.35,0.24-0.56,0.24H178.61z"/>
	<path fill="#F7B70A" d="M187.53,60.83c-0.21,0-0.4-0.08-0.56-0.23c-0.16-0.15-0.24-0.34-0.24-0.55V60c0-0.21,0.08-0.4,0.24-0.56
		c0.16-0.16,0.35-0.24,0.56-0.24h5.96c0.21,0,0.4,0.08,0.56,0.24c0.16,0.16,0.24,0.34,0.24,0.56v0.04c0,0.21-0.08,0.4-0.24,0.55
		c-0.16,0.15-0.35,0.23-0.56,0.23h-1.88c-0.07,0-0.11,0.04-0.11,0.13v7.67c0,0.21-0.08,0.4-0.24,0.56
		c-0.16,0.16-0.35,0.24-0.56,0.24h-0.39c-0.21,0-0.4-0.08-0.56-0.24c-0.16-0.16-0.24-0.35-0.24-0.56v-7.67
		c0-0.08-0.04-0.13-0.11-0.13H187.53z"/>
	<path fill="#F7B70A" d="M197.46,62.56c-0.2,0-0.36-0.08-0.48-0.24s-0.17-0.34-0.12-0.53l0.56-2.38c0.06-0.22,0.18-0.41,0.36-0.55
		c0.19-0.14,0.39-0.22,0.62-0.22h0.74c0.2,0,0.35,0.08,0.45,0.24c0.11,0.16,0.12,0.33,0.05,0.5l-0.99,2.44
		c-0.08,0.22-0.23,0.4-0.43,0.54c-0.2,0.13-0.42,0.2-0.67,0.2H197.46z"/>
	<path fill="#F7B70A" d="M204.94,65.11c-1.12-0.37-1.93-0.83-2.43-1.36c-0.5-0.53-0.75-1.18-0.75-1.93c0-0.85,0.28-1.52,0.85-2.02
		c0.57-0.49,1.37-0.74,2.39-0.74c0.87,0,1.62,0.1,2.27,0.29c0.22,0.07,0.4,0.2,0.54,0.4c0.14,0.2,0.2,0.42,0.2,0.67v0.13
		c0,0.18-0.08,0.32-0.24,0.41c-0.16,0.1-0.32,0.11-0.49,0.05c-0.7-0.27-1.41-0.41-2.14-0.41c-0.47,0-0.82,0.11-1.06,0.32
		c-0.24,0.21-0.36,0.51-0.36,0.9c0,0.67,0.44,1.15,1.32,1.44c1.26,0.4,2.13,0.86,2.63,1.37c0.49,0.51,0.73,1.18,0.73,1.99
		c0,1.96-1.21,2.94-3.63,2.94c-0.76,0-1.44-0.12-2.06-0.35c-0.22-0.08-0.4-0.23-0.52-0.43S202,68.34,202,68.09v-0.17
		c0-0.18,0.07-0.31,0.22-0.38s0.3-0.08,0.46-0.01c0.62,0.31,1.26,0.46,1.95,0.46c1.19,0,1.78-0.45,1.78-1.34
		c0-0.36-0.11-0.67-0.34-0.9S205.47,65.3,204.94,65.11z"/>
	<path fill="#F7B70A" d="M216.71,69.42c-0.21,0-0.4-0.08-0.56-0.24c-0.16-0.16-0.24-0.35-0.24-0.56V60c0-0.21,0.08-0.4,0.24-0.56
		c0.16-0.16,0.35-0.24,0.56-0.24h0.35c0.24,0,0.47,0.07,0.67,0.2s0.35,0.3,0.45,0.52l2.45,5.29c0,0.01,0,0.01,0.01,0.01
		s0.01,0,0.01-0.01l2.45-5.29c0.09-0.21,0.24-0.39,0.45-0.52s0.43-0.2,0.67-0.2h0.41c0.21,0,0.4,0.08,0.56,0.24
		c0.16,0.16,0.24,0.34,0.24,0.56v8.62c0,0.21-0.08,0.4-0.24,0.56c-0.16,0.16-0.34,0.24-0.56,0.24h-0.31c-0.21,0-0.4-0.08-0.56-0.24
		c-0.16-0.16-0.24-0.35-0.24-0.56v-6.09c0-0.01,0-0.01-0.01-0.01c-0.01,0-0.01,0-0.01,0.01l-1.68,3.6c-0.1,0.21-0.26,0.39-0.47,0.53
		s-0.43,0.2-0.67,0.2h-0.08c-0.23,0-0.46-0.07-0.67-0.2s-0.37-0.31-0.47-0.53l-1.68-3.6c0-0.01,0-0.01-0.01-0.01
		c-0.01,0-0.01,0-0.01,0.01v6.09c0,0.21-0.08,0.4-0.24,0.56c-0.16,0.16-0.35,0.24-0.56,0.24H216.71z"/>
	<path fill="#F7B70A" d="M235.93,68.18c-0.83,0.92-1.97,1.39-3.41,1.39s-2.57-0.46-3.41-1.39c-0.83-0.92-1.25-2.21-1.25-3.86
		c0-1.65,0.42-2.94,1.25-3.86c0.84-0.92,1.97-1.39,3.41-1.39s2.57,0.46,3.41,1.39s1.25,2.21,1.25,3.86
		C237.18,65.96,236.76,67.25,235.93,68.18z M235.18,64.31c0-2.43-0.89-3.64-2.66-3.64s-2.66,1.21-2.66,3.64
		c0,2.43,0.89,3.64,2.66,3.64S235.18,66.74,235.18,64.31z"/>
	<path fill="#F7B70A" d="M241.44,68.67l-2.9-8.71c-0.07-0.19-0.04-0.36,0.07-0.52c0.11-0.16,0.27-0.24,0.46-0.24h0.5
		c0.23,0,0.45,0.07,0.64,0.22c0.2,0.14,0.32,0.33,0.38,0.55l2.14,7.52c0,0.01,0,0.01,0.01,0.01c0.01,0,0.01,0,0.01-0.01l2.17-7.53
		c0.06-0.22,0.19-0.41,0.38-0.55s0.4-0.21,0.64-0.21h0.45c0.2,0,0.35,0.08,0.46,0.24c0.11,0.16,0.13,0.33,0.07,0.52l-2.9,8.71
		c-0.07,0.22-0.21,0.41-0.4,0.55c-0.19,0.14-0.41,0.21-0.65,0.21h-0.5c-0.23,0-0.45-0.07-0.64-0.21
		C241.66,69.07,241.52,68.89,241.44,68.67z"/>
	<path fill="#F7B70A" d="M249.96,69.42c-0.21,0-0.4-0.08-0.56-0.24c-0.16-0.16-0.24-0.35-0.24-0.56V60c0-0.21,0.08-0.4,0.24-0.56
		c0.16-0.16,0.35-0.24,0.56-0.24h4.76c0.21,0,0.4,0.08,0.56,0.24c0.16,0.16,0.24,0.34,0.24,0.56s-0.08,0.4-0.24,0.55
		c-0.16,0.15-0.34,0.23-0.56,0.23h-3.47c-0.08,0-0.13,0.04-0.13,0.13v2.25c0,0.08,0.04,0.13,0.13,0.13h3.23
		c0.21,0,0.39,0.08,0.54,0.22c0.14,0.15,0.22,0.33,0.22,0.53c0,0.21-0.07,0.38-0.22,0.53s-0.32,0.22-0.54,0.22h-3.23
		c-0.08,0-0.13,0.04-0.13,0.13v2.8c0,0.08,0.04,0.13,0.13,0.13h3.47c0.21,0,0.4,0.08,0.56,0.23c0.16,0.15,0.24,0.34,0.24,0.55
		s-0.08,0.4-0.24,0.56c-0.16,0.16-0.34,0.24-0.56,0.24H249.96z"/>
	<path fill="#F7B70A" d="M264.33,69.42c-0.21,0-0.4-0.08-0.56-0.24c-0.16-0.16-0.24-0.35-0.24-0.56V60c0-0.21,0.08-0.4,0.24-0.56
		c0.16-0.16,0.34-0.24,0.56-0.24h0.56c0.21,0,0.4,0.08,0.56,0.24c0.16,0.16,0.24,0.34,0.24,0.56v8.62c0,0.21-0.08,0.4-0.24,0.56
		c-0.16,0.16-0.34,0.24-0.56,0.24H264.33z"/>
	<path fill="#F7B70A" d="M269.47,60.83c-0.21,0-0.4-0.08-0.56-0.23c-0.16-0.15-0.24-0.34-0.24-0.55V60c0-0.21,0.08-0.4,0.24-0.56
		c0.16-0.16,0.34-0.24,0.56-0.24h5.96c0.21,0,0.4,0.08,0.56,0.24c0.16,0.16,0.24,0.34,0.24,0.56v0.04c0,0.21-0.08,0.4-0.24,0.55
		c-0.16,0.15-0.35,0.23-0.56,0.23h-1.88c-0.07,0-0.11,0.04-0.11,0.13v7.67c0,0.21-0.08,0.4-0.24,0.56
		c-0.16,0.16-0.35,0.24-0.56,0.24h-0.39c-0.21,0-0.4-0.08-0.56-0.24c-0.16-0.16-0.24-0.35-0.24-0.56v-7.67
		c0-0.08-0.04-0.13-0.11-0.13H269.47z"/>
</g>
</svg>
