<?xml version="1.0" encoding="utf-8"?>
<!-- Generator: Adobe Illustrator 23.0.5, SVG Export Plug-In . SVG Version: 6.00 Build 0)  -->
<svg version="1.1" id="Layer_1" xmlns="http://www.w3.org/2000/svg" xmlns:xlink="http://www.w3.org/1999/xlink" x="0px" y="0px"
	 viewBox="0 0 252.38 144" enable-background="new 0 0 252.38 144" xml:space="preserve">
<g>
	<g>
		<g>
			<g>
				<path fill="#625D74" d="M202.98,96.1H51.2c13.17,0,23.65,9.88,23.65,22.45c0,0.3,0,0.9,0,1.2h104.18c0-0.3,0-0.9,0-1.2
					C179.03,105.98,189.81,96.1,202.98,96.1z"/>
				<path fill="#615B75" d="M18.56,119.45h8.68c0-0.3,0-0.9,0-1.2c0-12.27,10.78-22.45,23.65-22.45H15.57v20.36
					C15.57,117.95,17.07,119.45,18.56,119.45z"/>
			</g>
			<path fill="#554F5D" d="M51.2,96.1c-13.17,0-23.65,10.78-23.65,23.95S38.32,144,51.2,144s23.65-10.78,23.65-23.95
				S64.37,96.1,51.2,96.1z M51.2,135.32c-8.68,0-15.57-6.89-15.57-15.57s6.89-15.57,15.57-15.57s15.57,6.89,15.57,15.57
				C67.06,128.43,59.88,135.32,51.2,135.32z"/>
			<path fill="#FCB90F" d="M224.83,22.75h-40.72c-1.8,0-3.29,1.5-3.29,3.29V92.8c0,1.8,1.5,2.99,3.29,2.99h56.88V91
				c0-1.8,1.5-2.99,3.29-2.99h5.69v-5.99c0-1.5-0.3-2.69-0.6-3.89l-20.06-52.39C228.43,23.65,226.63,22.75,224.83,22.75z"/>
			<path fill="#625D74" d="M241,97.3v-1.2h-35.03v0.3c10.78,1.8,19.16,10.48,20.06,21.56h15.27v-11.98h8.68v-5.69h-5.69
				C242.5,100.29,241,99.09,241,97.3z"/>
			<path fill="#FCB90F" d="M249.98,105.98L249.98,105.98c1.5,0,2.4,1.2,2.4,2.4v8.68c0,1.8-1.5,2.99-3.29,2.99H244
				c-1.8,0-3.29-1.5-3.29-2.99v-11.38h9.28v0.3H249.98z"/>
			<path fill="#554F5D" d="M202.38,96.1c-13.17,0-23.65,10.78-23.65,23.95S189.51,144,202.38,144s23.65-10.78,23.65-23.95
				S215.25,96.1,202.38,96.1z M202.38,135.32c-8.68,0-15.57-6.89-15.57-15.57s6.89-15.57,15.57-15.57s15.57,6.89,15.57,15.57
				C217.95,128.43,210.76,135.32,202.38,135.32z"/>
			<path fill="#615D6B" d="M188.31,57.18V34.73c0-1.8,1.5-3.29,3.29-3.29h31.73c1.2,0,2.4,0.9,2.99,2.1l7.78,20.96
				c1.2,2.99-1.2,5.99-4.19,5.99h-38.32C189.81,60.17,188.31,58.98,188.31,57.18z"/>
		</g>
	</g>
	<g>
		<g>
			<g>
				<g>
					<g>
						<rect x="24.85" y="60.17" fill="#F2BC86" width="35.93" height="22.45"/>
						<rect x="24.85" y="37.72" fill="#FCB90F" width="35.93" height="22.45"/>
						<g>
							<rect x="60.78" y="60.17" fill="#FCB90F" width="35.93" height="22.45"/>
							<path fill="#FCD275" d="M61.67,60.47L61.67,60.47c0.6,0.6,1.2,1.8,1.5,2.4c0.9,0.9,1.5,2.1,2.1,3.29
								c0.9,1.2,2.1,2.1,3.59,2.1c1.2,0,2.4,0,3.59,0.3c1.2,0.3,2.4,0.3,3.59,0c1.5,0,3.29,0,4.79,0c1.8,0,3.29,0,5.09,0
								c1.2,0,2.99,0.3,4.19-0.3s1.8-1.5,2.69-2.4c0.9-1.2,1.8-2.1,2.4-3.29c0.3-0.3,1.2-2.1,1.8-1.8c0.3,0.3,0.3,1.8,0,2.1
								c-0.3,1.5-1.5,2.99-2.4,4.19s-1.8,2.4-2.99,2.99c-1.5,0.9-3.59,1.5-5.39,1.5c-5.09,0.6-10.48,0.6-15.57,0.9
								c-1.5,0-2.99,0-4.19-0.9c-0.6-0.3-0.9-0.6-1.2-1.2c-0.6-0.6-1.2-0.9-1.5-1.5c-1.2-1.2-3.29-2.99-3.29-4.79
								C60.78,63.17,60.48,61.67,61.67,60.47z"/>
							<polygon fill="#FCD275" points="96.7,60.17 95.2,62.27 91.01,68.26 66.46,68.26 62.57,62.27 60.78,60.17 							"/>
							<polygon opacity="0.3" fill="#FFFFFF" enable-background="new    " points="96.7,60.17 95.2,62.27 62.57,62.27 60.78,60.17 
															"/>
						</g>
						<g>
							<rect x="97" y="60.17" fill="#FCB90F" width="35.93" height="22.45"/>
							<polygon fill="#FCD275" points="132.93,60.17 131.13,62.57 126.94,68.26 102.69,68.26 98.8,62.57 97,60.17 							"/>
							<polygon opacity="0.3" fill="#FFFFFF" enable-background="new    " points="132.93,60.17 131.13,62.57 98.8,62.57 97,60.17 
															"/>
						</g>
						<path fill="#FCD275" d="M60.78,44.91H40.72c-1.8,0-3.59,1.5-3.59,3.59v1.2c0,1.8,1.5,3.59,3.59,3.59h20.06L60.78,44.91
							L60.78,44.91z"/>
						<rect x="132.93" y="47" fill="#E2A771" width="16.47" height="35.63"/>
						<path opacity="0.3" fill="#FFFFFF" enable-background="new    " d="M132.93,47v35.63h7.78
							C140.71,82.63,140.71,53.89,132.93,47z"/>
						<rect x="78.74" y="39.22" fill="#F2BC86" width="53.89" height="20.96"/>
						<rect x="78.74" y="43.11" fill="#E2A771" width="53.89" height="5.09"/>
						<rect x="78.74" y="39.22" opacity="0.3" fill="#FFFFFF" enable-background="new    " width="53.89" height="3.89"/>
						<line fill="none" x1="132.63" y1="43.11" x2="78.74" y2="43.11"/>
					</g>
				</g>
				<rect x="24.85" y="60.17" opacity="0.3" fill="#FFFFFF" enable-background="new    " width="35.93" height="4.19"/>
				<rect x="24.85" y="37.72" opacity="0.3" fill="#FFFFFF" enable-background="new    " width="35.93" height="4.19"/>
			</g>
		</g>
	</g>
</g>
<rect x="16" y="75" fill="#C4C6C6" width="158" height="21"/>
</svg>
