<?xml version="1.0" encoding="utf-8"?>
<!-- Generator: Adobe Illustrator 23.0.5, SVG Export Plug-In . SVG Version: 6.00 Build 0)  -->
<svg version="1.1" id="Layer_1" xmlns="http://www.w3.org/2000/svg" xmlns:xlink="http://www.w3.org/1999/xlink" x="0px" y="0px"
	 viewBox="0 0 253 144" enable-background="new 0 0 253 144" xml:space="preserve">
<g>
	<path fill="#625D74" d="M203.3,96.1H51.5c13.2,0,23.6,9.9,23.6,22.5c0,0.3,0,0.9,0,1.2h104.2c0-0.3,0-0.9,0-1.2
		C179.3,106,190.1,96.1,203.3,96.1z"/>
	<path fill="#615B75" d="M18.9,119.4h8.7c0-0.3,0-0.9,0-1.2c0-12.3,10.8-22.4,23.6-22.4H15.9v20.4C15.9,117.9,17.4,119.4,18.9,119.4
		z"/>
</g>
<path fill="#554F5D" d="M51.5,96.1c-13.2,0-23.6,10.8-23.6,24S38.6,144,51.5,144s23.6-10.8,23.6-23.9S64.7,96.1,51.5,96.1z
	 M51.5,135.3c-8.7,0-15.6-6.9-15.6-15.6s6.9-15.6,15.6-15.6s15.6,6.9,15.6,15.6C67.4,128.4,60.2,135.3,51.5,135.3z"/>
<path fill="#FCB90F" d="M221.14,47h-48.71c-2.15,0-3.95,1-3.95,2.21v44.69c0,1.2,1.8,2.01,3.95,2.01h68.1v-3.28
	c0-1.2,1.8-2.01,3.95-2.01h6.82V86.6c0-1-0.36-1.81-0.72-2.61l-24.06-35.05C225.45,47.54,223.29,47,221.14,47z"/>
<path fill="#625D74" d="M241.3,97.3v-1.2h-35v0.3c10.8,1.8,19.2,10.5,20.1,21.6h15.3v-12h8.7v-5.7h-5.7
	C242.8,100.3,241.3,99.1,241.3,97.3z"/>
<path fill="#FCB90F" d="M250.3,106L250.3,106c1.5,0,2.4,1.2,2.4,2.4v8.7c0,1.8-1.5,3-3.3,3h-5.1c-1.8,0-3.3-1.5-3.3-3v-11.4h9.3
	L250.3,106L250.3,106z"/>
<path fill="#554F5D" d="M202.7,96.1c-13.2,0-23.6,10.8-23.6,24s10.8,23.9,23.6,23.9s23.6-10.8,23.6-23.9S215.6,96.1,202.7,96.1z
	 M202.7,135.3c-8.7,0-15.6-6.9-15.6-15.6s6.9-15.6,15.6-15.6s15.6,6.9,15.6,15.6S211.1,135.3,202.7,135.3z"/>
<g>
	<g>
		<g>
			<g>
				<g>
					<path fill="#A6AFB2" d="M19.26,82.6c0,0-1.8,11.52,5.1,11.52s125.1,0,129.9,0c5.1,0,6-4.43,6-11.52H19.26z"/>
				</g>
			</g>
			<g>
				<rect x="25.2" y="60.2" fill="#F2BC86" width="35.9" height="22.4"/>
				<rect x="25.2" y="37.7" fill="#FCB90F" width="35.9" height="22.5"/>
				<g>
					<rect x="61.1" y="60.2" fill="#FCB90F" width="35.9" height="22.4"/>
					<path fill="#FCD275" d="M62,60.5L62,60.5c0.6,0.6,1.2,1.8,1.5,2.4c0.9,0.9,1.5,2.1,2.1,3.3c0.9,1.2,2.1,2.1,3.6,2.1
						c1.2,0,2.4,0,3.6,0.3s2.4,0.3,3.6,0c1.5,0,3.3,0,4.8,0c1.8,0,3.3,0,5.1,0c1.2,0,3,0.3,4.2-0.3s1.8-1.5,2.7-2.4
						c0.9-1.2,1.8-2.1,2.4-3.3c0.3-0.3,1.2-2.1,1.8-1.8c0.3,0.3,0.3,1.8,0,2.1c-0.3,1.5-1.5,3-2.4,4.2s-1.8,2.4-3,3
						c-1.5,0.9-3.6,1.5-5.4,1.5c-5.1,0.6-10.5,0.6-15.6,0.9c-1.5,0-3,0-4.2-0.9c-0.6-0.3-0.9-0.6-1.2-1.2c-0.6-0.6-1.2-0.9-1.5-1.5
						c-1.2-1.2-3.3-3-3.3-4.8C61.1,63.2,60.8,61.7,62,60.5z"/>
					<polygon fill="#FCD275" points="97,60.2 95.5,62.3 91.3,68.3 66.8,68.3 62.9,62.3 61.1,60.2 					"/>
					<polygon opacity="0.3" fill="#FFFFFF" enable-background="new    " points="97,60.2 95.5,62.3 62.9,62.3 61.1,60.2 					"/>
				</g>
				<g>
					<rect x="97.3" y="60.2" fill="#FCB90F" width="35.9" height="22.4"/>
					<polygon fill="#FCD275" points="133.2,60.2 131.4,62.6 127.3,68.3 103,68.3 99.1,62.6 97.3,60.2 					"/>
					<polygon opacity="0.3" fill="#FFFFFF" enable-background="new    " points="133.2,60.2 131.4,62.6 99.1,62.6 97.3,60.2 					
						"/>
				</g>
				<path fill="#FCD275" d="M61.1,44.9H41c-1.8,0-3.6,1.5-3.6,3.6v1.2c0,1.8,1.5,3.6,3.6,3.6h20.1V44.9L61.1,44.9z"/>
				<rect x="133.2" y="47" fill="#E2A771" width="16.5" height="35.6"/>
				<path opacity="0.3" fill="#FFFFFF" enable-background="new    " d="M133.2,47v35.6h7.8C141,82.6,141,53.9,133.2,47z"/>
				<rect x="79.1" y="39.2" fill="#F2BC86" width="53.9" height="21"/>
				<rect x="79.1" y="43.1" fill="#E2A771" width="53.9" height="5.1"/>
				<rect x="79.1" y="39.2" opacity="0.3" fill="#FFFFFF" enable-background="new    " width="53.9" height="3.9"/>
				<line fill="none" x1="132.9" y1="43.1" x2="79.1" y2="43.1"/>
			</g>
		</g>
		<rect x="25.2" y="60.2" opacity="0.3" fill="#FFFFFF" enable-background="new    " width="35.9" height="4.2"/>
		<rect x="25.2" y="37.7" opacity="0.3" fill="#FFFFFF" enable-background="new    " width="35.9" height="4.2"/>
	</g>
</g>
<path fill="#5E5E5E" d="M193.09,56.24h21.54c1.43,0,2.77,0.67,3.64,1.8l9.47,12.47c2.28,3.01,0.14,7.33-3.64,7.33h-31.01
	c-2.52,0-4.57-2.04-4.57-4.57V60.81C188.52,58.28,190.56,56.24,193.09,56.24z"/>
</svg>
