<?xml version="1.0" encoding="utf-8"?>
<!-- Generator: Adobe Illustrator 23.0.5, SVG Export Plug-In . SVG Version: 6.00 Build 0)  -->
<svg version="1.1" id="Layer_1" xmlns="http://www.w3.org/2000/svg" xmlns:xlink="http://www.w3.org/1999/xlink" x="0px" y="0px"
	 viewBox="0 0 253 144" style="enable-background:new 0 0 253 144;" xml:space="preserve">
<style type="text/css">
	.st0{fill:#625D74;}
	.st1{fill:#615B75;}
	.st2{fill:#554F5D;}
	.st3{fill:#FCB90F;}
	.st4{fill:#615D6B;}
	.st5{fill:#C4C6C6;}
	.st6{fill:#A6AFB2;}
	.st7{fill:#6B6B6B;}
	.st8{fill:#424242;}
	.st9{fill:#F2BC86;}
	.st10{fill:#FCD275;}
	.st11{opacity:0.3;fill:#FFFFFF;enable-background:new    ;}
	.st12{fill:#E2A771;}
	.st13{fill:none;}
</style>
<g>
	<path class="st0" d="M75.2,118.5c0,0.3,0,0.9,0,1.2h2.4c0.2-13,10.6-23.7,23.6-23.7H51.5C64.7,96.1,75.2,106,75.2,118.5z"/>
	<path class="st0" d="M101.2,96.1c13.1,0,23.5,10.6,23.6,23.7h54.5c0-0.3,0-0.9,0-1.2c0-12.6,10.8-22.5,23.9-22.5H101.2z"/>
</g>
<path class="st1" d="M18.9,119.4h8.7c0-0.3,0-0.9,0-1.2c0-12.3,10.8-22.4,23.6-22.4H15.9v20.4C15.9,117.9,17.4,119.4,18.9,119.4z"/>
<path class="st2" d="M51.5,96.1c-13.2,0-23.6,10.8-23.6,24S38.6,144,51.5,144s23.6-10.8,23.6-23.9S64.7,96.1,51.5,96.1z M51.5,135.3
	c-8.7,0-15.6-6.9-15.6-15.6s6.9-15.6,15.6-15.6s15.6,6.9,15.6,15.6C67.4,128.4,60.2,135.3,51.5,135.3z"/>
<path class="st3" d="M225.1,22.8h-40.7c-1.8,0-3.3,1.5-3.3,3.3v66.8c0,1.8,1.5,3,3.3,3h56.9V91c0-1.8,1.5-3,3.3-3h5.7v-6
	c0-1.5-0.3-2.7-0.6-3.9l-20.1-52.4C228.7,23.6,226.9,22.8,225.1,22.8z"/>
<path class="st0" d="M241.3,97.3v-1.2h-35v0.3c10.8,1.8,19.2,10.5,20.1,21.6h15.3v-12h8.7v-5.7h-5.7
	C242.8,100.3,241.3,99.1,241.3,97.3z"/>
<path class="st3" d="M250.3,106L250.3,106c1.5,0,2.4,1.2,2.4,2.4v8.7c0,1.8-1.5,3-3.3,3h-5.1c-1.8,0-3.3-1.5-3.3-3v-11.4h9.3
	L250.3,106L250.3,106z"/>
<path class="st2" d="M202.7,96.1c-13.2,0-23.6,10.8-23.6,24s10.8,23.9,23.6,23.9s23.6-10.8,23.6-23.9S215.6,96.1,202.7,96.1z
	 M202.7,135.3c-8.7,0-15.6-6.9-15.6-15.6s6.9-15.6,15.6-15.6s15.6,6.9,15.6,15.6C218.3,128.4,211.1,135.3,202.7,135.3z"/>
<path class="st4" d="M188.6,57.2V34.7c0-1.8,1.5-3.3,3.3-3.3h31.7c1.2,0,2.4,0.9,3,2.1l7.8,21c1.2,3-1.2,6-4.2,6h-38.3
	C190.1,60.2,188.6,59,188.6,57.2z"/>
<g>
	<path class="st5" d="M0.3,6.3v92.2c0,3.6,3,6.3,6.3,6.3h26.6c4.5-5.4,11.4-8.7,18.9-8.7s14.4,3.3,18.9,8.7h97.9
		c3.6,0,6.3-2.7,6.3-6.3V6.3c0-3.6-3-6.3-6.3-6.3H6.6C3,0,0.3,3,0.3,6.3z"/>
</g>
<g>
	<g>
		<g>
			<g>
				<g>
					<path class="st6" d="M17.1,82.6c0,0-1.8,7.8,5.1,7.8s125.1,0,129.9,0c5.1,0,6-3,6-7.8H17.1z"/>
				</g>
				<rect x="17.1" y="15.3" class="st7" width="141.3" height="67.4"/>
				<rect x="17.1" y="28.1" class="st8" width="141.3" height="54.5"/>
			</g>
			<g>
				<rect x="25.2" y="60.2" class="st9" width="35.9" height="22.4"/>
				<rect x="25.2" y="37.7" class="st3" width="35.9" height="22.5"/>
				<g>
					<rect x="61.1" y="60.2" class="st3" width="35.9" height="22.4"/>
					<path class="st10" d="M62,60.5L62,60.5c0.6,0.6,1.2,1.8,1.5,2.4c0.9,0.9,1.5,2.1,2.1,3.3c0.9,1.2,2.1,2.1,3.6,2.1
						c1.2,0,2.4,0,3.6,0.3c1.2,0.3,2.4,0.3,3.6,0c1.5,0,3.3,0,4.8,0c1.8,0,3.3,0,5.1,0c1.2,0,3,0.3,4.2-0.3s1.8-1.5,2.7-2.4
						c0.9-1.2,1.8-2.1,2.4-3.3c0.3-0.3,1.2-2.1,1.8-1.8c0.3,0.3,0.3,1.8,0,2.1c-0.3,1.5-1.5,3-2.4,4.2s-1.8,2.4-3,3
						c-1.5,0.9-3.6,1.5-5.4,1.5c-5.1,0.6-10.5,0.6-15.6,0.9c-1.5,0-3,0-4.2-0.9c-0.6-0.3-0.9-0.6-1.2-1.2c-0.6-0.6-1.2-0.9-1.5-1.5
						c-1.2-1.2-3.3-3-3.3-4.8C61.1,63.2,60.8,61.7,62,60.5z"/>
					<polygon class="st10" points="97,60.2 95.5,62.3 91.3,68.3 66.8,68.3 62.9,62.3 61.1,60.2 					"/>
					<polygon class="st11" points="97,60.2 95.5,62.3 62.9,62.3 61.1,60.2 					"/>
				</g>
				<g>
					<rect x="97.3" y="60.2" class="st3" width="35.9" height="22.4"/>
					<polygon class="st10" points="133.2,60.2 131.4,62.6 127.3,68.3 103,68.3 99.1,62.6 97.3,60.2 					"/>
					<polygon class="st11" points="133.2,60.2 131.4,62.6 99.1,62.6 97.3,60.2 					"/>
				</g>
				<path class="st10" d="M61.1,44.9H41c-1.8,0-3.6,1.5-3.6,3.6v1.2c0,1.8,1.5,3.6,3.6,3.6h20.1L61.1,44.9L61.1,44.9z"/>
				<rect x="133.2" y="47" class="st12" width="16.5" height="35.6"/>
				<path class="st11" d="M133.2,47v35.6h7.8C141,82.6,141,53.9,133.2,47z"/>
				<rect x="79.1" y="39.2" class="st9" width="53.9" height="21"/>
				<rect x="79.1" y="43.1" class="st12" width="53.9" height="5.1"/>
				<rect x="79.1" y="39.2" class="st11" width="53.9" height="3.9"/>
				<line class="st13" x1="132.9" y1="43.1" x2="79.1" y2="43.1"/>
			</g>
		</g>
		<rect x="25.2" y="60.2" class="st11" width="35.9" height="4.2"/>
		<rect x="25.2" y="37.7" class="st11" width="35.9" height="4.2"/>
		<g>
			<path d="M159,75.4c0-4.2,0-8.4,0-12.3c0-9.9,0-20.1,0-29.9c0-3.9,0-7.8,0-12c0-1.5,0-2.7,0-4.2c0-0.6,0.3-1.8,0-2.1
				c-0.6-0.9-5.1-0.3-6.3-0.3c-6.6,0-13.2,0-19.5,0c-19.5,0-38.9,0-58.4,0c-16.5,0-33.2,0-49.7,0c-2.1,0-4.2,0-6,0
				c-0.3,0-2.1-0.3-2.4,0s0,3.3,0,3.9c0,3.6,0,6.9,0,10.5c0,17.4,0,34.7,0,52.1c0,2.4,0,2.1,2.7,2.1c2.4,0,5.1,0,7.5,0
				c9,0,18,0,26.9,0c2.4,0,4.5,0,6.9,0c12.9,0,25.5,0,38.3,0c14.7,0,29.3,0,44,0c3,0,6,0,9,0c1.2,0,2.4,0,3.6,0c0.6,0,2.4,0.3,3,0
				c0.9-0.3,0.3,0.3,0.6-0.6c0.3-0.6,0-2.1,0-2.7C159,78.4,159,76.9,159,75.4z M60.5,82c-0.6,0.9-6,0-6.9,0c-9.3,0-18.6,0-27.8,0
				c0-3.6,0-7.5,0-11.1c0-2.4,0-4.8,0-7.2c0-0.3-0.3-2.7,0-3s2.4,0,2.7,0c2.1,0,4.2,0,6,0c5.4,0,10.8,0,15.9,0c2.1,0,4.2,0,6.3,0
				c0.6,0,3-0.3,3.3,0s0,1.5,0,2.1c0,0.9,0,2.1,0,3c-3.3,0-21,0-21.6,0s-0.9,0.3-0.9,0.6s0.6,0.6,0.9,0.6c0.3,0,18.6,0,21.6,0
				c0,0.9,0,1.5,0,2.4c-3.3,0-21,0-21.6,0s-0.9,0.3-0.9,0.6s0.6,0.6,0.9,0.6c0.3,0,18.6,0,21.6,0c0,0.9,0,1.5,0,2.4
				c-3.3,0-21,0-21.6,0s-0.9,0.3-0.9,0.6s0.6,0.6,0.9,0.6c0.3,0,18.6,0,21.6,0c0,1.2,0,2.4,0,3.3C60.5,78.4,61.1,81.1,60.5,82z
				 M60.5,46.4c0.3,1.8,0,4.2,0,6.3c-3.3,0-6.9,0-10.2,0c-2.1,0-4.2,0-6.6,0c-1.2,0-3,0.3-4.2-0.6c-3.3-1.8-1.5-6.3,1.8-6.6
				c1.2,0,2.1,0,3.3,0c4.5,0,9,0,13.5,0c0.3,0,1.5-0.3,1.8,0C60.8,45.5,60.5,45.5,60.5,46.4z M60.5,44.3c-5.4,0-10.8,0-16.5,0
				c-2.7,0-5.7-0.3-6.9,3c-1.5,3.6,1.5,6.6,5.1,6.6c3,0,6,0,8.7,0c1.8,0,3.3,0,5.1,0c1.2,0,2.1,0,3.3,0c0.3,0,1.2,0,1.2,0.9
				s0.3,3.9,0,4.5c-0.3,0.6-1.8,0.3-3,0.3c-6.6,0-12.9,0-19.5,0c-3,0-6,0-9,0c-0.6,0-3,0.3-3.3,0s0-1.5,0-1.8c0-1.5,0-3,0-4.5
				c0-3.6,0-6.9,0-10.5c0-0.6,0-3.9,0.6-4.2c0.6-0.6,3.6-0.3,4.2-0.3c7.5,0,15,0,22.5,0c1.5,0,3,0,4.5,0c0.6,0,2.1-0.3,2.7,0
				C61.1,38.6,60.5,42.8,60.5,44.3z M96.4,82c-0.6,0.3-2.7,0-3.3,0c-2.1,0-4.2,0-6,0c-5.1,0-10.5,0-15.6,0c-3.3,0-6.6,0-9.9,0
				c0-6.6,0-13.5,0-20.1c0.9,1.2,1.5,2.1,2.4,3.3c0.6,0.9,1.5,2.7,2.4,3.3c1.5,0.9,4.5,0.3,6,0.3c3.9,0,7.8,0,11.7,0
				c1.5,0,3,0,4.8,0c0.6,0,1.8,0.3,2.4,0c0.9-0.3,1.8-2.1,2.4-2.7c0.9-1.5,1.8-2.7,3-4.2c0,3.6,0,7.5,0,11.1c0,2.4,0,4.8,0,7.2
				C96.4,80.5,96.7,81.7,96.4,82z M131.7,59.6c-1.2,0.3-3.6,0-4.8,0c-2.7,0-5.1,0-7.8,0c-5.4,0-10.8,0-16.5,0c-7.8,0-15.3,0-23,0
				c0-5.1,0-10.5,0-15.6c17.1,0,34.1,0,51.2,0c0.3,0,1.2,0,1.5,0c0.3,0.3,0,1.8,0,1.8c0,1.5,0,2.7,0,4.2c0,2.7,0,5.4,0,8.1
				C132.3,59.3,132.6,59.3,131.7,59.6z M132,60.8c-0.6,0.9-1.5,2.1-2.1,3c-0.6,0.9-1.8,3.3-2.7,3.9c-1.2,0.6-4.2,0-5.4,0
				c-3.9,0-7.8,0-11.7,0c-1.5,0-3,0-4.8,0c-0.6,0-1.8,0.3-2.1,0c-0.9-0.3-1.8-2.4-2.1-3c-0.9-1.2-1.8-2.7-2.7-3.9
				C109.6,60.8,120.7,60.8,132,60.8z M132.3,42.8c-15.3,0-30.8,0-46.1,0c-2.1,0-4.5,0-6.6,0c0-1.2-0.3-2.4,0.6-3
				c0.9-0.3,2.4,0,3.3,0c4.5,0,8.7,0,13.2,0c10.2,0,20.4,0,30.5,0c1.2,0,4.8,0,5.1,0C132.6,40.1,132.3,42.2,132.3,42.8z M96.1,60.8
				c-0.6,0.9-1.5,2.1-2.1,3c-0.6,0.9-1.8,3.3-2.7,3.9c-1.2,0.6-4.2,0-5.4,0c-3.9,0-7.8,0-11.7,0c-1.5,0-3,0-4.8,0
				c-0.6,0-1.8,0.3-2.1,0c-0.9-0.3-1.8-2.4-2.1-3c-0.9-1.2-1.8-2.7-2.7-3.9C73.7,60.8,84.7,60.8,96.1,60.8z M132.3,82
				c-0.6,0.3-2.7,0-3.3,0c-2.1,0-4.2,0-6,0c-5.1,0-10.5,0-15.6,0c-3.3,0-6.6,0-9.9,0c0-6.6,0-13.5,0-20.1c0.9,1.2,1.5,2.1,2.4,3.3
				c0.6,0.9,1.5,2.7,2.4,3.3c1.5,0.9,4.5,0.3,6,0.3c3.9,0,7.8,0,11.7,0c1.5,0,3,0,4.8,0c0.6,0,1.8,0.3,2.4,0
				c0.9-0.3,1.8-2.1,2.4-2.7c0.9-1.5,1.8-2.7,3-4.2c0,3.6,0,7.5,0,11.1c0,2.4,0,4.8,0,7.2C132.6,80.5,132.6,81.7,132.3,82z
				 M149.1,82c-0.3,0.3-2.4,0-3,0c-4.2,0-8.4,0-12.3,0c0-7.2,0-14.1,0-21.3c0-2.7,0-5.1,0-7.8c0-0.9-0.6-4.5,0-5.1
				c0.3-0.3,2.1,0,2.7,0c2.4,0,4.8,0,7.2,0c1.2,0,4.2-0.6,5.1,0s0.3,3.9,0.3,5.1c0,8.7,0,17.4,0,26C149.1,79.3,149.4,81.4,149.1,82z
				 M157.5,82c-0.6,0.3-3.3,0-3.9,0s-3,0.3-3.3,0c-0.3-0.3,0-2.7,0-3c0-2.7,0-5.4,0-7.8c0-6.3,0-12.6,0-18.9c0-1.2,0.6-4.2,0-5.1
				c-0.3-0.6-1.5-0.3-2.7-0.3c-3,0-6,0-9,0c-0.9,0-4.5,0.6-4.8,0c-0.3-0.6,0-3,0-3.6s0.6-3.6,0-3.9c-0.3-0.3-1.5,0-1.8,0
				c-11.1,0-22.2,0-33.2,0c-5.4,0-10.8,0-15.9,0c-0.9,0-3-0.3-3.6,0s-0.3,1.2-0.3,2.1c0,5.7,0,11.4,0,17.1c0,1.8,0.3,1.5-1.5,1.5
				c-3,0-5.7,0-8.7,0c-1.5,0-2.7,0-4.2,0c-0.3,0-2.1,0.3-2.4,0c-0.6-0.6,0-5.1,0-6.3c0-4.2,0-8.7,0-12.9c0-0.6,0.3-3-0.9-3
				c-0.3,0-3.6,0-5.4,0c-6.3,0-12.6,0-18.9,0c-2.7,0-5.4,0-8.1,0c-0.6,0-3,0-3.3,0.3s-0.3,3-0.3,3.6c0,3,0,6.3,0,9.3
				c0,9.3,0,18.6,0,27.8c0,0.6,0.3,3.6,0,3.9c-0.6,0.3-3,0-3.6,0c-1.2,0-2.1,0-3.3,0c0-20.1,0-39.8,0-59.9c0-1.5,0-3.3,0-4.8
				c0-0.3-0.3-1.5,0-1.5c0.3-0.3,3.3,0,3.9,0c8.1,0,16.2,0,24.5,0c25.4,0,50.9,0,76.3,0c9.3,0,18.9,0,28.1,0c2.1,0,4.8-0.6,6.6,0
				c1.2,0.3,0.9,0.6,0.9,2.1c0,21,0,41.9,0,62.6C157.8,81.4,158.1,81.7,157.5,82z"/>
		</g>
	</g>
</g>
<path class="st2" d="M101.2,96.2c-13.2,0-23.7,10.8-23.7,24s10.8,24,23.7,24s23.7-10.8,23.7-24S114.3,96.2,101.2,96.2z M101.2,135.4
	c-8.7,0-15.6-6.9-15.6-15.6s6.9-15.6,15.6-15.6s15.6,6.9,15.6,15.6C117,128.5,109.8,135.4,101.2,135.4z"/>
</svg>
